<svg width="1920" height="1080" viewBox="0 0 1920 1080" fill="none" xmlns="http://www.w3.org/2000/svg">
<g clip-path="url(#clip0_4_12)">
<path opacity="0.4" d="M1920 1080V149.848C1792 169.564 1664 196.127 1536 229.536C1408 262.945 1280 344.168 1152 473.204C1024 602.24 896 687.688 768 729.548C640 771.408 512 847.122 384 956.689C256 1066.26 128 1147.96 0 1201.81V1080H1920Z" fill="url(#paint0_linear_4_12)"/>
<path opacity="0.4" d="M1920 1080V179.314C1792 332.389 1664 418.268 1536 436.951C1408 455.634 1280 490.417 1152 541.299C1024 592.181 896 680.088 768 805.02C640 929.952 512 1030.33 384 1106.14C256 1181.96 128 1227.57 0 1242.96V1080H1920Z" fill="url(#paint1_linear_4_12)"/>
<path opacity="0.4" d="M1920 1080V69.41C1792 265.19 1664 367.815 1536 377.285C1408 386.755 1280 432.567 1152 514.722C1024 596.877 896 691.878 768 799.727C640 907.576 512 977.539 384 1009.62C256 1041.7 128 1084.81 0 1138.97V1080H1920Z" fill="url(#paint2_linear_4_12)"/>
</g>
<defs>
<linearGradient id="paint0_linear_4_12" x1="1920" y1="1201.81" x2="0" y2="1201.81" gradientUnits="userSpaceOnUse">
<stop stop-color="#0B7188"/>
<stop offset="1" stop-color="#00FFFF"/>
</linearGradient>
<linearGradient id="paint1_linear_4_12" x1="1920" y1="1242.96" x2="0" y2="1242.96" gradientUnits="userSpaceOnUse">
<stop stop-color="#0B7188"/>
<stop offset="1" stop-color="#00FFFF"/>
</linearGradient>
<linearGradient id="paint2_linear_4_12" x1="1920" y1="1138.97" x2="0" y2="1138.97" gradientUnits="userSpaceOnUse">
<stop stop-color="#0B7188"/>
<stop offset="1" stop-color="#00FFFF"/>
</linearGradient>
<clipPath id="clip0_4_12">
<rect width="1920" height="1080" fill="white"/>
</clipPath>
</defs>
</svg>
