<svg width="492" height="933" viewBox="0 0 492 933" fill="none" xmlns="http://www.w3.org/2000/svg">
<rect x="-654" y="307.608" width="863.339" height="865.461" transform="rotate(-24.6158 -654 307.608)" fill="#432617"/>
<rect x="-129.977" y="871.603" width="98.2971" height="98.2971" transform="rotate(-24.6158 -129.977 871.603)" fill="#E7D4B1"/>
<rect x="-84.1577" y="741.006" width="98.2971" height="98.2971" transform="rotate(-24.6158 -84.1577 741.006)" fill="#E7D4B1"/>
<rect x="28.3833" y="42.6791" width="98.2971" height="98.2971" transform="rotate(-24.6158 28.3833 42.6791)" fill="#E7D4B1"/>
<rect x="-117.625" y="431.97" width="98.2971" height="98.2971" transform="rotate(-24.6158 -117.625 431.97)" fill="#E7D4B1"/>
<rect x="-35.7378" y="610.698" width="98.2971" height="98.2971" transform="rotate(-24.6158 -35.7378 610.698)" fill="#E7D4B1"/>
<rect x="-35.7378" y="610.698" width="98.2971" height="98.2971" transform="rotate(-24.6158 -35.7378 610.698)" fill="#E7D4B1"/>
<rect x="48.7515" y="789.716" width="98.2971" height="98.2971" transform="rotate(-24.6158 48.7515 789.716)" fill="#E7D4B1"/>
<rect x="-69.2051" y="301.662" width="98.2971" height="98.2971" transform="rotate(-24.6158 -69.2051 301.662)" fill="#E7D4B1"/>
<rect x="111.086" y="221.033" width="98.2971" height="98.2971" transform="rotate(-24.6158 111.086 221.033)" fill="#E7D4B1"/>
<rect x="-21.0054" y="171.949" width="98.2971" height="98.2971" transform="rotate(-24.6158 -21.0054 171.949)" fill="#E7D4B1"/>
<rect x="12.6826" y="480.39" width="98.2971" height="98.2971" transform="rotate(-24.6158 12.6826 480.39)" fill="#E7D4B1"/>
<rect x="192.974" y="399.761" width="98.2971" height="98.2971" transform="rotate(-24.6158 192.974 399.761)" fill="#E7D4B1"/>
<rect x="60.8823" y="350.677" width="98.2971" height="98.2971" transform="rotate(-24.6158 60.8823 350.677)" fill="#E7D4B1"/>
<rect x="94.5703" y="659.118" width="98.2971" height="98.2971" transform="rotate(-24.6158 94.5703 659.118)" fill="#E7D4B1"/>
<rect x="274.861" y="578.489" width="98.2971" height="98.2971" transform="rotate(-24.6158 274.861 578.489)" fill="#E7D4B1"/>
<rect x="142.77" y="529.405" width="98.2971" height="98.2971" transform="rotate(-24.6158 142.77 529.405)" fill="#E7D4B1"/>
<rect x="142.77" y="529.405" width="98.2971" height="98.2971" transform="rotate(-24.6158 142.77 529.405)" fill="#E7D4B1"/>
<rect x="227.258" y="708.423" width="98.2971" height="98.2971" transform="rotate(-24.6158 227.258 708.423)" fill="#E7D4B1"/>
<rect x="-125.101" y="651.642" width="98.2971" height="98.2971" transform="rotate(-24.6158 -125.101 651.642)" fill="#432617"/>
<rect x="-76.6816" y="521.334" width="98.2971" height="98.2971" transform="rotate(-24.6158 -76.6816 521.334)" fill="#432617"/>
<rect x="5.20557" y="700.062" width="98.2971" height="98.2971" transform="rotate(-24.6158 5.20557 700.062)" fill="#432617"/>
<rect x="-110.148" y="212.298" width="98.2971" height="98.2971" transform="rotate(-24.6158 -110.148 212.298)" fill="#432617"/>
<rect x="70.3989" y="130.071" width="98.2971" height="98.2971" transform="rotate(-24.6158 70.3989 130.071)" fill="#432617"/>
<rect x="-62.1367" y="82.1774" width="98.2971" height="98.2971" transform="rotate(-24.6158 -62.1367 82.1774)" fill="#432617"/>
<rect x="183.9" y="619.178" width="98.2971" height="98.2971" transform="rotate(-24.6158 183.9 619.178)" fill="#432617"/>
<rect x="-28.2617" y="391.026" width="98.2971" height="98.2971" transform="rotate(-24.6158 -28.2617 391.026)" fill="#432617"/>
<rect x="152.287" y="308.799" width="98.2971" height="98.2971" transform="rotate(-24.6158 152.287 308.799)" fill="#432617"/>
<rect x="19.751" y="260.905" width="98.2971" height="98.2971" transform="rotate(-24.6158 19.751 260.905)" fill="#432617"/>
<rect x="53.626" y="569.754" width="98.2971" height="98.2971" transform="rotate(-24.6158 53.626 569.754)" fill="#432617"/>
<rect x="234.174" y="487.527" width="98.2971" height="98.2971" transform="rotate(-24.6158 234.174 487.527)" fill="#432617"/>
<rect x="101.639" y="439.633" width="98.2971" height="98.2971" transform="rotate(-24.6158 101.639 439.633)" fill="#432617"/>
<rect x="-43.4692" y="831.968" width="98.2971" height="98.2971" transform="rotate(-24.6158 -43.4692 831.968)" fill="#432617"/>
<rect x="-125.101" y="651.642" width="98.2971" height="98.2971" transform="rotate(-24.6158 -125.101 651.642)" fill="#432617"/>
<rect x="-76.6816" y="521.334" width="98.2971" height="98.2971" transform="rotate(-24.6158 -76.6816 521.334)" fill="#432617"/>
<rect x="5.20557" y="700.062" width="98.2971" height="98.2971" transform="rotate(-24.6158 5.20557 700.062)" fill="#432617"/>
<rect x="135.259" y="750.08" width="98.2971" height="98.2971" transform="rotate(-24.6158 135.259 750.08)" fill="#432617"/>
<rect x="-110.148" y="212.298" width="98.2971" height="98.2971" transform="rotate(-24.6158 -110.148 212.298)" fill="#432617"/>
<rect x="67.8813" y="133.199" width="98.2971" height="98.2971" transform="rotate(-24.6158 67.8813 133.199)" fill="#432617"/>
<rect x="-62.1367" y="82.1774" width="98.2971" height="98.2971" transform="rotate(-24.6158 -62.1367 82.1774)" fill="#432617"/>
<rect x="183.9" y="619.178" width="98.2971" height="98.2971" transform="rotate(-24.6158 183.9 619.178)" fill="#432617"/>
<rect x="313.953" y="669.196" width="98.2971" height="98.2971" transform="rotate(-24.6158 313.953 669.196)" fill="#432617"/>
<rect x="-28.2617" y="391.026" width="98.2971" height="98.2971" transform="rotate(-24.6158 -28.2617 391.026)" fill="#432617"/>
<rect x="149.396" y="311.111" width="98.2971" height="98.2971" transform="rotate(-24.6158 149.396 311.111)" fill="#432617"/>
<rect x="19.751" y="260.905" width="98.2971" height="98.2971" transform="rotate(-24.6158 19.751 260.905)" fill="#432617"/>
<rect x="53.626" y="569.754" width="98.2971" height="98.2971" transform="rotate(-24.6158 53.626 569.754)" fill="#432617"/>
<rect x="230.909" y="489.023" width="98.2971" height="98.2971" transform="rotate(-24.6158 230.909 489.023)" fill="#432617"/>
<rect x="101.639" y="439.633" width="98.2971" height="98.2971" transform="rotate(-24.6158 101.639 439.633)" fill="#432617"/>
<g clip-path="url(#clip0_232_3)">
<path fill-rule="evenodd" clip-rule="evenodd" d="M44.4929 190.44C49.8421 202.302 26.4314 209.997 37.3635 231.433L80.8224 210.663C71.6143 201.756 78.753 159.485 31.9713 167.387L31.9712 167.387C31.9712 167.387 25.2323 165.252 18.3602 168.113L21.6557 173.85L16.7331 185.732C14.3021 193.431 6.97439 207.827 9.84173 208.997C20.0632 215.054 25.4522 210.638 25.4522 210.638C29.8055 199.111 34.7924 201.788 44.4932 190.44L44.4929 190.44Z" fill="#5F5955" stroke="#1E1E1E" stroke-width="1.2" stroke-linejoin="round"/>
<path opacity="0.4" fill-rule="evenodd" clip-rule="evenodd" d="M26.5914 181.84C25.8197 183.999 26.189 184.349 26.7957 186.201C28.4237 185.669 29.849 185.222 31.1143 184.249C34.6049 179.944 28.491 178.461 26.5916 181.84L26.5914 181.84Z" fill="black"/>
<path opacity="0.35" fill-rule="evenodd" clip-rule="evenodd" d="M13.4525 203.69C12.1723 205.155 12.3396 206.221 12.6476 207.139C14.3699 207.173 16.1051 205.207 15.3559 202.86L13.4525 203.69L13.4525 203.69Z" fill="black"/>
<path opacity="0.25" fill-rule="evenodd" clip-rule="evenodd" d="M13.978 209.624C13.978 209.624 16.1402 210.937 10.554 207.876C10.1976 203.948 18.848 185.035 23.1469 173.719L20.2906 168.701C20.2906 168.701 23.6918 170.561 25.4757 173.385C20.717 184.791 11.101 202.803 11.8897 207.357C12.481 208.469 13.1804 208.865 13.9763 209.624L13.978 209.624Z" fill="white"/>
<path opacity="0.18" fill-rule="evenodd" clip-rule="evenodd" d="M26.1204 210.196C27.2573 202.726 39.4175 197.08 44.4929 190.439C45.1885 190.315 45.8536 192.622 45.9476 192.287C46.6692 189.677 48.8325 184.092 42.0074 179.936C47.8387 189.471 20.5305 201.917 20.2419 211.832C20.2155 212.748 25.0252 211.164 26.1209 210.196L26.1204 210.196Z" fill="black"/>
<path opacity="0.25" fill-rule="evenodd" clip-rule="evenodd" d="M46.2692 191.17C49.0725 201.87 33.1355 210.207 35.7009 222.496C35.8685 209.13 51.4711 203.021 46.2692 191.17Z" fill="white"/>
<path opacity="0.18" fill-rule="evenodd" clip-rule="evenodd" d="M18.3617 168.113C18.3617 168.113 24.7489 166.555 30.9019 170.308C75.6006 163.528 68.1039 210.255 67.1379 217.226L80.8231 210.662C74.4178 207.034 78.1295 158.88 31.9719 167.387C27.7346 167.218 24.6011 165.54 18.3608 168.112L18.3617 168.113Z" fill="black"/>
<path fill-rule="evenodd" clip-rule="evenodd" d="M55.0547 213.21C55.0547 213.21 37.7735 221.666 34.1944 226.655C31.7796 230.022 33.1128 234.751 35.7306 239.027L87.2916 214.093C85.5653 209.386 82.6861 205.404 78.5478 205.207C72.4154 204.914 55.0553 213.21 55.0553 213.21L55.0547 213.21Z" fill="#5F5955" stroke="#1E1E1E" stroke-width="1.2" stroke-linejoin="round"/>
<path opacity="0.25" fill-rule="evenodd" clip-rule="evenodd" d="M55.6155 214.37C55.6155 214.37 38.9781 222.13 34.9202 227.832C34.4049 228.556 34.2761 229.884 34.2413 231.043C34.4667 230.247 34.6956 229.552 35.2331 228.803C38.8118 223.814 56.0936 215.358 56.0936 215.358C56.0936 215.358 73.4545 207.062 79.5879 207.354C80.5247 207.399 81.1437 207.704 81.9181 208.032C81.9057 207.88 80.2024 206.46 78.4511 206.398C72.0117 206.418 55.6173 214.369 55.6173 214.369L55.6155 214.37Z" fill="white"/>
</g>
<g clip-path="url(#clip1_232_3)">
<path fill-rule="evenodd" clip-rule="evenodd" d="M114.036 146.599C122.662 140.694 131.676 136.715 140.851 133.632L114.036 146.599ZM97.0624 129.642C103.095 147.244 108.949 148.883 114.035 146.6L124.403 184.086L163.796 165.037L140.85 133.633C145.798 131.065 148.148 125.458 138.097 109.799L130.769 112.104L132.075 119.998L126.024 122.691L121.59 116.05L112.21 120.585L114.665 128.184L108.796 131.255L103.419 125.33L97.0624 129.642Z" fill="#5F5955" stroke="#1E1E1E" stroke-width="1.2"/>
<path opacity="0.18" fill-rule="evenodd" clip-rule="evenodd" d="M114.036 146.599C126.988 140.336 139.293 135.339 157.592 164.322L162.344 162.927L141.336 134.637C140.994 134.083 128.116 136.765 114.036 146.6L114.036 146.599Z" fill="black"/>
<path opacity="0.25" fill-rule="evenodd" clip-rule="evenodd" d="M98.6996 130.154L102.756 127.523C99.4118 129.871 103.226 139.69 103.226 139.69C102.613 139.574 98.3719 130.562 98.6996 130.154L98.6996 130.154Z" fill="white"/>
<path opacity="0.25" fill-rule="evenodd" clip-rule="evenodd" d="M118.002 119.256C114.877 120.767 115.744 126.778 115.744 126.778L113.881 121.293L118.002 119.256Z" fill="white"/>
<path opacity="0.25" fill-rule="evenodd" clip-rule="evenodd" d="M132.273 112.976L134.153 112.344C133.123 114.011 132.96 117.574 132.96 117.574L132.273 112.976Z" fill="white"/>
<path opacity="0.25" fill-rule="evenodd" clip-rule="evenodd" d="M115.565 147.147L120.267 144.187C115.565 147.147 122.954 173.438 122.988 173.561L115.565 147.147Z" fill="white"/>
<path opacity="0.18" fill-rule="evenodd" clip-rule="evenodd" d="M134.435 110.952C140.949 122.695 140.462 132.853 128.846 138.314L138.426 134.999C152.979 128.685 138.189 109.822 138.099 109.798L134.435 110.952Z" fill="black"/>
<path fill-rule="evenodd" clip-rule="evenodd" d="M142.16 170.547C142.16 170.547 124.884 179.014 121.469 184.342C119.165 187.938 120.769 193.227 123.665 198.08L175.227 173.147C173.221 167.862 170.071 163.321 165.822 162.894C159.525 162.262 142.16 170.547 142.16 170.547L142.16 170.547Z" fill="#5F5955" stroke="#1E1E1E" stroke-width="1.2" stroke-linejoin="round"/>
<path opacity="0.25" fill-rule="evenodd" clip-rule="evenodd" d="M142.792 171.854C142.792 171.854 126.14 179.585 122.27 185.676C121.779 186.45 121.714 187.91 121.737 189.188C121.927 188.321 122.127 187.565 122.64 186.764C126.054 181.436 143.331 172.969 143.331 172.969C143.331 172.969 160.697 164.684 166.994 165.315C167.956 165.412 168.606 165.78 169.416 166.181C169.395 166.013 167.579 164.359 165.782 164.202C159.186 163.9 142.793 171.853 142.793 171.853L142.792 171.854Z" fill="white"/>
</g>
<path fill-rule="evenodd" clip-rule="evenodd" d="M143.712 647.871C139.718 649.802 137.287 653.035 138.282 655.092L143.59 658.728C126.071 700.175 157.655 715.435 157.655 715.435L188.017 700.753C188.017 700.753 193.435 677.838 171.566 663.046L170.325 674.945C170.046 677.615 167.968 679.571 165.664 679.331C163.36 679.091 161.729 676.747 162.008 674.077L163.622 658.605C160.288 657.07 156.536 655.689 152.301 654.516L152.746 648.098C151.751 646.04 147.708 645.939 143.714 647.87L143.712 647.871Z" fill="#F0F0F0" stroke="#3C3C3C" stroke-width="1.2" stroke-linejoin="round"/>
<path opacity="0.15" fill-rule="evenodd" clip-rule="evenodd" d="M143.712 647.871C142.164 648.62 140.855 649.565 139.885 650.561C148.892 648.188 150.351 648.12 148.731 656.465L158.16 660.253C158.783 679.238 162.449 676.884 162.449 676.884C162.449 676.884 161.341 671.221 163.122 658.376C159.915 656.932 156.323 655.63 152.3 654.516L152.745 648.098C151.75 646.041 147.707 645.94 143.712 647.871L143.712 647.871ZM171.565 663.045L171.039 666.84C185.843 679.371 179.704 704.771 179.704 704.771L188.015 700.751C188.346 700.671 193.101 677.593 171.565 663.044L171.565 663.045Z" fill="black"/>
<path fill-rule="evenodd" clip-rule="evenodd" d="M148.824 706.144C148.38 706.285 133.354 690.721 142.539 665.297C139.911 671.003 141.079 696.811 148.824 706.144Z" fill="white"/>
<path fill-rule="evenodd" clip-rule="evenodd" d="M144.537 657.839L139.355 654.273C139.355 654.273 139.153 652.681 141.772 650.653C139.736 654.798 141.423 654.712 144.537 657.839Z" fill="white"/>
<path fill-rule="evenodd" clip-rule="evenodd" d="M171.864 706.086C171.864 706.086 154.588 714.553 151.173 719.882C148.869 723.477 150.473 728.766 153.37 733.62L204.931 708.686C202.925 703.402 199.775 698.86 195.526 698.434C189.229 697.801 171.864 706.086 171.864 706.086L171.864 706.086Z" fill="#F0F0F0" stroke="#3C3C3C" stroke-width="1.2" stroke-linejoin="round"/>
<path fill-rule="evenodd" clip-rule="evenodd" d="M172.497 707.395C172.497 707.395 155.845 715.126 151.976 721.218C151.484 721.991 151.419 723.451 151.442 724.729C151.633 723.862 151.832 723.106 152.345 722.305C155.76 716.977 173.036 708.51 173.036 708.51C173.036 708.51 190.402 700.225 196.7 700.857C197.662 700.953 198.311 701.322 199.121 701.722C199.101 701.554 197.284 699.901 195.487 699.744C188.892 699.441 172.499 707.395 172.499 707.395L172.497 707.395Z" fill="white"/>
<g clip-path="url(#clip2_232_3)">
<path fill-rule="evenodd" clip-rule="evenodd" d="M65.4524 702.363L62.2019 695.641L70.6232 691.569L66.5603 683.167L57.2003 687.693L53.629 680.308L45.3473 684.313L48.9186 691.698L39.5586 696.225L43.6215 704.626L52.0429 700.554L55.2934 707.276" fill="#F0F0F0"/>
<path d="M65.4524 702.363L62.2019 695.641L70.6232 691.569L66.5603 683.167L57.2003 687.693L53.629 680.308L45.3473 684.313L48.9186 691.698L39.5586 696.225L43.6215 704.626L52.0429 700.554L55.2934 707.276" stroke="#3C3C3C" stroke-width="1.2" stroke-linecap="round"/>
<path d="M65.7279 699.866L53.1876 705.93C51.7276 706.636 51.1163 708.392 51.8223 709.852C52.5284 711.312 54.2843 711.923 55.7444 711.217L68.2847 705.153C69.7447 704.447 70.356 702.691 69.65 701.231C68.9439 699.771 67.188 699.16 65.7279 699.866Z" fill="#F0F0F0" stroke="#3C3C3C" stroke-width="1.2" stroke-linejoin="round"/>
<path opacity="0.15" fill-rule="evenodd" clip-rule="evenodd" d="M62.1475 701.598C63.5223 700.933 65.199 701.576 65.9072 703.041C66.6154 704.505 66.0789 706.219 64.7039 706.884L68.4476 705.074C69.8225 704.409 70.3589 702.695 69.6507 701.231C68.9425 699.766 67.2659 699.122 65.8911 699.787L62.1475 701.598Z" fill="black"/>
<path fill-rule="evenodd" clip-rule="evenodd" d="M53.6457 707.176C52.8838 707.545 52.5867 708.495 52.9792 709.307C53.3717 710.118 54.3009 710.475 55.0628 710.107L56.7203 709.305C55.9583 709.673 55.0292 709.317 54.6367 708.505C54.2442 707.693 54.5412 706.743 55.3032 706.375L53.6457 707.176Z" fill="white"/>
<path fill-rule="evenodd" clip-rule="evenodd" d="M96.7283 738.17C96.7283 738.17 99.262 705.774 94.6723 701.913C90.0842 698.055 74.4609 701.161 61.6232 707.369C48.7857 713.577 36.6508 723.893 36.825 729.887C37.0004 735.879 63.9681 754.012 63.9681 754.012L96.7283 738.17Z" fill="#F0F0F0" stroke="#3C3C3C" stroke-width="1.2" stroke-linecap="round"/>
<path opacity="0.15" fill-rule="evenodd" clip-rule="evenodd" d="M61.6193 707.379C94.2566 697.732 94.049 713.589 94.8942 744.049L97.1539 738.91C97.1539 738.91 99.2615 705.772 94.6726 701.913C89.1425 697.956 76.6257 700.906 61.6187 707.378L61.6193 707.379Z" fill="black"/>
<path fill-rule="evenodd" clip-rule="evenodd" d="M59.9437 709.872C52.3691 713.103 33.8618 726.7 38.9318 731.774C43.9012 738.095 50.8015 742.988 57.1191 747.563C36.851 733.176 33.2129 726.886 59.943 709.871L59.9437 709.872Z" fill="white"/>
<path fill-rule="evenodd" clip-rule="evenodd" d="M47.0364 684.99L50.0441 691.288L51.0792 690.787L48.0716 684.489L47.0364 684.99ZM41.2325 696.854L44.1607 702.946L45.6273 702.236L42.6991 696.145L41.2325 696.854ZM52.5503 698.901L54.8794 703.593L55.8658 703.116L53.5367 698.424L52.5503 698.901Z" fill="white"/>
<path opacity="0.15" fill-rule="evenodd" clip-rule="evenodd" d="M51.7578 681.212L55.3293 688.597L57.2011 687.692L53.6297 680.307L51.7578 681.212ZM63.7535 684.524L68.2898 693.905L71.0976 692.547L66.5613 683.166L63.7535 684.524ZM59.3949 696.998L61.6811 701.725L64.4889 700.368L62.2027 695.64L59.3949 696.998Z" fill="black"/>
<path fill-rule="evenodd" clip-rule="evenodd" d="M79.8638 745.087C79.8638 745.087 62.5877 753.554 59.1726 758.882C56.8686 762.478 58.4725 767.767 61.3696 772.62L112.931 747.687C110.925 742.402 107.775 737.86 103.526 737.434C97.2295 736.802 79.8643 745.087 79.8643 745.087L79.8638 745.087Z" fill="#F0F0F0" stroke="#3C3C3C" stroke-width="1.2" stroke-linejoin="round"/>
<path fill-rule="evenodd" clip-rule="evenodd" d="M80.4966 746.396C80.4966 746.396 63.8448 754.127 59.9753 760.218C59.4838 760.992 59.4189 762.452 59.4417 763.73C59.6324 762.862 59.8318 762.106 60.3447 761.306C63.7592 755.978 81.036 747.511 81.036 747.511C81.036 747.511 98.4018 739.225 104.699 739.857C105.661 739.954 106.311 740.322 107.121 740.723C107.1 740.555 105.284 738.901 103.487 738.744C96.8915 738.442 80.4983 746.395 80.4983 746.395L80.4966 746.396Z" fill="white"/>
</g>
<g clip-path="url(#clip3_232_3)">
<path fill-rule="evenodd" clip-rule="evenodd" d="M246.898 638.413C252.975 651.78 229.381 659.098 241.66 683.317L285.131 662.573C275.25 652.274 280.433 605.958 232.909 612.327L232.909 612.327C232.909 612.327 225.899 609.63 219.003 612.443L222.668 618.943L218.224 631.815C216.122 640.194 209.341 655.721 212.337 657.157C223.113 664.36 228.41 659.756 228.41 659.756C232.289 647.247 237.532 650.455 246.898 638.412L246.898 638.413Z" fill="#F0F0F0" stroke="#3C3C3C" stroke-width="1.2" stroke-linejoin="round"/>
<path opacity="0.35" fill-rule="evenodd" clip-rule="evenodd" d="M228.127 628.015C227.445 630.36 227.841 630.764 228.556 632.84C230.197 632.335 231.634 631.913 232.881 630.902C236.24 626.324 229.902 624.379 228.127 628.014L228.127 628.015Z" fill="black"/>
<path opacity="0.3" fill-rule="evenodd" clip-rule="evenodd" d="M215.768 651.479C214.531 653.032 214.756 654.218 215.118 655.247C216.884 655.372 218.562 653.288 217.676 650.659L215.768 651.479L215.768 651.479Z" fill="black"/>
<path fill-rule="evenodd" clip-rule="evenodd" d="M216.606 658.058C216.606 658.058 218.887 659.617 213.01 655.956C212.447 651.6 220.356 631.153 224.189 618.874L221.01 613.189C221.01 613.189 224.588 615.415 226.558 618.623C222.258 630.977 213.315 650.381 214.352 655.45C215.014 656.707 215.75 657.179 216.604 658.058L216.606 658.058Z" fill="white"/>
<path opacity="0.15" fill-rule="evenodd" clip-rule="evenodd" d="M229.073 659.301C229.861 651.111 242.033 645.489 246.898 638.412C247.604 638.31 248.401 640.891 248.481 640.525C249.088 637.68 251.023 631.621 243.822 626.689C250.276 637.511 222.93 649.878 223.134 660.812C223.153 661.822 228 660.315 229.073 659.301L229.073 659.301Z" fill="black"/>
<path fill-rule="evenodd" clip-rule="evenodd" d="M248.754 639.308C252.164 651.264 236.259 659.667 239.506 673.366C239.004 658.616 254.679 652.656 248.754 639.308Z" fill="white"/>
<path opacity="0.15" fill-rule="evenodd" clip-rule="evenodd" d="M219.005 612.443C219.005 612.443 225.469 611.044 231.961 615.498C277.407 610.264 272.082 661.482 271.444 669.13L285.132 662.572C278.387 658.243 279.764 605.259 232.91 612.327C228.561 611.928 225.267 609.916 219.004 612.442L219.005 612.443Z" fill="black"/>
<path fill-rule="evenodd" clip-rule="evenodd" d="M258.864 664.087C258.864 664.087 241.588 672.554 238.173 677.882C235.869 681.478 237.473 686.767 240.37 691.62L291.931 666.687C289.925 661.402 286.775 656.86 282.526 656.434C276.229 655.802 258.864 664.087 258.864 664.087L258.864 664.087Z" fill="#F0F0F0" stroke="#3C3C3C" stroke-width="1.2" stroke-linejoin="round"/>
<path fill-rule="evenodd" clip-rule="evenodd" d="M259.497 665.396C259.497 665.396 242.845 673.127 238.975 679.218C238.484 679.992 238.419 681.452 238.442 682.73C238.632 681.862 238.832 681.106 239.345 680.306C242.759 674.978 260.036 666.511 260.036 666.511C260.036 666.511 277.402 658.225 283.7 658.857C284.661 658.954 285.311 659.322 286.121 659.723C286.1 659.555 284.284 657.901 282.487 657.744C275.892 657.441 259.498 665.395 259.498 665.395L259.497 665.396Z" fill="white"/>
</g>
<g clip-path="url(#clip4_232_3)">
<path fill-rule="evenodd" clip-rule="evenodd" d="M322.736 595.707C331.362 589.803 340.375 585.824 349.55 582.741L322.736 595.707ZM305.762 578.751C311.795 596.352 317.649 597.992 322.735 595.708L333.103 633.195L372.495 614.145L349.549 582.741C354.498 580.174 356.848 574.566 346.797 558.908L339.469 561.213L340.774 569.107L334.724 571.8L330.29 565.158L320.91 569.694L323.365 577.293L317.496 580.364L312.119 574.439L305.762 578.751Z" fill="#F0F0F0" stroke="#3C3C3C" stroke-width="1.2"/>
<path opacity="0.15" fill-rule="evenodd" clip-rule="evenodd" d="M322.736 595.707C335.688 589.444 347.993 584.448 366.292 613.431L371.044 612.036L350.035 583.746C349.694 583.191 336.815 585.874 322.736 595.709L322.736 595.707Z" fill="black"/>
<path fill-rule="evenodd" clip-rule="evenodd" d="M307.399 579.263L311.455 576.632C308.112 578.979 311.926 588.799 311.926 588.799C311.313 588.682 307.072 579.67 307.399 579.263L307.399 579.263Z" fill="white"/>
<path fill-rule="evenodd" clip-rule="evenodd" d="M326.702 568.364C323.576 569.876 324.444 575.887 324.444 575.887L322.58 570.401L326.702 568.364Z" fill="white"/>
<path fill-rule="evenodd" clip-rule="evenodd" d="M340.973 562.085L342.853 561.452C341.823 563.12 341.66 566.683 341.66 566.683L340.973 562.085Z" fill="white"/>
<path fill-rule="evenodd" clip-rule="evenodd" d="M324.265 596.255L328.967 593.295C324.265 596.255 331.722 622.654 331.722 622.654L324.265 596.255Z" fill="white"/>
<path opacity="0.15" fill-rule="evenodd" clip-rule="evenodd" d="M343.135 560.06C349.649 571.804 349.162 581.961 337.545 587.422L347.125 584.108C361.678 577.794 346.889 558.931 346.798 558.907L343.135 560.06Z" fill="black"/>
<path fill-rule="evenodd" clip-rule="evenodd" d="M350.859 619.656C350.859 619.656 333.583 628.123 330.168 633.451C327.864 637.047 329.468 642.336 332.365 647.189L383.926 622.255C381.921 616.971 378.771 612.429 374.522 612.003C368.225 611.371 350.86 619.655 350.86 619.655L350.859 619.656Z" fill="#F0F0F0" stroke="#3C3C3C" stroke-width="1.2" stroke-linejoin="round"/>
<path fill-rule="evenodd" clip-rule="evenodd" d="M351.491 620.963C351.491 620.963 334.839 628.694 330.97 634.785C330.478 635.559 330.414 637.019 330.436 638.297C330.627 637.429 330.826 636.673 331.339 635.873C334.754 630.545 352.031 622.078 352.031 622.078C352.031 622.078 369.397 613.792 375.694 614.424C376.656 614.521 377.306 614.889 378.115 615.29C378.095 615.122 376.278 613.468 374.481 613.311C367.886 613.008 351.493 620.962 351.493 620.962L351.491 620.963Z" fill="white"/>
</g>
<path fill-rule="evenodd" clip-rule="evenodd" d="M18.4382 873.14L31.7057 866.724L18.4382 873.14ZM4.43852 856.304C6.0268 859.589 8.8968 862.076 12.3748 863.202L7.37666 870.534L11.3117 876.586L19.4795 872.636C21.2373 880.115 20.9784 889.068 17.7817 893.625C14.5849 898.182 10.57 904.361 16.1077 913.601L64.8689 890.021C61.0646 879.943 53.7284 879.253 48.1716 878.929C42.6147 878.606 35.4362 873.249 30.6647 867.227L38.8325 863.277L36.5322 856.435L27.6818 855.8C28.9587 852.375 28.7909 848.581 27.2026 845.296C24.1149 838.91 16.7947 836.493 10.3973 839.586C3.99988 842.68 1.34901 849.919 4.43762 856.305L4.43852 856.304Z" fill="#F0F0F0" stroke="#3C3C3C" stroke-width="1.2" stroke-linejoin="round"/>
<path opacity="0.15" fill-rule="evenodd" clip-rule="evenodd" d="M10.2707 839.509C12.0711 837.565 33.7601 841.972 21.3802 859.35L31.8652 859.195L33.6653 865.639L38.7084 863.2L36.4039 856.36L27.5534 855.725C28.8305 852.3 28.9069 849.029 27.3239 845.742C21.4665 835.899 10.271 839.51 10.271 839.51L10.2707 839.509ZM19.3525 872.56C35.1707 883.479 46.4836 882.83 53.2928 879.469L48.044 878.854C42.7416 877.932 34.613 873.981 30.5367 867.151L19.3525 872.56Z" fill="black"/>
<path fill-rule="evenodd" clip-rule="evenodd" d="M14.4127 862.493L13.4411 868.455L8.95928 870.59L14.4402 862.502L14.4127 862.493Z" fill="white"/>
<path fill-rule="evenodd" clip-rule="evenodd" d="M9.69784 841.495C5.00169 844.089 1.73954 852.77 7.72647 858.64L8.69346 859.677C4.86708 853.361 6.1995 844.227 9.69782 841.495L9.69784 841.495Z" fill="white"/>
<path fill-rule="evenodd" clip-rule="evenodd" d="M20.7351 895.507C15.2927 903.534 16.6611 911.848 16.6611 911.848C16.6414 911.857 11.7927 904.43 18.0623 895.597C24.3317 886.763 21.5661 879.507 21.0212 873.353C23.2095 880.961 26.1774 887.479 20.7351 895.507Z" fill="white"/>
<path fill-rule="evenodd" clip-rule="evenodd" d="M107.534 830.055L120.802 823.64L107.534 830.055ZM93.5347 813.219C95.123 816.504 97.993 818.991 101.471 820.117L96.4728 827.449L100.408 833.501L108.576 829.551C110.333 837.031 110.075 845.984 106.878 850.541C103.681 855.098 99.6662 861.276 105.204 870.516L153.965 846.936C150.161 836.858 142.825 836.169 137.268 835.845C131.711 835.521 124.532 830.165 119.761 824.142L127.929 820.193L125.628 813.35L116.778 812.715C118.055 809.29 117.887 805.496 116.299 802.212C113.211 795.825 105.891 793.408 99.4935 796.502C93.0961 799.596 90.4452 806.834 93.5338 813.22L93.5347 813.219Z" fill="#F0F0F0" stroke="#3C3C3C" stroke-width="1.2" stroke-linejoin="round"/>
<path opacity="0.15" fill-rule="evenodd" clip-rule="evenodd" d="M99.3669 796.424C101.167 794.48 122.856 798.887 110.476 816.266L120.961 816.111L122.762 822.554L127.805 820.115L125.5 813.275L116.65 812.64C117.927 809.215 118.003 805.945 116.42 802.657C110.563 792.814 99.3672 796.425 99.3672 796.425L99.3669 796.424ZM108.449 829.475C124.267 840.394 135.58 839.746 142.389 836.384L137.14 835.77C131.838 834.848 123.709 830.897 119.633 824.067L108.449 829.475Z" fill="black"/>
<path fill-rule="evenodd" clip-rule="evenodd" d="M103.509 819.408L102.537 825.37L98.0555 827.505L103.536 819.417L103.509 819.408Z" fill="white"/>
<path fill-rule="evenodd" clip-rule="evenodd" d="M98.794 798.41C94.0979 801.004 90.8357 809.685 96.8227 815.555L97.7896 816.593C93.9633 810.276 95.2957 801.142 98.794 798.41L98.794 798.41Z" fill="white"/>
<path fill-rule="evenodd" clip-rule="evenodd" d="M109.831 852.422C104.389 860.449 105.757 868.763 105.757 868.763C105.738 868.773 100.889 861.346 107.158 852.512C113.428 843.678 110.662 836.422 110.117 830.268C112.306 837.877 115.274 844.395 109.831 852.422Z" fill="white"/>
<path fill-rule="evenodd" clip-rule="evenodd" d="M198.067 786.276L211.334 779.86L198.067 786.276ZM184.067 769.44C185.655 772.724 188.525 775.212 192.003 776.338L187.005 783.669L190.94 789.721L199.108 785.771C200.866 793.251 200.607 802.204 197.41 806.761C194.213 811.318 190.198 817.496 195.736 826.736L244.497 803.157C240.693 793.078 233.357 792.389 227.8 792.065C222.243 791.741 215.065 786.385 210.293 780.363L218.461 776.413L216.161 769.57L207.31 768.936C208.587 765.51 208.419 761.716 206.831 758.432C203.743 752.045 196.423 749.628 190.026 752.722C183.628 755.816 180.977 763.054 184.066 769.44L184.067 769.44Z" fill="#F0F0F0" stroke="#3C3C3C" stroke-width="1.2" stroke-linejoin="round"/>
<path opacity="0.15" fill-rule="evenodd" clip-rule="evenodd" d="M189.899 752.645C191.7 750.701 213.389 755.108 201.009 772.486L211.494 772.331L213.294 778.774L218.337 776.335L216.032 769.495L207.182 768.861C208.459 765.435 208.535 762.165 206.952 758.878C201.095 749.034 189.899 752.646 189.899 752.646L189.899 752.645ZM198.981 785.696C214.799 796.615 226.112 795.966 232.921 792.605L227.672 791.99C222.37 791.068 214.241 787.117 210.165 780.287L198.981 785.696Z" fill="black"/>
<path fill-rule="evenodd" clip-rule="evenodd" d="M194.041 775.628L193.07 781.59L188.588 783.725L194.069 775.637L194.041 775.628Z" fill="white"/>
<path fill-rule="evenodd" clip-rule="evenodd" d="M189.326 754.63C184.63 757.224 181.368 765.906 187.355 771.775L188.322 772.813C184.495 766.497 185.828 757.362 189.326 754.63L189.326 754.63Z" fill="white"/>
<path fill-rule="evenodd" clip-rule="evenodd" d="M200.363 808.642C194.921 816.669 196.289 824.983 196.289 824.983C196.27 824.993 191.421 817.566 197.691 808.732C203.96 799.899 201.195 792.642 200.65 786.488C202.838 794.097 205.806 800.615 200.363 808.642Z" fill="white"/>
<path fill-rule="evenodd" clip-rule="evenodd" d="M287.163 743.191L300.431 736.775L287.163 743.191ZM273.164 726.355C274.752 729.639 277.622 732.127 281.1 733.253L276.102 740.584L280.037 746.636L288.205 742.687C289.962 750.166 289.704 759.119 286.507 763.676C283.31 768.233 279.295 774.411 284.833 783.652L333.594 760.072C329.79 749.993 322.453 749.304 316.897 748.98C311.34 748.656 304.161 743.3 299.39 737.278L307.558 733.328L305.257 726.486L296.407 725.851C297.684 722.426 297.516 718.631 295.928 715.347C292.84 708.96 285.52 706.544 279.122 709.637C272.725 712.731 270.074 719.969 273.163 726.355L273.164 726.355Z" fill="#F0F0F0" stroke="#3C3C3C" stroke-width="1.2" stroke-linejoin="round"/>
<path opacity="0.15" fill-rule="evenodd" clip-rule="evenodd" d="M278.996 709.56C280.796 707.616 302.485 712.023 290.105 729.401L300.59 729.246L302.39 735.689L307.433 733.251L305.129 726.41L296.278 725.776C297.556 722.35 297.632 719.08 296.049 715.793C290.192 705.95 278.996 709.561 278.996 709.561L278.996 709.56ZM288.078 742.611C303.896 753.53 315.209 752.881 322.018 749.52L316.769 748.905C311.467 747.983 303.338 744.032 299.262 737.202L288.078 742.611Z" fill="black"/>
<path fill-rule="evenodd" clip-rule="evenodd" d="M283.138 732.543L282.166 738.505L277.684 740.641L283.165 732.552L283.138 732.543Z" fill="white"/>
<path fill-rule="evenodd" clip-rule="evenodd" d="M278.423 711.545C273.727 714.139 270.465 722.821 276.452 728.691L277.419 729.728C273.592 723.412 274.925 714.277 278.423 711.545L278.423 711.545Z" fill="white"/>
<path fill-rule="evenodd" clip-rule="evenodd" d="M289.46 765.557C284.018 773.585 285.386 781.898 285.386 781.898C285.366 781.908 280.518 774.481 286.787 765.647C293.057 756.814 290.291 749.558 289.746 743.403C291.935 751.012 294.902 757.53 289.46 765.557Z" fill="white"/>
<path fill-rule="evenodd" clip-rule="evenodd" d="M381.312 695.889L394.579 689.473L381.312 695.889ZM367.312 679.053C368.9 682.338 371.77 684.825 375.248 685.951L370.25 693.283L374.185 699.335L382.353 695.385C384.111 702.865 383.852 711.818 380.655 716.375C377.458 720.931 373.444 727.11 378.981 736.35L427.742 712.77C423.938 702.692 416.602 702.003 411.045 701.679C405.488 701.355 398.31 695.999 393.538 689.976L401.706 686.026L399.406 679.184L390.555 678.549C391.832 675.124 391.664 671.33 390.076 668.045C386.988 661.659 379.668 659.242 373.271 662.336C366.873 665.429 364.223 672.668 367.311 679.054L367.312 679.053Z" fill="#F0F0F0" stroke="#3C3C3C" stroke-width="1.2" stroke-linejoin="round"/>
<path opacity="0.15" fill-rule="evenodd" clip-rule="evenodd" d="M373.144 662.258C374.945 660.314 396.634 664.721 384.254 682.1L394.739 681.944L396.539 688.388L401.582 685.949L399.277 679.109L390.427 678.474C391.704 675.049 391.78 671.778 390.197 668.491C384.34 658.648 373.145 662.259 373.145 662.259L373.144 662.258ZM382.226 695.309C398.044 706.228 409.357 705.58 416.166 702.218L410.918 701.604C405.615 700.682 397.487 696.731 393.41 689.901L382.226 695.309Z" fill="black"/>
<path fill-rule="evenodd" clip-rule="evenodd" d="M377.286 685.242L376.315 691.204L371.833 693.339L377.314 685.251L377.286 685.242Z" fill="white"/>
<path fill-rule="evenodd" clip-rule="evenodd" d="M372.571 664.244C367.875 666.838 364.613 675.519 370.6 681.389L371.567 682.427C367.741 676.11 369.073 666.976 372.571 664.244L372.571 664.244Z" fill="white"/>
<path fill-rule="evenodd" clip-rule="evenodd" d="M383.609 718.256C378.166 726.283 379.535 734.597 379.535 734.597C379.515 734.606 374.666 727.179 380.936 718.346C387.205 709.512 384.44 702.256 383.895 696.102C386.083 703.711 389.051 710.229 383.609 718.256Z" fill="white"/>
<g clip-path="url(#clip5_232_3)">
<path opacity="0.15" fill-rule="evenodd" clip-rule="evenodd" d="M-38.2962 729.58C-38.2962 729.58 -37.9911 729.989 -38.2964 729.58C-32.5568 729.447 -30.8793 734.998 -31.6578 739.352C-14.2199 739.822 -19.509 753.767 -19.5104 753.765L-14.3873 751.288C-9.86462 752.113 -3.22763 739.476 -29.614 738.362C-25.7803 729.216 -34.5745 727.637 -38.2968 729.579L-38.2962 729.58Z" fill="black"/>
<path fill-rule="evenodd" clip-rule="evenodd" d="M-28.6123 748.812C-32.3511 750.62 -30.6365 755.992 -33.8362 758.03C-37.095 760.106 -42.3709 756.748 -45.3883 759.553C-47.8012 761.797 -44.4798 765.199 -45.9002 767.232C-47.8391 770.007 -53.6216 766.678 -56.2087 771.519C-35.1379 781.993 -29.5174 787.58 -23.8028 799.894L8.44027 784.301C2.33577 772.175 1.44717 764.301 6.32081 741.281C0.919525 740.303 -0.0613222 746.903 -3.44028 746.699C-5.91625 746.55 -6.5205 741.834 -9.7773 742.332C-13.8499 742.956 -14.4937 749.177 -18.1446 750.442C-21.7294 751.684 -24.875 747.005 -28.6137 748.813L-28.6123 748.812Z" fill="#F0F0F0" stroke="#3C3C3C" stroke-width="1.1999" stroke-linecap="round" stroke-linejoin="round"/>
<path opacity="0.15" fill-rule="evenodd" clip-rule="evenodd" d="M3.01153 741.735C-5.80513 769.41 0.684506 784.953 -11.4107 793.903L8.46104 784.294C2.35645 772.167 1.46784 764.293 6.34157 741.274C6.34157 741.274 4.34316 740.471 3.01169 741.734L3.01153 741.735Z" fill="black"/>
<path fill-rule="evenodd" clip-rule="evenodd" d="M-9.13662 789.087C-9.13662 789.087 -26.4128 797.554 -29.8278 802.882C-32.1318 806.478 -30.5278 811.767 -27.6308 816.62L23.9301 791.686C21.9244 786.402 18.7746 781.86 14.5256 781.434C8.22878 780.802 -9.13614 789.086 -9.13614 789.086L-9.13662 789.087Z" fill="#F0F0F0" stroke="#3C3C3C" stroke-width="1.2" stroke-linejoin="round"/>
<path fill-rule="evenodd" clip-rule="evenodd" d="M-8.50335 790.396C-8.50335 790.396 -25.1552 798.127 -29.0247 804.218C-29.5163 804.992 -29.5812 806.452 -29.5583 807.73C-29.3675 806.862 -29.1682 806.107 -28.6553 805.306C-25.241 799.978 -7.96417 791.511 -7.96417 791.511C-7.96417 791.511 9.4018 783.225 15.6994 783.857C16.6615 783.954 17.311 784.322 18.1205 784.723C18.1001 784.555 16.2839 782.901 14.4866 782.744C7.89136 782.441 -8.50184 790.395 -8.50184 790.395L-8.50335 790.396Z" fill="white"/>
</g>
<path fill-rule="evenodd" clip-rule="evenodd" d="M-8.8997 104.482L4.36784 98.0666L-8.8997 104.482ZM-22.8994 87.6465C-21.3111 90.931 -18.4411 93.4184 -14.9631 94.5444L-19.9612 101.876L-16.0262 107.928L-7.85838 103.978C-6.1006 111.458 -6.35945 120.411 -9.55623 124.968C-12.753 129.525 -16.7679 135.703 -11.2302 144.943L37.5311 121.363C33.7267 111.285 26.3905 110.596 20.8337 110.272C15.2768 109.948 8.0983 104.592 3.32679 98.5694L11.4946 94.6196L9.19427 87.7772L0.343867 87.1424C1.62085 83.7172 1.45296 79.9231 -0.135324 76.6386C-3.22297 70.2521 -10.5432 67.8353 -16.9406 70.9289C-23.338 74.0225 -25.9889 81.2609 -22.9003 87.647L-22.8994 87.6465Z" fill="#5F5955" stroke="#1E1E1E" stroke-width="1.2" stroke-linejoin="round"/>
<path opacity="0.18" fill-rule="evenodd" clip-rule="evenodd" d="M-17.0672 70.8514C-15.2668 68.9074 6.42221 73.3145 -5.95768 90.6929L4.52736 90.5375L6.32744 96.981L11.3705 94.5423L9.06605 87.7021L0.215462 87.0673C1.49263 83.6421 1.56906 80.3716 -0.0140075 77.0844C-5.87136 67.2411 -17.0669 70.8524 -17.0669 70.8524L-17.0672 70.8514ZM-7.98535 103.902C7.83286 114.822 19.1457 114.173 25.9549 110.811L20.7061 110.197C15.4038 109.275 7.27515 105.324 3.19876 98.4937L-7.98535 103.902Z" fill="black"/>
<path opacity="0.25" fill-rule="evenodd" clip-rule="evenodd" d="M-6.60281 126.849C-12.0452 134.876 -10.6768 143.19 -10.6768 143.19C-10.6965 143.2 -15.5452 135.773 -9.27564 126.939C-3.00614 118.105 -5.77179 110.849 -6.3167 104.695C-4.12836 112.304 -1.16051 118.822 -6.60281 126.849Z" fill="white"/>
<path fill-rule="evenodd" clip-rule="evenodd" d="M82.1003 64.4825L95.3678 58.0666L82.1003 64.4825ZM68.1006 47.6465C69.6889 50.931 72.5589 53.4184 76.0369 54.5444L71.0388 61.8761L74.9738 67.928L83.1416 63.9782C84.8994 71.4579 84.6405 80.4108 81.4438 84.9677C78.247 89.5246 74.2321 95.7031 79.7698 104.943L128.531 81.3635C124.727 71.2851 117.39 70.5957 111.834 70.2719C106.277 69.9481 99.0983 64.5917 94.3268 58.5694L102.495 54.6196L100.194 47.7772L91.3439 47.1424C92.6209 43.7172 92.453 39.9231 90.8647 36.6386C87.777 30.2521 80.4568 27.8353 74.0594 30.9289C67.662 34.0225 65.0111 41.2609 68.0997 47.647L68.1006 47.6465Z" fill="#5F5955" stroke="#1E1E1E" stroke-width="1.2" stroke-linejoin="round"/>
<path opacity="0.18" fill-rule="evenodd" clip-rule="evenodd" d="M73.9328 30.8514C75.7332 28.9074 97.4222 33.3145 85.0423 50.6929L95.5274 50.5375L97.3274 56.981L102.37 54.5423L100.066 47.7021L91.2155 47.0673C92.4926 43.6421 92.5691 40.3716 90.986 37.0844C85.1286 27.2411 73.9331 30.8524 73.9331 30.8524L73.9328 30.8514ZM83.0147 63.9023C98.8329 74.8215 110.146 74.1729 116.955 70.8114L111.706 70.197C106.404 69.2749 98.2751 65.3238 94.1988 58.4937L83.0147 63.9023Z" fill="black"/>
<path opacity="0.25" fill-rule="evenodd" clip-rule="evenodd" d="M78.0749 53.8351L77.1032 59.7971L72.6214 61.9323L78.1023 53.844L78.0749 53.8351Z" fill="white"/>
<path opacity="0.25" fill-rule="evenodd" clip-rule="evenodd" d="M73.3599 32.8369C68.6638 35.4311 65.4016 44.1124 71.3886 49.9823L72.3556 51.0199C68.5292 44.7034 69.8616 35.569 73.3599 32.837L73.3599 32.8369Z" fill="white"/>
<path opacity="0.25" fill-rule="evenodd" clip-rule="evenodd" d="M84.3972 86.849C78.9548 94.8763 80.3232 103.19 80.3232 103.19C80.3035 103.2 75.4548 95.7726 81.7244 86.939C87.9939 78.1055 85.2282 70.8492 84.6833 64.6951C86.8716 72.3039 89.8395 78.8218 84.3972 86.849Z" fill="white"/>
<defs>
<clipPath id="clip0_232_3">
<rect width="105.352" height="93.3515" fill="white" transform="translate(-22 174.864) rotate(-25.8074)"/>
</clipPath>
<clipPath id="clip1_232_3">
<rect width="105.352" height="105.352" fill="white" transform="translate(61.2959 124.325) rotate(-25.8074)"/>
</clipPath>
<clipPath id="clip2_232_3">
<rect width="105.352" height="105.352" fill="white" transform="translate(-1 698.865) rotate(-25.8074)"/>
</clipPath>
<clipPath id="clip3_232_3">
<rect width="105.352" height="105.352" fill="white" transform="translate(178 617.865) rotate(-25.8074)"/>
</clipPath>
<clipPath id="clip4_232_3">
<rect width="105.352" height="105.352" fill="white" transform="translate(269.996 573.433) rotate(-25.8074)"/>
</clipPath>
<clipPath id="clip5_232_3">
<rect width="105.352" height="105.352" fill="white" transform="translate(-90 742.865) rotate(-25.8074)"/>
</clipPath>
</defs>
</svg>
