<svg width="552" height="554" viewBox="0 0 552 554" fill="none" xmlns="http://www.w3.org/2000/svg">
<rect width="552" height="553.356" fill="url(#paint0_linear_230_2)"/>
<rect x="27.2634" y="89.4382" width="62.849" height="62.849" fill="white"/>
<rect x="89.5383" y="26.5891" width="62.849" height="62.849" fill="white"/>
<rect x="27.2634" y="215.136" width="62.849" height="62.849" fill="white"/>
<rect x="27.2634" y="340.834" width="62.849" height="62.849" fill="white"/>
<rect x="27.2634" y="340.834" width="62.849" height="62.849" fill="white"/>
<rect x="28.6985" y="467.393" width="62.849" height="62.849" fill="white"/>
<rect x="90.1125" y="152.287" width="62.849" height="62.849" fill="white"/>
<rect x="90.1125" y="277.985" width="62.849" height="62.849" fill="white"/>
<rect x="90.1125" y="403.683" width="62.849" height="62.849" fill="white"/>
<rect x="152.961" y="89.4382" width="62.849" height="62.849" fill="white"/>
<rect x="215.237" y="26.5891" width="62.849" height="62.849" fill="white"/>
<rect x="152.961" y="215.136" width="62.849" height="62.849" fill="white"/>
<rect x="152.961" y="340.834" width="62.849" height="62.849" fill="white"/>
<rect x="152.961" y="340.834" width="62.849" height="62.849" fill="white"/>
<rect x="154.396" y="467.393" width="62.849" height="62.849" fill="white"/>
<rect x="215.811" y="152.287" width="62.849" height="62.849" fill="white"/>
<rect x="215.811" y="277.985" width="62.849" height="62.849" fill="white"/>
<rect x="215.811" y="403.683" width="62.849" height="62.849" fill="white"/>
<rect x="278.659" y="89.4382" width="62.849" height="62.849" fill="white"/>
<rect x="340.935" y="26.5891" width="62.849" height="62.849" fill="white"/>
<rect x="467.206" y="27.7371" width="62.849" height="62.849" fill="white"/>
<rect x="278.659" y="215.136" width="62.849" height="62.849" fill="white"/>
<rect x="278.659" y="340.834" width="62.849" height="62.849" fill="white"/>
<rect x="278.659" y="340.834" width="62.849" height="62.849" fill="white"/>
<rect x="280.094" y="467.393" width="62.849" height="62.849" fill="white"/>
<rect x="341.508" y="152.287" width="62.849" height="62.849" fill="white"/>
<rect x="467.78" y="153.435" width="62.849" height="62.849" fill="white"/>
<rect x="404.07" y="89.7251" width="62.849" height="62.849" fill="white"/>
<rect x="341.508" y="277.985" width="62.849" height="62.849" fill="white"/>
<rect x="467.78" y="279.133" width="62.849" height="62.849" fill="white"/>
<rect x="404.07" y="215.423" width="62.849" height="62.849" fill="white"/>
<rect x="341.508" y="403.683" width="62.849" height="62.849" fill="white"/>
<rect x="467.78" y="404.831" width="62.849" height="62.849" fill="white"/>
<rect x="404.07" y="341.121" width="62.849" height="62.849" fill="white"/>
<rect x="404.07" y="341.121" width="62.849" height="62.849" fill="white"/>
<rect x="405.505" y="467.68" width="62.849" height="62.849" fill="white"/>
<rect x="27.2634" y="152.287" width="62.849" height="62.849" fill="url(#paint1_linear_230_2)" style="mix-blend-mode:darken"/>
<rect x="27.2634" y="277.985" width="62.849" height="62.849" fill="url(#paint2_linear_230_2)" style="mix-blend-mode:darken"/>
<rect x="27.2634" y="403.683" width="62.849" height="62.849" fill="url(#paint3_linear_230_2)" style="mix-blend-mode:darken"/>
<rect x="90.1125" y="89.4382" width="62.849" height="62.849" fill="url(#paint4_linear_230_2)" style="mix-blend-mode:darken"/>
<rect x="27.5498" y="26.5891" width="62.849" height="62.849" fill="url(#paint5_linear_230_2)" style="mix-blend-mode:darken"/>
<rect x="90.1125" y="215.136" width="62.849" height="62.849" fill="url(#paint6_linear_230_2)" style="mix-blend-mode:darken"/>
<rect x="90.1125" y="340.834" width="62.849" height="62.849" fill="url(#paint7_linear_230_2)" style="mix-blend-mode:darken"/>
<rect x="152.961" y="152.287" width="62.849" height="62.849" fill="url(#paint8_linear_230_2)" style="mix-blend-mode:darken"/>
<rect x="152.961" y="277.985" width="62.849" height="62.849" fill="url(#paint9_linear_230_2)" style="mix-blend-mode:darken"/>
<rect x="152.961" y="403.683" width="62.849" height="62.849" fill="url(#paint10_linear_230_2)" style="mix-blend-mode:darken"/>
<rect x="215.811" y="89.4382" width="62.849" height="62.849" fill="url(#paint11_linear_230_2)" style="mix-blend-mode:darken"/>
<rect x="153.248" y="26.5891" width="62.849" height="62.849" fill="url(#paint12_linear_230_2)" style="mix-blend-mode:darken"/>
<rect x="215.811" y="215.136" width="62.849" height="62.849" fill="url(#paint13_linear_230_2)" style="mix-blend-mode:darken"/>
<rect x="215.811" y="340.834" width="62.849" height="62.849" fill="url(#paint14_linear_230_2)" style="mix-blend-mode:darken"/>
<rect x="278.659" y="152.287" width="62.849" height="62.849" fill="url(#paint15_linear_230_2)" style="mix-blend-mode:darken"/>
<rect x="278.659" y="277.985" width="62.849" height="62.849" fill="url(#paint16_linear_230_2)" style="mix-blend-mode:darken"/>
<rect x="278.659" y="403.683" width="62.849" height="62.849" fill="url(#paint17_linear_230_2)" style="mix-blend-mode:darken"/>
<rect x="341.508" y="89.4382" width="62.849" height="62.849" fill="url(#paint18_linear_230_2)" style="mix-blend-mode:darken"/>
<rect x="468.354" y="89.7251" width="62.849" height="62.849" fill="url(#paint19_linear_230_2)" style="mix-blend-mode:darken"/>
<rect x="404.07" y="26.5891" width="62.849" height="62.849" fill="url(#paint20_linear_230_2)" style="mix-blend-mode:darken"/>
<rect x="404.07" y="404.257" width="62.849" height="62.849" fill="url(#paint21_linear_230_2)" style="mix-blend-mode:darken"/>
<rect x="278.946" y="26.5891" width="62.849" height="62.849" fill="url(#paint22_linear_230_2)" style="mix-blend-mode:darken"/>
<rect x="341.508" y="215.136" width="62.849" height="62.849" fill="url(#paint23_linear_230_2)" style="mix-blend-mode:darken"/>
<rect x="468.354" y="215.423" width="62.849" height="62.849" fill="url(#paint24_linear_230_2)" style="mix-blend-mode:darken"/>
<rect x="404.07" y="152.287" width="62.849" height="62.849" fill="url(#paint25_linear_230_2)" style="mix-blend-mode:darken"/>
<rect x="341.508" y="340.834" width="62.849" height="62.849" fill="url(#paint26_linear_230_2)" style="mix-blend-mode:darken"/>
<rect x="468.354" y="341.121" width="62.849" height="62.849" fill="url(#paint27_linear_230_2)" style="mix-blend-mode:darken"/>
<rect x="404.07" y="277.985" width="62.849" height="62.849" fill="url(#paint28_linear_230_2)" style="mix-blend-mode:darken"/>
<path fill-rule="evenodd" clip-rule="evenodd" d="M437.253 496.38C437.035 505.576 421.733 503.269 422.052 520.277L452.227 520.433C449.463 511.93 465.018 487.222 436.479 477.853V477.853C436.479 477.853 433.26 474.419 428.604 474.125L428.898 478.791L422.881 484.839C419.41 488.991 411.351 495.898 412.649 497.525C416.762 504.527 421.006 503.375 421.006 503.375C426.605 497.378 428.687 500.617 437.254 496.38L437.253 496.38Z" fill="#5F5955" stroke="#1E1E1E" stroke-width="1.2" stroke-linejoin="round"/>
<path opacity="0.4" fill-rule="evenodd" clip-rule="evenodd" d="M429.502 485.396C428.478 486.532 428.591 486.869 428.428 488.234C429.491 488.397 430.417 488.551 431.396 488.321C434.539 486.655 431.495 483.83 429.503 485.396L429.502 485.396Z" fill="black"/>
<path opacity="0.35" fill-rule="evenodd" clip-rule="evenodd" d="M416.133 495.259C415.011 495.797 414.815 496.527 414.738 497.207C415.7 497.759 417.215 497.041 417.433 495.317L416.133 495.259L416.133 495.259Z" fill="black"/>
<path opacity="0.25" fill-rule="evenodd" clip-rule="evenodd" d="M414.811 499.198C414.811 499.198 415.673 500.699 413.357 497.032C414.227 494.422 424.264 485.047 429.775 479.167L429.533 475.094C429.533 475.094 430.944 477.325 431.179 479.672C425.385 485.466 415.049 493.971 414.252 497.113C414.282 498.002 414.569 498.469 414.81 499.198H414.811Z" fill="white"/>
<path opacity="0.18" fill-rule="evenodd" clip-rule="evenodd" d="M421.503 503.299C424.181 498.895 432.58 499.044 437.253 496.379C437.679 496.514 437.425 498.187 437.57 498.003C438.689 496.564 441.432 493.675 438.716 488.929C439.404 496.793 420.608 496.309 417.741 502.531C417.477 503.106 420.621 503.578 421.503 503.299L421.503 503.299Z" fill="black"/>
<path opacity="0.25" fill-rule="evenodd" clip-rule="evenodd" d="M438.056 497.391C436.719 505.064 425.457 505.465 423.552 514.077C427.292 505.621 437.758 506.535 438.056 497.391Z" fill="white"/>
<path opacity="0.18" fill-rule="evenodd" clip-rule="evenodd" d="M428.605 474.125C428.605 474.125 432.632 475.1 435.079 479.382C462.138 488.825 445.165 516.259 442.719 520.399L452.228 520.433C449.605 516.152 464.831 486.645 436.479 477.852C434.135 476.441 432.826 474.408 428.604 474.125L428.605 474.125Z" fill="black"/>
<path fill-rule="evenodd" clip-rule="evenodd" d="M437 514.123C437 514.123 424.947 514.187 421.568 516.261C419.288 517.66 418.75 521.08 419.06 524.608H454.94C455.25 521.08 454.713 517.66 452.432 516.261C449.054 514.187 437 514.123 437 514.123H437Z" fill="#5F5955" stroke="#1E1E1E" stroke-width="1.2" stroke-linejoin="round"/>
<path opacity="0.25" fill-rule="evenodd" clip-rule="evenodd" d="M437 515.034C437 515.034 425.5 514.853 421.656 517.233C421.168 517.535 420.733 518.341 420.397 519.068C420.742 518.631 421.06 518.259 421.568 517.947C424.947 515.873 437 515.81 437 515.81C437 515.81 449.054 515.873 452.433 517.947C452.95 518.264 453.215 518.649 453.563 519.096C453.597 518.996 453.024 517.568 452.053 516.989C448.416 515.019 437.001 515.034 437.001 515.034L437 515.034Z" fill="white"/>
<path fill-rule="evenodd" clip-rule="evenodd" d="M312.524 486.097V481.419H318.385V475.573H311.871V470.434H306.108V475.573H299.595V481.419H305.455V486.097" fill="#5F5955"/>
<path d="M312.524 486.097V481.419H318.385V475.573H311.871V470.434H306.108V475.573H299.595V481.419H305.455V486.097" stroke="#1E1E1E" stroke-width="1.2" stroke-linecap="round"/>
<path d="M313.361 484.764H304.634C303.618 484.764 302.795 485.587 302.795 486.603C302.795 487.619 303.618 488.443 304.634 488.443H313.361C314.377 488.443 315.201 487.619 315.201 486.603C315.201 485.587 314.377 484.764 313.361 484.764Z" fill="#5F5955" stroke="#1E1E1E" stroke-width="1.2" stroke-linejoin="round"/>
<path opacity="0.18" fill-rule="evenodd" clip-rule="evenodd" d="M310.869 484.764C311.826 484.764 312.596 485.584 312.596 486.603C312.596 487.622 311.826 488.443 310.869 488.443H313.474C314.431 488.443 315.201 487.622 315.201 486.603C315.201 485.584 314.431 484.764 313.474 484.764H310.869Z" fill="black"/>
<path opacity="0.25" fill-rule="evenodd" clip-rule="evenodd" d="M304.553 485.591C304.023 485.591 303.596 486.046 303.596 486.611C303.596 487.176 304.023 487.631 304.553 487.631H305.706C305.176 487.631 304.749 487.176 304.749 486.611C304.749 486.046 305.176 485.591 305.706 485.591H304.553Z" fill="white"/>
<path fill-rule="evenodd" clip-rule="evenodd" d="M320.398 514.822C320.398 514.822 330.662 497.242 329.127 493.812C327.591 490.385 317.933 487.876 308.999 487.876C300.066 487.876 290.409 490.384 288.872 493.812C287.337 497.24 297.601 514.822 297.601 514.822H320.398Z" fill="#5F5955" stroke="#1E1E1E" stroke-width="1.2" stroke-linecap="round"/>
<path opacity="0.18" fill-rule="evenodd" clip-rule="evenodd" d="M308.995 487.88C330.033 491.341 325.591 500.227 317.76 517.637L320.436 515.355C320.436 515.355 330.663 497.241 329.127 493.813C327.087 490.073 319.223 488.323 308.994 487.88L308.995 487.88Z" fill="black"/>
<path opacity="0.25" fill-rule="evenodd" clip-rule="evenodd" d="M307.37 488.829C302.216 488.586 288.07 491.207 289.546 495.451C290.625 500.372 293.182 505.014 295.497 509.317C287.99 495.675 287.654 491.135 307.37 488.829Z" fill="white"/>
<path opacity="0.25" fill-rule="evenodd" clip-rule="evenodd" d="M306.876 471.276L306.855 475.648H307.575L307.597 471.276H306.876ZM300.367 476.384L300.357 480.618H301.378L301.388 476.384H300.367ZM306.192 480.625L306.226 483.907H306.912L306.878 480.625H306.192Z" fill="white"/>
<path opacity="0.18" fill-rule="evenodd" clip-rule="evenodd" d="M310.569 470.433L310.569 475.572H311.872L311.872 470.433H310.569ZM316.431 475.573V482.1H318.385V475.573H316.431ZM310.571 481.419L310.571 484.709H312.525L312.525 481.419H310.571Z" fill="black"/>
<path fill-rule="evenodd" clip-rule="evenodd" d="M309 514.123C309 514.123 296.947 514.187 293.568 516.261C291.288 517.66 290.75 521.08 291.06 524.608H326.941C327.251 521.08 326.713 517.66 324.433 516.261C321.054 514.187 309.001 514.123 309.001 514.123H309Z" fill="#5F5955" stroke="#1E1E1E" stroke-width="1.2" stroke-linejoin="round"/>
<path opacity="0.25" fill-rule="evenodd" clip-rule="evenodd" d="M309 515.034C309 515.034 297.5 514.853 293.656 517.233C293.168 517.535 292.733 518.341 292.397 519.068C292.742 518.631 293.06 518.259 293.568 517.947C296.947 515.873 309 515.81 309 515.81C309 515.81 321.054 515.873 324.433 517.947C324.95 518.264 325.215 518.649 325.563 519.096C325.597 518.996 325.024 517.568 324.053 516.989C320.416 515.019 309.001 515.034 309.001 515.034L309 515.034Z" fill="white"/>
<path fill-rule="evenodd" clip-rule="evenodd" d="M185 472.612C182.221 472.612 179.968 473.772 179.968 475.204L181.97 478.703C160.785 497.3 174.437 514.521 174.437 514.521H195.565C195.565 514.521 204.87 503.074 196.571 488.768L192.625 495.14C191.74 496.57 190.034 497.106 188.8 496.343C187.566 495.579 187.286 493.812 188.171 492.382L193.301 484.096C191.84 482.321 190.1 480.519 188.031 478.703L190.033 475.204C190.033 473.772 187.78 472.613 185.001 472.613L185 472.612Z" fill="#5F5955" stroke="#1E1E1E" stroke-width="1.2" stroke-linejoin="round"/>
<path opacity="0.18" fill-rule="evenodd" clip-rule="evenodd" d="M185 472.612C183.922 472.612 182.926 472.789 182.107 473.086C187.835 474.204 188.676 474.563 185.487 478.828L189.771 483.536C184.945 494.413 187.655 494.085 187.655 494.085C187.655 494.085 188.574 490.589 193.082 483.831C191.667 482.141 189.996 480.428 188.031 478.702L190.032 475.204C190.032 473.773 187.779 472.613 185 472.612V472.612ZM196.57 488.767L195.238 490.763C200.17 501.868 189.781 514.519 189.781 514.519H195.564C195.773 514.564 204.749 502.846 196.57 488.766L196.57 488.767Z" fill="black"/>
<path opacity="0.25" fill-rule="evenodd" clip-rule="evenodd" d="M171.991 506.872C171.702 506.83 167.473 493.954 179.587 482.12C176.548 484.622 170.169 499.496 171.991 506.872Z" fill="white"/>
<path opacity="0.25" fill-rule="evenodd" clip-rule="evenodd" d="M182.745 478.459L180.795 475.034C180.795 475.034 181.116 474.082 183.146 473.652C180.867 475.434 181.842 475.846 182.745 478.459Z" fill="white"/>
<path fill-rule="evenodd" clip-rule="evenodd" d="M185 513.123C185 513.123 172.947 513.187 169.568 515.261C167.288 516.66 166.75 520.08 167.06 523.608H202.941C203.251 520.08 202.713 516.66 200.433 515.261C197.054 513.187 185.001 513.123 185.001 513.123H185Z" fill="#5F5955" stroke="#1E1E1E" stroke-width="1.2" stroke-linejoin="round"/>
<path opacity="0.25" fill-rule="evenodd" clip-rule="evenodd" d="M185 514.034C185 514.034 173.5 513.853 169.656 516.233C169.168 516.535 168.733 517.341 168.397 518.068C168.742 517.631 169.06 517.259 169.568 516.947C172.947 514.873 185 514.81 185 514.81C185 514.81 197.054 514.873 200.433 516.947C200.949 517.264 201.215 517.649 201.563 518.096C201.597 517.995 201.024 516.567 200.053 515.989C196.416 514.019 185.001 514.034 185.001 514.034H185Z" fill="white"/>
<path fill-rule="evenodd" clip-rule="evenodd" d="M372 475.612C369.221 475.612 366.968 476.772 366.968 478.204L368.97 481.703C347.785 500.3 361.437 517.521 361.437 517.521H382.565C382.565 517.521 391.87 506.074 383.571 491.768L379.625 498.14C378.74 499.57 377.034 500.106 375.8 499.343C374.566 498.579 374.286 496.812 375.171 495.382L380.301 487.096C378.84 485.321 377.1 483.519 375.031 481.703L377.033 478.204C377.033 476.772 374.78 475.613 372.001 475.613L372 475.612Z" fill="#5F5955" stroke="#1E1E1E" stroke-width="1.2" stroke-linejoin="round"/>
<path opacity="0.18" fill-rule="evenodd" clip-rule="evenodd" d="M372 475.612C370.922 475.612 369.926 475.789 369.107 476.086C374.835 477.204 375.676 477.563 372.487 481.828L376.771 486.536C371.945 497.413 374.655 497.085 374.655 497.085C374.655 497.085 375.574 493.589 380.082 486.831C378.667 485.141 376.996 483.428 375.031 481.702L377.032 478.204C377.032 476.773 374.779 475.613 372 475.612V475.612ZM383.57 491.767L382.238 493.763C387.17 504.868 376.781 517.519 376.781 517.519H382.564C382.773 517.564 391.749 505.846 383.57 491.766L383.57 491.767Z" fill="black"/>
<path opacity="0.25" fill-rule="evenodd" clip-rule="evenodd" d="M358.991 509.872C358.702 509.83 354.473 496.954 366.587 485.12C363.548 487.622 357.169 502.496 358.991 509.872Z" fill="white"/>
<path opacity="0.25" fill-rule="evenodd" clip-rule="evenodd" d="M369.745 481.459L367.795 478.034C367.795 478.034 368.116 477.082 370.146 476.652C367.867 478.434 368.842 478.846 369.745 481.459Z" fill="white"/>
<path fill-rule="evenodd" clip-rule="evenodd" d="M372 516.123C372 516.123 359.947 516.187 356.568 518.261C354.288 519.66 353.75 523.08 354.06 526.608H389.941C390.251 523.08 389.713 519.66 387.433 518.261C384.054 516.187 372.001 516.123 372.001 516.123H372Z" fill="#5F5955" stroke="#1E1E1E" stroke-width="1.2" stroke-linejoin="round"/>
<path opacity="0.25" fill-rule="evenodd" clip-rule="evenodd" d="M372 517.034C372 517.034 360.5 516.853 356.656 519.233C356.168 519.535 355.733 520.341 355.397 521.068C355.742 520.631 356.06 520.259 356.568 519.947C359.947 517.873 372 517.81 372 517.81C372 517.81 384.054 517.873 387.433 519.947C387.949 520.264 388.215 520.649 388.563 521.096C388.597 520.995 388.024 519.567 387.053 518.989C383.416 517.019 372.001 517.034 372.001 517.034H372Z" fill="white"/>
<path fill-rule="evenodd" clip-rule="evenodd" d="M123.253 496.38C123.035 505.576 107.733 503.269 108.052 520.277L138.227 520.433C135.463 511.93 151.018 487.222 122.479 477.853V477.853C122.479 477.853 119.26 474.419 114.604 474.125L114.898 478.791L108.881 484.839C105.41 488.991 97.3513 495.898 98.6494 497.525C102.762 504.527 107.006 503.375 107.006 503.375C112.605 497.378 114.687 500.617 123.254 496.38L123.253 496.38Z" fill="#5F5955" stroke="#1E1E1E" stroke-width="1.2" stroke-linejoin="round"/>
<path opacity="0.4" fill-rule="evenodd" clip-rule="evenodd" d="M115.502 485.396C114.478 486.532 114.591 486.869 114.428 488.234C115.491 488.397 116.417 488.551 117.396 488.321C120.539 486.655 117.495 483.83 115.503 485.396L115.502 485.396Z" fill="black"/>
<path opacity="0.35" fill-rule="evenodd" clip-rule="evenodd" d="M102.133 495.259C101.011 495.797 100.815 496.527 100.738 497.207C101.7 497.759 103.215 497.041 103.433 495.317L102.133 495.259L102.133 495.259Z" fill="black"/>
<path opacity="0.25" fill-rule="evenodd" clip-rule="evenodd" d="M100.811 499.198C100.811 499.198 101.673 500.699 99.3569 497.032C100.227 494.422 110.264 485.047 115.775 479.167L115.533 475.094C115.533 475.094 116.944 477.325 117.179 479.672C111.385 485.466 101.049 493.971 100.252 497.113C100.282 498.002 100.569 498.469 100.81 499.198H100.811Z" fill="white"/>
<path opacity="0.18" fill-rule="evenodd" clip-rule="evenodd" d="M107.503 503.299C110.181 498.895 118.58 499.044 123.253 496.379C123.679 496.514 123.425 498.187 123.57 498.003C124.689 496.564 127.432 493.675 124.716 488.929C125.404 496.793 106.608 496.309 103.741 502.531C103.477 503.106 106.621 503.578 107.503 503.299L107.503 503.299Z" fill="black"/>
<path opacity="0.25" fill-rule="evenodd" clip-rule="evenodd" d="M124.056 497.391C122.719 505.064 111.457 505.465 109.552 514.077C113.292 505.621 123.758 506.535 124.056 497.391Z" fill="white"/>
<path opacity="0.18" fill-rule="evenodd" clip-rule="evenodd" d="M114.605 474.125C114.605 474.125 118.632 475.1 121.079 479.382C148.138 488.825 131.165 516.259 128.719 520.399L138.228 520.433C135.605 516.152 150.831 486.645 122.479 477.852C120.135 476.441 118.826 474.408 114.604 474.125L114.605 474.125Z" fill="black"/>
<path fill-rule="evenodd" clip-rule="evenodd" d="M123 514.123C123 514.123 110.947 514.187 107.568 516.261C105.288 517.66 104.75 521.08 105.06 524.608H140.94C141.25 521.08 140.713 517.66 138.432 516.261C135.054 514.187 123 514.123 123 514.123H123Z" fill="#5F5955" stroke="#1E1E1E" stroke-width="1.2" stroke-linejoin="round"/>
<path opacity="0.25" fill-rule="evenodd" clip-rule="evenodd" d="M123 515.034C123 515.034 111.5 514.853 107.656 517.233C107.168 517.535 106.733 518.341 106.397 519.068C106.742 518.631 107.06 518.259 107.568 517.947C110.947 515.873 123 515.81 123 515.81C123 515.81 135.054 515.873 138.433 517.947C138.95 518.264 139.215 518.649 139.563 519.096C139.597 518.996 139.024 517.568 138.053 516.989C134.416 515.019 123.001 515.034 123.001 515.034L123 515.034Z" fill="white"/>
<path fill-rule="evenodd" clip-rule="evenodd" d="M52.3839 435.424H61.6165H52.3839ZM49.0799 422.111C49.0799 424.396 50.0202 426.582 51.6747 428.165L46.8561 430.937L47.4249 435.424H53.1087C52.0601 440.122 49.4724 445.1 46.4266 446.799C43.3808 448.497 39.4314 450.886 40.0345 457.608L73.9664 457.608C74.5695 450.886 70.62 448.497 67.5743 446.799C64.5286 445.1 61.9408 440.122 60.8922 435.424H66.576L67.1448 430.937L62.3264 428.165C63.9808 426.582 64.9209 424.396 64.9209 422.111C64.9213 417.667 61.4519 414.307 57.0001 414.307C52.5483 414.307 49.079 417.667 49.0793 422.111L49.0799 422.111Z" fill="#5F5955" stroke="#1E1E1E" stroke-width="1.2" stroke-linejoin="round"/>
<path opacity="0.18" fill-rule="evenodd" clip-rule="evenodd" d="M56.9499 414.229C58.4955 413.623 69.5259 422.024 57.8041 428.449L63.7599 431.221L63.0178 435.346H66.5272L67.093 430.86L62.2745 428.088C63.929 426.505 64.8641 424.681 64.8678 422.395C64.2489 415.246 56.9498 414.229 56.9498 414.229L56.9499 414.229ZM53.0579 435.346C59.0012 445.819 65.5584 448.538 70.3155 448.499L67.5228 446.721C64.7838 444.755 61.277 440.31 60.8407 435.346L53.0579 435.346Z" fill="black"/>
<path opacity="0.25" fill-rule="evenodd" clip-rule="evenodd" d="M53.0175 428.321L50.8434 431.419L47.7334 431.401L53.0306 428.334L53.0175 428.321Z" fill="white"/>
<path opacity="0.25" fill-rule="evenodd" clip-rule="evenodd" d="M56.0852 415.192C52.7291 415.375 48.5216 419.381 50.2972 424.325L50.5596 425.174C50.1243 420.568 53.367 415.779 56.0851 415.192L56.0852 415.192Z" fill="white"/>
<path opacity="0.25" fill-rule="evenodd" clip-rule="evenodd" d="M47.5793 448.665C42.3206 451.708 40.8249 456.77 40.8249 456.77C40.8112 456.77 40.1021 451.259 46.0473 447.987C51.9925 444.715 52.4117 439.868 53.7828 436.248C52.9418 441.137 52.838 445.622 47.5793 448.665V448.665Z" fill="white"/>
<path fill-rule="evenodd" clip-rule="evenodd" d="M117.384 435.424H126.616H117.384ZM114.08 422.111C114.08 424.396 115.02 426.582 116.675 428.165L111.856 430.937L112.425 435.424H118.109C117.06 440.122 114.472 445.1 111.427 446.799C108.381 448.497 104.431 450.886 105.035 457.608L138.966 457.608C139.569 450.886 135.62 448.497 132.574 446.799C129.529 445.1 126.941 440.122 125.892 435.424H131.576L132.145 430.937L127.326 428.165C128.981 426.582 129.921 424.396 129.921 422.111C129.921 417.667 126.452 414.307 122 414.307C117.548 414.307 114.079 417.667 114.079 422.111L114.08 422.111Z" fill="#5F5955" stroke="#1E1E1E" stroke-width="1.2" stroke-linejoin="round"/>
<path opacity="0.18" fill-rule="evenodd" clip-rule="evenodd" d="M121.95 414.229C123.495 413.623 134.526 422.024 122.804 428.449L128.76 431.221L128.018 435.346H131.527L132.093 430.86L127.275 428.088C128.929 426.505 129.864 424.681 129.868 422.395C129.249 415.246 121.95 414.229 121.95 414.229L121.95 414.229ZM118.058 435.346C124.001 445.819 130.558 448.538 135.316 448.499L132.523 446.721C129.784 444.755 126.277 440.31 125.841 435.346L118.058 435.346Z" fill="black"/>
<path opacity="0.25" fill-rule="evenodd" clip-rule="evenodd" d="M118.017 428.321L115.843 431.419L112.733 431.401L118.031 428.334L118.017 428.321Z" fill="white"/>
<path opacity="0.25" fill-rule="evenodd" clip-rule="evenodd" d="M121.085 415.192C117.729 415.375 113.522 419.381 115.297 424.325L115.56 425.174C115.124 420.568 118.367 415.779 121.085 415.192L121.085 415.192Z" fill="white"/>
<path opacity="0.25" fill-rule="evenodd" clip-rule="evenodd" d="M112.579 448.665C107.321 451.708 105.825 456.77 105.825 456.77C105.811 456.77 105.102 451.259 111.047 447.987C116.992 444.715 117.412 439.868 118.783 436.248C117.942 441.137 117.838 445.622 112.579 448.665V448.665Z" fill="white"/>
<path fill-rule="evenodd" clip-rule="evenodd" d="M117.384 435.424H126.616H117.384ZM114.08 422.111C114.08 424.396 115.02 426.582 116.675 428.165L111.856 430.937L112.425 435.424H118.109C117.06 440.122 114.472 445.1 111.427 446.799C108.381 448.497 104.431 450.886 105.035 457.608L138.966 457.608C139.569 450.886 135.62 448.497 132.574 446.799C129.529 445.1 126.941 440.122 125.892 435.424H131.576L132.145 430.937L127.326 428.165C128.981 426.582 129.921 424.396 129.921 422.111C129.921 417.667 126.452 414.307 122 414.307C117.548 414.307 114.079 417.667 114.079 422.111L114.08 422.111Z" fill="#5F5955" stroke="#1E1E1E" stroke-width="1.2" stroke-linejoin="round"/>
<path opacity="0.18" fill-rule="evenodd" clip-rule="evenodd" d="M121.95 414.229C123.495 413.623 134.526 422.024 122.804 428.449L128.76 431.221L128.018 435.346H131.527L132.093 430.86L127.275 428.088C128.929 426.505 129.864 424.681 129.868 422.395C129.249 415.246 121.95 414.229 121.95 414.229L121.95 414.229ZM118.058 435.346C124.001 445.819 130.558 448.538 135.316 448.499L132.523 446.721C129.784 444.755 126.277 440.31 125.841 435.346L118.058 435.346Z" fill="black"/>
<path opacity="0.25" fill-rule="evenodd" clip-rule="evenodd" d="M118.017 428.321L115.843 431.419L112.733 431.401L118.031 428.334L118.017 428.321Z" fill="white"/>
<path opacity="0.25" fill-rule="evenodd" clip-rule="evenodd" d="M121.085 415.192C117.729 415.375 113.522 419.381 115.297 424.325L115.56 425.174C115.124 420.568 118.367 415.779 121.085 415.192L121.085 415.192Z" fill="white"/>
<path opacity="0.25" fill-rule="evenodd" clip-rule="evenodd" d="M112.579 448.665C107.321 451.708 105.825 456.77 105.825 456.77C105.811 456.77 105.102 451.259 111.047 447.987C116.992 444.715 117.412 439.868 118.783 436.248C117.942 441.137 117.838 445.622 112.579 448.665V448.665Z" fill="white"/>
<path fill-rule="evenodd" clip-rule="evenodd" d="M179.384 435.424H188.616H179.384ZM176.08 422.111C176.08 424.396 177.02 426.582 178.675 428.165L173.856 430.937L174.425 435.424H180.109C179.06 440.122 176.472 445.1 173.427 446.799C170.381 448.497 166.431 450.886 167.035 457.608L200.966 457.608C201.569 450.886 197.62 448.497 194.574 446.799C191.529 445.1 188.941 440.122 187.892 435.424H193.576L194.145 430.937L189.326 428.165C190.981 426.582 191.921 424.396 191.921 422.111C191.921 417.667 188.452 414.307 184 414.307C179.548 414.307 176.079 417.667 176.079 422.111L176.08 422.111Z" fill="#5F5955" stroke="#1E1E1E" stroke-width="1.2" stroke-linejoin="round"/>
<path opacity="0.18" fill-rule="evenodd" clip-rule="evenodd" d="M183.95 414.229C185.495 413.623 196.526 422.024 184.804 428.449L190.76 431.221L190.018 435.346H193.527L194.093 430.86L189.275 428.088C190.929 426.505 191.864 424.681 191.868 422.395C191.249 415.246 183.95 414.229 183.95 414.229L183.95 414.229ZM180.058 435.346C186.001 445.819 192.558 448.538 197.316 448.499L194.523 446.721C191.784 444.755 188.277 440.31 187.841 435.346L180.058 435.346Z" fill="black"/>
<path opacity="0.25" fill-rule="evenodd" clip-rule="evenodd" d="M180.017 428.321L177.843 431.419L174.733 431.401L180.031 428.334L180.017 428.321Z" fill="white"/>
<path opacity="0.25" fill-rule="evenodd" clip-rule="evenodd" d="M183.085 415.192C179.729 415.375 175.522 419.381 177.297 424.325L177.56 425.174C177.124 420.568 180.367 415.779 183.085 415.192L183.085 415.192Z" fill="white"/>
<path opacity="0.25" fill-rule="evenodd" clip-rule="evenodd" d="M174.579 448.665C169.321 451.708 167.825 456.77 167.825 456.77C167.811 456.77 167.102 451.259 173.047 447.987C178.992 444.715 179.412 439.868 180.783 436.248C179.942 441.137 179.838 445.622 174.579 448.665V448.665Z" fill="white"/>
<path fill-rule="evenodd" clip-rule="evenodd" d="M242.384 435.424H251.616H242.384ZM239.08 422.111C239.08 424.396 240.02 426.582 241.675 428.165L236.856 430.937L237.425 435.424H243.109C242.06 440.122 239.472 445.1 236.427 446.799C233.381 448.497 229.431 450.886 230.035 457.608L263.966 457.608C264.569 450.886 260.62 448.497 257.574 446.799C254.529 445.1 251.941 440.122 250.892 435.424H256.576L257.145 430.937L252.326 428.165C253.981 426.582 254.921 424.396 254.921 422.111C254.921 417.667 251.452 414.307 247 414.307C242.548 414.307 239.079 417.667 239.079 422.111L239.08 422.111Z" fill="#5F5955" stroke="#1E1E1E" stroke-width="1.2" stroke-linejoin="round"/>
<path opacity="0.18" fill-rule="evenodd" clip-rule="evenodd" d="M246.95 414.229C248.495 413.623 259.526 422.024 247.804 428.449L253.76 431.221L253.018 435.346H256.527L257.093 430.86L252.275 428.088C253.929 426.505 254.864 424.681 254.868 422.395C254.249 415.246 246.95 414.229 246.95 414.229L246.95 414.229ZM243.058 435.346C249.001 445.819 255.558 448.538 260.316 448.499L257.523 446.721C254.784 444.755 251.277 440.31 250.841 435.346L243.058 435.346Z" fill="black"/>
<path opacity="0.25" fill-rule="evenodd" clip-rule="evenodd" d="M243.017 428.321L240.843 431.419L237.733 431.401L243.031 428.334L243.017 428.321Z" fill="white"/>
<path opacity="0.25" fill-rule="evenodd" clip-rule="evenodd" d="M246.085 415.192C242.729 415.375 238.522 419.381 240.297 424.325L240.56 425.174C240.124 420.568 243.367 415.779 246.085 415.192L246.085 415.192Z" fill="white"/>
<path opacity="0.25" fill-rule="evenodd" clip-rule="evenodd" d="M237.579 448.665C232.321 451.708 230.825 456.77 230.825 456.77C230.811 456.77 230.102 451.259 236.047 447.987C241.992 444.715 242.412 439.868 243.783 436.248C242.942 441.137 242.838 445.622 237.579 448.665V448.665Z" fill="white"/>
<path fill-rule="evenodd" clip-rule="evenodd" d="M304.384 435.424H313.616H304.384ZM301.08 422.111C301.08 424.396 302.02 426.582 303.675 428.165L298.856 430.937L299.425 435.424H305.109C304.06 440.122 301.472 445.1 298.427 446.799C295.381 448.497 291.431 450.886 292.035 457.608L325.966 457.608C326.569 450.886 322.62 448.497 319.574 446.799C316.529 445.1 313.941 440.122 312.892 435.424H318.576L319.145 430.937L314.326 428.165C315.981 426.582 316.921 424.396 316.921 422.111C316.921 417.667 313.452 414.307 309 414.307C304.548 414.307 301.079 417.667 301.079 422.111L301.08 422.111Z" fill="#5F5955" stroke="#1E1E1E" stroke-width="1.2" stroke-linejoin="round"/>
<path opacity="0.18" fill-rule="evenodd" clip-rule="evenodd" d="M308.95 414.229C310.495 413.623 321.526 422.024 309.804 428.449L315.76 431.221L315.018 435.346H318.527L319.093 430.86L314.275 428.088C315.929 426.505 316.864 424.681 316.868 422.395C316.249 415.246 308.95 414.229 308.95 414.229L308.95 414.229ZM305.058 435.346C311.001 445.819 317.558 448.538 322.316 448.499L319.523 446.721C316.784 444.755 313.277 440.31 312.841 435.346L305.058 435.346Z" fill="black"/>
<path opacity="0.25" fill-rule="evenodd" clip-rule="evenodd" d="M305.017 428.321L302.843 431.419L299.733 431.401L305.031 428.334L305.017 428.321Z" fill="white"/>
<path opacity="0.25" fill-rule="evenodd" clip-rule="evenodd" d="M308.085 415.192C304.729 415.375 300.522 419.381 302.297 424.325L302.56 425.174C302.124 420.568 305.367 415.779 308.085 415.192L308.085 415.192Z" fill="white"/>
<path opacity="0.25" fill-rule="evenodd" clip-rule="evenodd" d="M299.579 448.665C294.321 451.708 292.825 456.77 292.825 456.77C292.811 456.77 292.102 451.259 298.047 447.987C303.992 444.715 304.412 439.868 305.783 436.248C304.942 441.137 304.838 445.622 299.579 448.665V448.665Z" fill="white"/>
<path fill-rule="evenodd" clip-rule="evenodd" d="M367.384 435.424H376.616H367.384ZM364.08 422.111C364.08 424.396 365.02 426.582 366.675 428.165L361.856 430.937L362.425 435.424H368.109C367.06 440.122 364.472 445.1 361.427 446.799C358.381 448.497 354.431 450.886 355.035 457.608L388.966 457.608C389.569 450.886 385.62 448.497 382.574 446.799C379.529 445.1 376.941 440.122 375.892 435.424H381.576L382.145 430.937L377.326 428.165C378.981 426.582 379.921 424.396 379.921 422.111C379.921 417.667 376.452 414.307 372 414.307C367.548 414.307 364.079 417.667 364.079 422.111L364.08 422.111Z" fill="#5F5955" stroke="#1E1E1E" stroke-width="1.2" stroke-linejoin="round"/>
<path opacity="0.18" fill-rule="evenodd" clip-rule="evenodd" d="M371.95 414.229C373.495 413.623 384.526 422.024 372.804 428.449L378.76 431.221L378.018 435.346H381.527L382.093 430.86L377.275 428.088C378.929 426.505 379.864 424.681 379.868 422.395C379.249 415.246 371.95 414.229 371.95 414.229L371.95 414.229ZM368.058 435.346C374.001 445.819 380.558 448.538 385.316 448.499L382.523 446.721C379.784 444.755 376.277 440.31 375.841 435.346L368.058 435.346Z" fill="black"/>
<path opacity="0.25" fill-rule="evenodd" clip-rule="evenodd" d="M368.017 428.321L365.843 431.419L362.733 431.401L368.031 428.334L368.017 428.321Z" fill="white"/>
<path opacity="0.25" fill-rule="evenodd" clip-rule="evenodd" d="M371.085 415.192C367.729 415.375 363.522 419.381 365.297 424.325L365.56 425.174C365.124 420.568 368.367 415.779 371.085 415.192L371.085 415.192Z" fill="white"/>
<path opacity="0.25" fill-rule="evenodd" clip-rule="evenodd" d="M362.579 448.665C357.321 451.708 355.825 456.77 355.825 456.77C355.811 456.77 355.102 451.259 361.047 447.987C366.992 444.715 367.412 439.868 368.783 436.248C367.942 441.137 367.838 445.622 362.579 448.665V448.665Z" fill="white"/>
<path fill-rule="evenodd" clip-rule="evenodd" d="M432.384 435.424H441.616H432.384ZM429.08 422.111C429.08 424.396 430.02 426.582 431.675 428.165L426.856 430.937L427.425 435.424H433.109C432.06 440.122 429.472 445.1 426.427 446.799C423.381 448.497 419.431 450.886 420.035 457.608L453.966 457.608C454.569 450.886 450.62 448.497 447.574 446.799C444.529 445.1 441.941 440.122 440.892 435.424H446.576L447.145 430.937L442.326 428.165C443.981 426.582 444.921 424.396 444.921 422.111C444.921 417.667 441.452 414.307 437 414.307C432.548 414.307 429.079 417.667 429.079 422.111L429.08 422.111Z" fill="#5F5955" stroke="#1E1E1E" stroke-width="1.2" stroke-linejoin="round"/>
<path opacity="0.18" fill-rule="evenodd" clip-rule="evenodd" d="M436.95 414.229C438.495 413.623 449.526 422.024 437.804 428.449L443.76 431.221L443.018 435.346H446.527L447.093 430.86L442.275 428.088C443.929 426.505 444.864 424.681 444.868 422.395C444.249 415.246 436.95 414.229 436.95 414.229L436.95 414.229ZM433.058 435.346C439.001 445.819 445.558 448.538 450.316 448.499L447.523 446.721C444.784 444.755 441.277 440.31 440.841 435.346L433.058 435.346Z" fill="black"/>
<path opacity="0.25" fill-rule="evenodd" clip-rule="evenodd" d="M433.017 428.321L430.843 431.419L427.733 431.401L433.031 428.334L433.017 428.321Z" fill="white"/>
<path opacity="0.25" fill-rule="evenodd" clip-rule="evenodd" d="M436.085 415.192C432.729 415.375 428.522 419.381 430.297 424.325L430.56 425.174C430.124 420.568 433.367 415.779 436.085 415.192L436.085 415.192Z" fill="white"/>
<path opacity="0.25" fill-rule="evenodd" clip-rule="evenodd" d="M427.579 448.665C422.321 451.708 420.825 456.77 420.825 456.77C420.811 456.77 420.102 451.259 426.047 447.987C431.992 444.715 432.412 439.868 433.783 436.248C432.942 441.137 432.838 445.622 427.579 448.665V448.665Z" fill="white"/>
<path fill-rule="evenodd" clip-rule="evenodd" d="M495.384 434.424H504.616H495.384ZM492.08 421.111C492.08 423.396 493.02 425.582 494.675 427.165L489.856 429.937L490.425 434.424H496.109C495.06 439.122 492.472 444.1 489.427 445.799C486.381 447.497 482.431 449.886 483.035 456.608L516.966 456.608C517.569 449.886 513.62 447.497 510.574 445.799C507.529 444.1 504.941 439.122 503.892 434.424H509.576L510.145 429.937L505.326 427.165C506.981 425.582 507.921 423.396 507.921 421.111C507.921 416.667 504.452 413.307 500 413.307C495.548 413.307 492.079 416.667 492.079 421.111L492.08 421.111Z" fill="#5F5955" stroke="#1E1E1E" stroke-width="1.2" stroke-linejoin="round"/>
<path opacity="0.18" fill-rule="evenodd" clip-rule="evenodd" d="M499.95 413.229C501.495 412.623 512.526 421.024 500.804 427.449L506.76 430.221L506.018 434.346H509.527L510.093 429.86L505.275 427.088C506.929 425.505 507.864 423.681 507.868 421.395C507.249 414.246 499.95 413.229 499.95 413.229L499.95 413.229ZM496.058 434.346C502.001 444.819 508.558 447.538 513.316 447.499L510.523 445.721C507.784 443.755 504.277 439.31 503.841 434.346L496.058 434.346Z" fill="black"/>
<path opacity="0.25" fill-rule="evenodd" clip-rule="evenodd" d="M496.017 427.321L493.843 430.419L490.733 430.401L496.031 427.334L496.017 427.321Z" fill="white"/>
<path opacity="0.25" fill-rule="evenodd" clip-rule="evenodd" d="M499.085 414.192C495.729 414.375 491.522 418.381 493.297 423.325L493.56 424.174C493.124 419.568 496.367 414.779 499.085 414.192L499.085 414.192Z" fill="white"/>
<path opacity="0.25" fill-rule="evenodd" clip-rule="evenodd" d="M490.579 447.665C485.321 450.708 483.825 455.77 483.825 455.77C483.811 455.77 483.102 450.259 489.047 446.987C494.992 443.715 495.412 438.868 496.783 435.248C495.942 440.137 495.838 444.622 490.579 447.665V447.665Z" fill="white"/>
<path fill-rule="evenodd" clip-rule="evenodd" d="M47.6703 493.946C54.1457 492.969 60.3142 493.183 66.3299 493.946H47.6703ZM42.7217 479.754C41.3235 491.326 44.1781 493.847 47.6693 493.946L43.293 517.916H70.7054L66.3291 493.946C69.8202 493.848 72.6748 491.326 71.2767 479.754L66.5152 479.055L65.0984 483.864L60.9515 483.732L60.2622 478.777H53.7351L53.047 483.732L48.8996 483.864L47.4828 479.055L42.7217 479.754Z" fill="#5F5955" stroke="#1E1E1E" stroke-width="1.2"/>
<path opacity="0.18" fill-rule="evenodd" clip-rule="evenodd" d="M47.6702 493.946C56.6832 493.946 64.986 494.485 67.4016 515.822L70.4623 516.331L66.3292 494.646C66.2877 494.24 58.2929 492.24 47.6697 493.947L47.6702 493.946Z" fill="black"/>
<path opacity="0.25" fill-rule="evenodd" clip-rule="evenodd" d="M43.5057 480.489L46.5108 480.112C43.9847 480.523 43.4579 487.102 43.4579 487.102C43.1437 486.869 43.2096 480.63 43.5056 480.489L43.5057 480.489Z" fill="white"/>
<path opacity="0.25" fill-rule="evenodd" clip-rule="evenodd" d="M57.3643 479.607C55.1893 479.607 54.0391 483.234 54.0391 483.234L54.4842 479.632L57.3643 479.607Z" fill="white"/>
<path opacity="0.25" fill-rule="evenodd" clip-rule="evenodd" d="M67.1257 479.957L68.3585 480.113C67.3226 480.773 66.259 482.738 66.259 482.738L67.1257 479.957Z" fill="white"/>
<path opacity="0.25" fill-rule="evenodd" clip-rule="evenodd" d="M48.383 494.672L51.8422 494.286C48.383 494.672 45.3796 511.516 45.3655 511.595L48.383 494.672Z" fill="white"/>
<path opacity="0.18" fill-rule="evenodd" clip-rule="evenodd" d="M68.8973 479.405C69.3683 487.805 66.3234 493.401 58.2825 493.313L64.5894 494.056C74.5193 494.464 71.3228 479.792 71.278 479.754L68.8973 479.405Z" fill="black"/>
<path fill-rule="evenodd" clip-rule="evenodd" d="M56.9999 515.123C56.9999 515.123 44.9471 515.187 41.5678 517.261C39.2877 518.66 38.7498 522.081 39.06 525.608H74.9403C75.2504 522.08 74.7125 518.66 72.4324 517.261C69.0536 515.187 57.0003 515.123 57.0003 515.123H56.9999Z" fill="#5F5955" stroke="#1E1E1E" stroke-width="1.2" stroke-linejoin="round"/>
<path opacity="0.25" fill-rule="evenodd" clip-rule="evenodd" d="M56.9999 516.033C56.9999 516.033 45.4999 515.851 41.6562 518.232C41.168 518.534 40.7332 519.34 40.3975 520.067C40.7417 519.629 41.0603 519.257 41.5678 518.946C44.9466 516.872 56.9999 516.809 56.9999 516.809C56.9999 516.809 69.0539 516.872 72.4334 518.946C72.9496 519.263 73.2154 519.648 73.5628 520.094C73.5969 519.994 73.0237 518.566 72.053 517.987C68.4158 516.018 57.001 516.033 57.001 516.033L56.9999 516.033Z" fill="white"/>
<path fill-rule="evenodd" clip-rule="evenodd" d="M491.67 493.946C498.146 492.969 504.314 493.183 510.33 493.946H491.67ZM486.722 479.754C485.324 491.326 488.178 493.847 491.669 493.946L487.293 517.916H514.705L510.329 493.946C513.82 493.848 516.675 491.326 515.277 479.754L510.515 479.055L509.098 483.864L504.952 483.732L504.262 478.777H497.735L497.047 483.732L492.9 483.864L491.483 479.055L486.722 479.754Z" fill="#5F5955" stroke="#1E1E1E" stroke-width="1.2"/>
<path opacity="0.18" fill-rule="evenodd" clip-rule="evenodd" d="M491.67 493.946C500.683 493.946 508.986 494.485 511.402 515.822L514.462 516.331L510.329 494.646C510.288 494.24 502.293 492.24 491.67 493.947L491.67 493.946Z" fill="black"/>
<path opacity="0.25" fill-rule="evenodd" clip-rule="evenodd" d="M487.506 480.489L490.511 480.112C487.985 480.523 487.458 487.102 487.458 487.102C487.144 486.869 487.21 480.63 487.506 480.489L487.506 480.489Z" fill="white"/>
<path opacity="0.25" fill-rule="evenodd" clip-rule="evenodd" d="M501.364 479.607C499.189 479.607 498.039 483.234 498.039 483.234L498.484 479.632L501.364 479.607Z" fill="white"/>
<path opacity="0.25" fill-rule="evenodd" clip-rule="evenodd" d="M511.126 479.957L512.358 480.113C511.323 480.773 510.259 482.738 510.259 482.738L511.126 479.957Z" fill="white"/>
<path opacity="0.25" fill-rule="evenodd" clip-rule="evenodd" d="M492.383 494.672L495.842 494.286C492.383 494.672 489.38 511.516 489.365 511.595L492.383 494.672Z" fill="white"/>
<path opacity="0.18" fill-rule="evenodd" clip-rule="evenodd" d="M512.897 479.405C513.368 487.805 510.323 493.401 502.282 493.313L508.589 494.056C518.519 494.464 515.323 479.792 515.278 479.754L512.897 479.405Z" fill="black"/>
<path fill-rule="evenodd" clip-rule="evenodd" d="M501 515.123C501 515.123 488.947 515.187 485.568 517.261C483.288 518.66 482.75 522.081 483.06 525.608H518.94C519.25 522.08 518.713 518.66 516.432 517.261C513.054 515.187 501 515.123 501 515.123H501Z" fill="#5F5955" stroke="#1E1E1E" stroke-width="1.2" stroke-linejoin="round"/>
<path opacity="0.25" fill-rule="evenodd" clip-rule="evenodd" d="M501 516.033C501 516.033 489.5 515.851 485.656 518.232C485.168 518.534 484.733 519.34 484.397 520.067C484.742 519.629 485.06 519.257 485.568 518.946C488.947 516.872 501 516.809 501 516.809C501 516.809 513.054 516.872 516.433 518.946C516.95 519.263 517.215 519.648 517.563 520.094C517.597 519.994 517.024 518.566 516.053 517.987C512.416 516.018 501.001 516.033 501.001 516.033L501 516.033Z" fill="white"/>
<path fill-rule="evenodd" clip-rule="evenodd" d="M246.946 474.724C245.785 474.724 244.672 475.135 243.851 475.868C243.03 476.6 242.569 477.593 242.569 478.629C242.569 479.665 243.03 480.658 243.851 481.39C244.672 482.123 245.785 482.534 246.946 482.534C247.521 482.534 248.09 482.433 248.621 482.237C249.152 482.041 249.634 481.753 250.041 481.39C250.447 481.028 250.77 480.597 250.99 480.123C251.21 479.65 251.323 479.142 251.323 478.629C251.323 478.116 251.21 477.608 250.99 477.134C250.77 476.661 250.447 476.23 250.041 475.867C249.634 475.505 249.152 475.217 248.621 475.021C248.09 474.825 247.521 474.724 246.946 474.724V474.724Z" fill="#5F5955" stroke="#1E1E1E" stroke-width="1.1999" stroke-linecap="round" stroke-linejoin="round"/>
<path opacity="0.25" fill-rule="evenodd" clip-rule="evenodd" d="M246.783 475.567C246.287 475.29 241.867 476.63 243.899 480.286C243.589 478.247 244.477 476.058 246.783 475.567Z" fill="white"/>
<path fill-rule="evenodd" clip-rule="evenodd" d="M246.946 482.535C238.357 482.535 234.28 490.302 234.28 496.207H259.707C259.708 490.301 255.535 482.535 246.946 482.535H246.946Z" fill="#5F5955" stroke="#1E1E1E" stroke-width="1.2" stroke-linecap="round" stroke-linejoin="round"/>
<path opacity="0.25" fill-rule="evenodd" clip-rule="evenodd" d="M237.972 487.77C239.348 485.818 241.826 483.519 247.002 483.309C246.592 483.674 240.681 484.81 237.972 487.77Z" fill="white"/>
<path opacity="0.18" fill-rule="evenodd" clip-rule="evenodd" d="M246.784 474.609C246.784 474.609 246.844 474.923 246.783 474.609C250.057 476.099 249.489 479.687 247.862 481.931C257.569 486.952 250.783 493.374 250.782 493.373H254.347C256.673 495.072 263.863 489.755 249.285 481.93C253.942 477.817 249.412 474.528 246.784 474.608L246.784 474.609Z" fill="black"/>
<path fill-rule="evenodd" clip-rule="evenodd" d="M247 488.097C244.398 488.097 243.9 491.594 241.54 491.871C239.136 492.153 237.076 488.82 234.609 489.579C232.636 490.187 233.582 493.011 232.226 493.771C230.376 494.807 228.022 491.352 225.243 493.377C234.27 505.031 235.916 509.715 235.781 518.218L258.218 518.218C258.083 509.714 259.729 505.031 268.756 493.377C265.977 491.352 263.623 494.807 261.773 493.771C260.417 493.011 261.363 490.187 259.39 489.579C256.923 488.82 254.863 492.153 252.459 491.871C250.099 491.594 249.601 488.097 246.999 488.097L247 488.097Z" fill="#5F5955" stroke="#1E1E1E" stroke-width="1.1999" stroke-linecap="round" stroke-linejoin="round"/>
<path opacity="0.25" fill-rule="evenodd" clip-rule="evenodd" d="M227.062 493.529C226.882 493.516 226.624 493.603 226.456 493.641C230.524 499.052 235.135 506.23 235.827 510.031C233.971 503.52 231.515 497.409 227.722 493.568L227.062 493.529Z" fill="white"/>
<path opacity="0.18" fill-rule="evenodd" clip-rule="evenodd" d="M266.766 492.73C254.245 505.934 253.666 516.47 244.404 518.219H258.232C258.096 509.715 259.743 505.032 268.77 493.378C268.77 493.378 267.861 492.381 266.766 492.73L266.766 492.73Z" fill="black"/>
<path opacity="0.25" fill-rule="evenodd" clip-rule="evenodd" d="M233.684 493.007C233.951 492.892 235.247 490.621 236.298 490.433C234.424 489.977 234.161 490.372 233.684 493.007V493.007Z" fill="white"/>
<path opacity="0.25" fill-rule="evenodd" clip-rule="evenodd" d="M243.715 491.596C244.973 490.478 245.871 488.092 247.989 489.161C246.936 488.858 245.065 490.534 243.715 491.596V491.596Z" fill="white"/>
<path opacity="0.25" fill-rule="evenodd" clip-rule="evenodd" d="M255.078 491.936C255.355 492.028 257.951 489.768 258.857 490.328C258.857 490.328 256.968 491.806 255.078 491.936Z" fill="white"/>
<path fill-rule="evenodd" clip-rule="evenodd" d="M247 516.123C247 516.123 234.947 516.187 231.568 518.261C229.288 519.66 228.75 523.081 229.06 526.608L264.94 526.608C265.25 523.08 264.712 519.66 262.432 518.26C259.053 516.187 247 516.123 247 516.123L247 516.123Z" fill="#5F5955" stroke="#1E1E1E" stroke-width="1.2" stroke-linejoin="round"/>
<path opacity="0.25" fill-rule="evenodd" clip-rule="evenodd" d="M247 517.034C247 517.034 235.5 516.853 231.656 519.233C231.168 519.535 230.733 520.341 230.397 521.068C230.742 520.631 231.06 520.259 231.568 519.947C234.947 517.873 247 517.81 247 517.81C247 517.81 259.054 517.873 262.433 519.947C262.95 520.264 263.215 520.649 263.563 521.096C263.597 520.995 263.024 519.567 262.053 518.989C258.416 517.019 247.001 517.034 247.001 517.034H247Z" fill="white"/>
<path fill-rule="evenodd" clip-rule="evenodd" d="M185 30.6122C182.221 30.6122 179.968 31.772 179.968 33.2036L181.97 36.7023C160.786 55.2998 174.437 72.5205 174.437 72.5205H195.565C195.565 72.5205 204.871 61.0742 196.571 46.7673L192.626 53.1397C191.74 54.5697 190.034 55.1062 188.8 54.3423C187.567 53.5784 187.286 51.8119 188.171 50.3819L193.302 42.0962C191.84 40.3209 190.101 38.5188 188.032 36.7025L190.034 33.2038C190.034 31.7722 187.781 30.6124 185.002 30.6124L185 30.6122Z" fill="#F0F0F0" stroke="#3C3C3C" stroke-width="1.2" stroke-linejoin="round"/>
<path opacity="0.15" fill-rule="evenodd" clip-rule="evenodd" d="M185 30.6122C183.923 30.6122 182.926 30.7884 182.108 31.0854C187.835 32.2037 188.677 32.5631 185.487 36.8282L189.772 41.536C184.945 52.4132 187.655 52.0853 187.655 52.0853C187.655 52.0853 188.574 48.5893 193.082 41.8303C191.667 40.1413 189.997 38.4274 188.031 36.702L190.032 33.2039C190.033 31.7723 187.78 30.6126 185 30.6122V30.6122ZM196.571 46.7664L195.239 48.7632C200.171 59.8682 189.781 72.5192 189.781 72.5192H195.564C195.773 72.564 204.749 60.8454 196.571 46.766L196.571 46.7664Z" fill="black"/>
<path fill-rule="evenodd" clip-rule="evenodd" d="M171.99 64.8717C171.701 64.8303 167.471 51.9543 179.586 40.1204C176.547 42.6218 170.167 57.4955 171.99 64.8717Z" fill="white"/>
<path fill-rule="evenodd" clip-rule="evenodd" d="M182.747 36.4589L180.797 33.0345C180.797 33.0345 181.117 32.0818 183.148 31.6522C180.869 33.4344 181.844 33.8463 182.747 36.4589Z" fill="white"/>
<path fill-rule="evenodd" clip-rule="evenodd" d="M185 71.123C185 71.123 172.947 71.1863 169.568 73.2603C167.288 74.6598 166.75 78.0802 167.06 81.6076H202.94C203.251 78.0802 202.713 74.6597 200.433 73.2603C197.054 71.1865 185.001 71.123 185.001 71.123H185Z" fill="#F0F0F0" stroke="#3C3C3C" stroke-width="1.2" stroke-linejoin="round"/>
<path fill-rule="evenodd" clip-rule="evenodd" d="M185 72.0339C185 72.0339 173.5 71.8525 169.657 74.2327C169.168 74.535 168.734 75.3407 168.398 76.0678C168.742 75.6305 169.061 75.2585 169.568 74.947C172.947 72.8731 185 72.8098 185 72.8098C185 72.8098 197.054 72.8731 200.434 74.947C200.95 75.2638 201.216 75.6488 201.563 76.0955C201.598 75.9952 201.024 74.5672 200.053 73.9885C196.416 72.0191 185.001 72.0339 185.001 72.0339H185Z" fill="white"/>
<path fill-rule="evenodd" clip-rule="evenodd" d="M372 33.6122C369.221 33.6122 366.968 34.772 366.968 36.2036L368.97 39.7023C347.786 58.2998 361.437 75.5205 361.437 75.5205H382.565C382.565 75.5205 391.871 64.0742 383.571 49.7673L379.626 56.1397C378.74 57.5697 377.034 58.1062 375.8 57.3423C374.567 56.5784 374.286 54.8119 375.171 53.3819L380.302 45.0962C378.84 43.3209 377.101 41.5188 375.032 39.7025L377.034 36.2038C377.034 34.7722 374.781 33.6124 372.002 33.6124L372 33.6122Z" fill="#F0F0F0" stroke="#3C3C3C" stroke-width="1.2" stroke-linejoin="round"/>
<path opacity="0.15" fill-rule="evenodd" clip-rule="evenodd" d="M372 33.6122C370.923 33.6122 369.926 33.7884 369.108 34.0854C374.835 35.2037 375.677 35.5631 372.487 39.8282L376.772 44.536C371.945 55.4132 374.655 55.0853 374.655 55.0853C374.655 55.0853 375.574 51.5893 380.082 44.8303C378.667 43.1413 376.997 41.4274 375.031 39.702L377.032 36.2039C377.033 34.7723 374.78 33.6126 372 33.6122V33.6122ZM383.571 49.7664L382.239 51.7632C387.171 62.8682 376.781 75.5192 376.781 75.5192H382.564C382.773 75.564 391.749 63.8454 383.571 49.766L383.571 49.7664Z" fill="black"/>
<path fill-rule="evenodd" clip-rule="evenodd" d="M358.99 67.8717C358.701 67.8303 354.471 54.9543 366.586 43.1204C363.547 45.6218 357.167 60.4955 358.99 67.8717Z" fill="white"/>
<path fill-rule="evenodd" clip-rule="evenodd" d="M369.747 39.4589L367.797 36.0345C367.797 36.0345 368.117 35.0818 370.148 34.6522C367.869 36.4344 368.844 36.8463 369.747 39.4589Z" fill="white"/>
<path fill-rule="evenodd" clip-rule="evenodd" d="M372 74.123C372 74.123 359.947 74.1863 356.568 76.2603C354.288 77.6598 353.75 81.0802 354.06 84.6076H389.94C390.251 81.0802 389.713 77.6597 387.433 76.2603C384.054 74.1865 372.001 74.123 372.001 74.123H372Z" fill="#F0F0F0" stroke="#3C3C3C" stroke-width="1.2" stroke-linejoin="round"/>
<path fill-rule="evenodd" clip-rule="evenodd" d="M372 75.0339C372 75.0339 360.5 74.8525 356.657 77.2327C356.168 77.535 355.734 78.3407 355.398 79.0678C355.742 78.6305 356.061 78.2585 356.568 77.947C359.947 75.8731 372 75.8098 372 75.8098C372 75.8098 384.054 75.8731 387.434 77.947C387.95 78.2638 388.216 78.6488 388.563 79.0955C388.598 78.9952 388.024 77.5672 387.053 76.9885C383.416 75.0191 372.001 75.0339 372.001 75.0339H372Z" fill="white"/>
<path fill-rule="evenodd" clip-rule="evenodd" d="M315.524 46.097V41.4194H321.385V35.5727H314.871V30.4336H309.108V35.5727H302.595V41.4194H308.455V46.097" fill="#F0F0F0"/>
<path d="M315.524 46.097V41.4194H321.385V35.5727H314.871V30.4336H309.108V35.5727H302.595V41.4194H308.455V46.097" stroke="#3C3C3C" stroke-width="1.2" stroke-linecap="round"/>
<path d="M316.361 44.7638H307.634C306.618 44.7638 305.795 45.5874 305.795 46.6034C305.795 47.6194 306.618 48.443 307.634 48.443H316.361C317.377 48.443 318.201 47.6194 318.201 46.6034C318.201 45.5874 317.377 44.7638 316.361 44.7638Z" fill="#F0F0F0" stroke="#3C3C3C" stroke-width="1.2" stroke-linejoin="round"/>
<path opacity="0.15" fill-rule="evenodd" clip-rule="evenodd" d="M313.869 44.7638C314.826 44.7638 315.596 45.5841 315.596 46.6032C315.596 47.6224 314.826 48.4426 313.869 48.4426H316.474C317.431 48.4426 318.201 47.6223 318.201 46.6032C318.201 45.5841 317.431 44.7638 316.474 44.7638H313.869Z" fill="black"/>
<path fill-rule="evenodd" clip-rule="evenodd" d="M307.553 45.5914C307.023 45.5914 306.596 46.0464 306.596 46.6112C306.596 47.176 307.023 47.6306 307.553 47.6306H308.706C308.176 47.6306 307.749 47.176 307.749 46.6112C307.749 46.0464 308.176 45.5914 308.706 45.5914H307.553Z" fill="white"/>
<path fill-rule="evenodd" clip-rule="evenodd" d="M323.398 74.8215C323.398 74.8215 333.662 57.2417 332.127 53.8124C330.591 50.3851 320.933 47.8758 311.999 47.8758C303.066 47.8758 293.409 50.3843 291.872 53.8124C290.337 57.2399 300.601 74.8215 300.601 74.8215H323.398Z" fill="#F0F0F0" stroke="#3C3C3C" stroke-width="1.2" stroke-linecap="round"/>
<path opacity="0.15" fill-rule="evenodd" clip-rule="evenodd" d="M311.995 47.8803C333.033 51.3409 328.591 60.2275 320.76 77.6371L323.436 75.3551C323.436 75.3551 333.663 57.2407 332.127 53.8127C330.087 50.0726 322.223 48.3225 311.994 47.8799L311.995 47.8803Z" fill="black"/>
<path fill-rule="evenodd" clip-rule="evenodd" d="M310.37 48.8294C305.216 48.586 291.07 51.2072 292.546 55.4514C293.625 60.3716 296.182 65.0135 298.497 69.3167C290.99 55.6745 290.653 51.135 310.369 48.829L310.37 48.8294Z" fill="white"/>
<path fill-rule="evenodd" clip-rule="evenodd" d="M309.876 31.2761L309.855 35.6483H310.575L310.597 31.2761H309.876ZM303.367 36.3843L303.357 40.6185H304.378L304.388 36.3843H303.367ZM309.192 40.6255L309.226 43.9069H309.912L309.878 40.6255H309.192Z" fill="white"/>
<path opacity="0.15" fill-rule="evenodd" clip-rule="evenodd" d="M313.569 30.4328L313.569 35.5722H314.872L314.872 30.4328H313.569ZM319.431 35.5725V42.1003H321.385V35.5725H319.431ZM313.571 41.4189L313.571 44.7087H315.525L315.525 41.4189H313.571Z" fill="black"/>
<path fill-rule="evenodd" clip-rule="evenodd" d="M312 74.1232C312 74.1232 299.947 74.1867 296.568 76.2606C294.288 77.66 293.75 81.0804 294.06 84.6079H329.94C330.25 81.0804 329.713 77.6599 327.432 76.2606C324.054 74.1867 312 74.1232 312 74.1232H312Z" fill="#F0F0F0" stroke="#3C3C3C" stroke-width="1.2" stroke-linejoin="round"/>
<path fill-rule="evenodd" clip-rule="evenodd" d="M312 75.0341C312 75.0341 300.5 74.8528 296.656 77.2329C296.168 77.5352 295.733 78.341 295.397 79.068C295.742 78.6307 296.06 78.2588 296.568 77.9473C299.947 75.8734 312 75.8101 312 75.8101C312 75.8101 324.054 75.8733 327.433 77.9473C327.95 78.2641 328.215 78.649 328.563 79.0958C328.597 78.9956 328.024 77.5675 327.053 76.9888C323.416 75.0194 312.001 75.0342 312.001 75.0342L312 75.0341Z" fill="white"/>
<path fill-rule="evenodd" clip-rule="evenodd" d="M123.253 52.3797C123.035 61.5764 107.733 59.2687 108.052 76.277L138.227 76.4333C135.463 67.9298 151.018 43.2221 122.479 33.8527V33.8526C122.479 33.8526 119.26 30.4193 114.604 30.1253L114.898 34.7911L108.881 40.8388C105.41 44.9909 97.3513 51.8983 98.6494 53.5255C102.762 60.5269 107.006 59.3752 107.006 59.3752C112.605 53.378 114.687 56.6172 123.254 52.3796L123.253 52.3797Z" fill="#F0F0F0" stroke="#3C3C3C" stroke-width="1.2" stroke-linejoin="round"/>
<path opacity="0.35" fill-rule="evenodd" clip-rule="evenodd" d="M115.502 41.3961C114.478 42.5324 114.591 42.8687 114.428 44.2345C115.491 44.397 116.417 44.551 117.396 44.3211C120.539 42.6552 117.495 39.8296 115.503 41.3957L115.502 41.3961Z" fill="black"/>
<path opacity="0.3" fill-rule="evenodd" clip-rule="evenodd" d="M102.133 51.2591C101.011 51.7974 100.815 52.5274 100.738 53.2066C101.7 53.7585 103.215 53.041 103.433 51.3169L102.133 51.2589L102.133 51.2591Z" fill="black"/>
<path fill-rule="evenodd" clip-rule="evenodd" d="M100.811 55.198C100.811 55.198 101.673 56.6994 99.3569 53.0319C100.227 50.4217 110.264 41.0468 115.775 35.167L115.533 31.0939C115.533 31.0939 116.944 33.3248 117.179 35.6716C111.385 41.4664 101.049 49.9712 100.252 53.1128C100.282 54.0022 100.569 54.4695 100.81 55.198H100.811Z" fill="white"/>
<path opacity="0.15" fill-rule="evenodd" clip-rule="evenodd" d="M107.503 59.2993C110.181 54.8948 118.58 55.0437 123.253 52.3793C123.679 52.5145 123.425 54.1873 123.57 54.0029C124.689 52.5637 127.432 49.6746 124.716 44.9288C125.404 52.7927 106.608 52.3092 103.741 58.5314C103.477 59.1063 106.621 59.5785 107.503 59.2994L107.503 59.2993Z" fill="black"/>
<path fill-rule="evenodd" clip-rule="evenodd" d="M124.056 53.3909C122.719 61.0644 111.457 61.4652 109.552 70.077C113.292 61.6214 123.758 62.5351 124.056 53.3909Z" fill="white"/>
<path opacity="0.15" fill-rule="evenodd" clip-rule="evenodd" d="M114.605 30.1254C114.605 30.1254 118.632 31.0996 121.079 35.3823C148.138 44.825 131.165 72.2591 128.719 76.3987L138.228 76.433C135.605 72.1521 150.831 42.6449 122.479 33.8524C120.135 32.4412 118.826 30.4083 114.604 30.125L114.605 30.1254Z" fill="black"/>
<path fill-rule="evenodd" clip-rule="evenodd" d="M123 70.1232C123 70.1232 110.947 70.1866 107.568 72.2606C105.288 73.66 104.75 77.0804 105.06 80.6079H140.94C141.25 77.0804 140.713 73.6599 138.432 72.2606C135.054 70.1867 123 70.1232 123 70.1232H123Z" fill="#F0F0F0" stroke="#3C3C3C" stroke-width="1.2" stroke-linejoin="round"/>
<path fill-rule="evenodd" clip-rule="evenodd" d="M123 71.034C123 71.034 111.5 70.8528 107.656 73.2329C107.168 73.5353 106.733 74.3409 106.397 75.068C106.742 74.6307 107.06 74.2588 107.568 73.9473C110.947 71.8734 123 71.8101 123 71.8101C123 71.8101 135.054 71.8734 138.433 73.9473C138.95 74.2641 139.215 74.649 139.563 75.0958C139.597 74.9955 139.024 73.5675 138.053 72.9888C134.416 71.0194 123.001 71.0342 123.001 71.0342L123 71.034Z" fill="white"/>
<path fill-rule="evenodd" clip-rule="evenodd" d="M438.253 56.3797C438.035 65.5764 422.733 63.2687 423.052 80.277L453.227 80.4333C450.463 71.9298 466.018 47.2221 437.479 37.8527V37.8526C437.479 37.8526 434.26 34.4193 429.604 34.1253L429.898 38.7911L423.881 44.8388C420.41 48.9909 412.351 55.8983 413.649 57.5255C417.762 64.5269 422.006 63.3752 422.006 63.3752C427.605 57.378 429.687 60.6172 438.254 56.3796L438.253 56.3797Z" fill="#F0F0F0" stroke="#3C3C3C" stroke-width="1.2" stroke-linejoin="round"/>
<path opacity="0.35" fill-rule="evenodd" clip-rule="evenodd" d="M430.502 45.3961C429.478 46.5324 429.591 46.8687 429.428 48.2345C430.491 48.397 431.417 48.551 432.396 48.3211C435.539 46.6552 432.495 43.8296 430.503 45.3957L430.502 45.3961Z" fill="black"/>
<path opacity="0.3" fill-rule="evenodd" clip-rule="evenodd" d="M417.133 55.2591C416.011 55.7974 415.815 56.5274 415.738 57.2066C416.7 57.7585 418.215 57.041 418.433 55.3169L417.133 55.2589L417.133 55.2591Z" fill="black"/>
<path fill-rule="evenodd" clip-rule="evenodd" d="M415.811 59.198C415.811 59.198 416.673 60.6994 414.357 57.0319C415.227 54.4217 425.264 45.0468 430.775 39.167L430.533 35.0939C430.533 35.0939 431.944 37.3248 432.179 39.6716C426.385 45.4664 416.049 53.9712 415.252 57.1128C415.282 58.0022 415.569 58.4695 415.81 59.198H415.811Z" fill="white"/>
<path opacity="0.15" fill-rule="evenodd" clip-rule="evenodd" d="M422.503 63.2993C425.181 58.8948 433.58 59.0437 438.253 56.3793C438.679 56.5145 438.425 58.1873 438.57 58.0029C439.689 56.5637 442.432 53.6746 439.716 48.9288C440.404 56.7927 421.608 56.3092 418.741 62.5314C418.477 63.1063 421.621 63.5785 422.503 63.2994L422.503 63.2993Z" fill="black"/>
<path fill-rule="evenodd" clip-rule="evenodd" d="M439.056 57.3909C437.719 65.0644 426.457 65.4652 424.552 74.077C428.292 65.6214 438.758 66.5351 439.056 57.3909Z" fill="white"/>
<path opacity="0.15" fill-rule="evenodd" clip-rule="evenodd" d="M429.605 34.1254C429.605 34.1254 433.632 35.0996 436.079 39.3823C463.138 48.825 446.165 76.2591 443.719 80.3987L453.228 80.433C450.605 76.1521 465.831 46.6449 437.479 37.8524C435.135 36.4412 433.826 34.4083 429.604 34.125L429.605 34.1254Z" fill="black"/>
<path fill-rule="evenodd" clip-rule="evenodd" d="M438 74.1232C438 74.1232 425.947 74.1866 422.568 76.2606C420.288 77.66 419.75 81.0804 420.06 84.6079H455.94C456.25 81.0804 455.713 77.6599 453.432 76.2606C450.054 74.1867 438 74.1232 438 74.1232H438Z" fill="#F0F0F0" stroke="#3C3C3C" stroke-width="1.2" stroke-linejoin="round"/>
<path fill-rule="evenodd" clip-rule="evenodd" d="M438 75.034C438 75.034 426.5 74.8528 422.656 77.2329C422.168 77.5353 421.733 78.3409 421.397 79.068C421.742 78.6307 422.06 78.2588 422.568 77.9473C425.947 75.8734 438 75.8101 438 75.8101C438 75.8101 450.054 75.8734 453.433 77.9473C453.95 78.2641 454.215 78.649 454.563 79.0958C454.597 78.9955 454.024 77.5675 453.053 76.9888C449.416 75.0194 438.001 75.0342 438.001 75.0342L438 75.034Z" fill="white"/>
<path fill-rule="evenodd" clip-rule="evenodd" d="M490.67 50.9465C497.146 49.9688 503.314 50.1829 509.33 50.9465H490.67ZM485.722 36.7539C484.324 48.3262 487.178 50.8475 490.669 50.9465L486.293 74.9164H513.705L509.329 50.9465C512.82 50.8482 515.675 48.3264 514.277 36.7539L509.515 36.0554L508.098 40.8637L503.952 40.7324L503.262 35.7771H496.735L496.047 40.7324L491.9 40.8637L490.483 36.0554L485.722 36.7539Z" fill="#F0F0F0" stroke="#3C3C3C" stroke-width="1.2"/>
<path opacity="0.15" fill-rule="evenodd" clip-rule="evenodd" d="M490.67 50.9465C499.683 50.9465 507.986 51.4846 510.402 72.8215L513.462 73.3309L509.329 51.6459C509.288 51.2397 501.293 49.2403 490.67 50.9474L490.67 50.9465Z" fill="black"/>
<path fill-rule="evenodd" clip-rule="evenodd" d="M486.506 37.4891L489.511 37.1116C486.985 37.5234 486.458 44.102 486.458 44.102C486.144 43.869 486.21 37.6297 486.506 37.4891L486.506 37.4891Z" fill="white"/>
<path fill-rule="evenodd" clip-rule="evenodd" d="M500.364 36.6069C498.189 36.6069 497.039 40.2336 497.039 40.2336L497.484 36.6316L500.364 36.6069Z" fill="white"/>
<path fill-rule="evenodd" clip-rule="evenodd" d="M510.126 36.9574L511.358 37.1135C510.323 37.7729 509.259 39.7382 509.259 39.7382L510.126 36.9574Z" fill="white"/>
<path fill-rule="evenodd" clip-rule="evenodd" d="M491.383 51.6725L494.842 51.2856C491.383 51.6725 488.389 68.5947 488.389 68.5947L491.383 51.6725Z" fill="white"/>
<path opacity="0.15" fill-rule="evenodd" clip-rule="evenodd" d="M511.897 36.4052C512.368 44.805 509.323 50.4012 501.282 50.3127L507.589 51.0562C517.519 51.4641 514.323 36.7923 514.278 36.754L511.897 36.4052Z" fill="black"/>
<path fill-rule="evenodd" clip-rule="evenodd" d="M500 72.1232C500 72.1232 487.947 72.1868 484.568 74.2606C482.288 75.66 481.75 79.0805 482.06 82.6079H517.94C518.25 79.0804 517.713 75.66 515.432 74.2606C512.054 72.1867 500 72.1232 500 72.1232H500Z" fill="#F0F0F0" stroke="#3C3C3C" stroke-width="1.2" stroke-linejoin="round"/>
<path fill-rule="evenodd" clip-rule="evenodd" d="M500 73.0327C500 73.0327 488.5 72.8514 484.656 75.2316C484.168 75.5339 483.733 76.3396 483.397 77.0666C483.742 76.6293 484.06 76.2575 484.568 75.9459C487.947 73.8721 500 73.8087 500 73.8087C500 73.8087 512.054 73.872 515.433 75.9459C515.95 76.2627 516.215 76.6476 516.563 77.0944C516.597 76.9943 516.024 75.566 515.053 74.9875C511.416 73.018 500.001 73.0328 500.001 73.0328L500 73.0327Z" fill="white"/>
<path fill-rule="evenodd" clip-rule="evenodd" d="M54.3839 125.424H63.6165H54.3839ZM51.0799 112.111C51.0799 114.396 52.0202 116.582 53.6747 118.165L48.8561 120.937L49.4249 125.424H55.1087C54.0601 130.122 51.4724 135.1 48.4266 136.799C45.3808 138.497 41.4314 140.886 42.0345 147.608L75.9664 147.608C76.5695 140.886 72.62 138.497 69.5743 136.799C66.5286 135.1 63.9408 130.122 62.8922 125.424H68.576L69.1448 120.937L64.3264 118.165C65.9808 116.582 66.9209 114.396 66.9209 112.111C66.9213 107.667 63.4519 104.307 59.0001 104.307C54.5483 104.307 51.079 107.667 51.0793 112.111L51.0799 112.111Z" fill="#F0F0F0" stroke="#3C3C3C" stroke-width="1.2" stroke-linejoin="round"/>
<path opacity="0.15" fill-rule="evenodd" clip-rule="evenodd" d="M58.9499 104.229C60.4955 103.623 71.5259 112.024 59.8041 118.449L65.7599 121.221L65.0178 125.346H68.5272L69.093 120.86L64.2745 118.088C65.929 116.505 66.8641 114.681 66.8678 112.395C66.2489 105.246 58.9498 104.229 58.9498 104.229L58.9499 104.229ZM55.0579 125.346C61.0012 135.819 67.5584 138.538 72.3155 138.499L69.5228 136.721C66.7838 134.755 63.277 130.31 62.8407 125.346L55.0579 125.346Z" fill="black"/>
<path fill-rule="evenodd" clip-rule="evenodd" d="M55.0175 118.321L52.8434 121.419L49.7334 121.401L55.0306 118.334L55.0175 118.321Z" fill="white"/>
<path fill-rule="evenodd" clip-rule="evenodd" d="M58.0852 105.192C54.7291 105.375 50.5216 109.381 52.2972 114.325L52.5596 115.174C52.1243 110.568 55.367 105.779 58.0851 105.192L58.0852 105.192Z" fill="white"/>
<path fill-rule="evenodd" clip-rule="evenodd" d="M49.5793 138.665C44.3206 141.708 42.8249 146.77 42.8249 146.77C42.8112 146.77 42.1021 141.259 48.0473 137.987C53.9925 134.715 54.4117 129.868 55.7828 126.248C54.9418 131.137 54.838 135.622 49.5793 138.665V138.665Z" fill="white"/>
<path fill-rule="evenodd" clip-rule="evenodd" d="M117.384 125.424H126.616H117.384ZM114.08 112.111C114.08 114.396 115.02 116.582 116.675 118.165L111.856 120.937L112.425 125.424H118.109C117.06 130.122 114.472 135.1 111.427 136.799C108.381 138.497 104.431 140.886 105.035 147.608L138.966 147.608C139.569 140.886 135.62 138.497 132.574 136.799C129.529 135.1 126.941 130.122 125.892 125.424H131.576L132.145 120.937L127.326 118.165C128.981 116.582 129.921 114.396 129.921 112.111C129.921 107.667 126.452 104.307 122 104.307C117.548 104.307 114.079 107.667 114.079 112.111L114.08 112.111Z" fill="#F0F0F0" stroke="#3C3C3C" stroke-width="1.2" stroke-linejoin="round"/>
<path opacity="0.15" fill-rule="evenodd" clip-rule="evenodd" d="M121.95 104.229C123.495 103.623 134.526 112.024 122.804 118.449L128.76 121.221L128.018 125.346H131.527L132.093 120.86L127.275 118.088C128.929 116.505 129.864 114.681 129.868 112.395C129.249 105.246 121.95 104.229 121.95 104.229L121.95 104.229ZM118.058 125.346C124.001 135.819 130.558 138.538 135.316 138.499L132.523 136.721C129.784 134.755 126.277 130.31 125.841 125.346L118.058 125.346Z" fill="black"/>
<path fill-rule="evenodd" clip-rule="evenodd" d="M118.017 118.321L115.843 121.419L112.733 121.401L118.031 118.334L118.017 118.321Z" fill="white"/>
<path fill-rule="evenodd" clip-rule="evenodd" d="M121.085 105.192C117.729 105.375 113.522 109.381 115.297 114.325L115.56 115.174C115.124 110.568 118.367 105.779 121.085 105.192L121.085 105.192Z" fill="white"/>
<path fill-rule="evenodd" clip-rule="evenodd" d="M112.579 138.665C107.321 141.708 105.825 146.77 105.825 146.77C105.811 146.77 105.102 141.259 111.047 137.987C116.992 134.715 117.412 129.868 118.783 126.248C117.942 131.137 117.838 135.622 112.579 138.665V138.665Z" fill="white"/>
<path fill-rule="evenodd" clip-rule="evenodd" d="M178.384 124.424H187.616H178.384ZM175.08 111.111C175.08 113.396 176.02 115.582 177.675 117.165L172.856 119.937L173.425 124.424H179.109C178.06 129.122 175.472 134.1 172.427 135.799C169.381 137.497 165.431 139.886 166.035 146.608L199.966 146.608C200.569 139.886 196.62 137.497 193.574 135.799C190.529 134.1 187.941 129.122 186.892 124.424H192.576L193.145 119.937L188.326 117.165C189.981 115.582 190.921 113.396 190.921 111.111C190.921 106.667 187.452 103.307 183 103.307C178.548 103.307 175.079 106.667 175.079 111.111L175.08 111.111Z" fill="#F0F0F0" stroke="#3C3C3C" stroke-width="1.2" stroke-linejoin="round"/>
<path opacity="0.15" fill-rule="evenodd" clip-rule="evenodd" d="M182.95 103.229C184.495 102.623 195.526 111.024 183.804 117.449L189.76 120.221L189.018 124.346H192.527L193.093 119.86L188.275 117.088C189.929 115.505 190.864 113.681 190.868 111.395C190.249 104.246 182.95 103.229 182.95 103.229L182.95 103.229ZM179.058 124.346C185.001 134.819 191.558 137.538 196.316 137.499L193.523 135.721C190.784 133.755 187.277 129.31 186.841 124.346L179.058 124.346Z" fill="black"/>
<path fill-rule="evenodd" clip-rule="evenodd" d="M179.017 117.321L176.843 120.419L173.733 120.401L179.031 117.334L179.017 117.321Z" fill="white"/>
<path fill-rule="evenodd" clip-rule="evenodd" d="M182.085 104.192C178.729 104.375 174.522 108.381 176.297 113.325L176.56 114.174C176.124 109.568 179.367 104.779 182.085 104.192L182.085 104.192Z" fill="white"/>
<path fill-rule="evenodd" clip-rule="evenodd" d="M173.579 137.665C168.321 140.708 166.825 145.77 166.825 145.77C166.811 145.77 166.102 140.259 172.047 136.987C177.992 133.715 178.412 128.868 179.783 125.248C178.942 130.137 178.838 134.622 173.579 137.665V137.665Z" fill="white"/>
<path fill-rule="evenodd" clip-rule="evenodd" d="M243.384 124.424H252.616H243.384ZM240.08 111.111C240.08 113.396 241.02 115.582 242.675 117.165L237.856 119.937L238.425 124.424H244.109C243.06 129.122 240.472 134.1 237.427 135.799C234.381 137.497 230.431 139.886 231.035 146.608L264.966 146.608C265.569 139.886 261.62 137.497 258.574 135.799C255.529 134.1 252.941 129.122 251.892 124.424H257.576L258.145 119.937L253.326 117.165C254.981 115.582 255.921 113.396 255.921 111.111C255.921 106.667 252.452 103.307 248 103.307C243.548 103.307 240.079 106.667 240.079 111.111L240.08 111.111Z" fill="#F0F0F0" stroke="#3C3C3C" stroke-width="1.2" stroke-linejoin="round"/>
<path opacity="0.15" fill-rule="evenodd" clip-rule="evenodd" d="M247.95 103.229C249.495 102.623 260.526 111.024 248.804 117.449L254.76 120.221L254.018 124.346H257.527L258.093 119.86L253.275 117.088C254.929 115.505 255.864 113.681 255.868 111.395C255.249 104.246 247.95 103.229 247.95 103.229L247.95 103.229ZM244.058 124.346C250.001 134.819 256.558 137.538 261.316 137.499L258.523 135.721C255.784 133.755 252.277 129.31 251.841 124.346L244.058 124.346Z" fill="black"/>
<path fill-rule="evenodd" clip-rule="evenodd" d="M244.017 117.321L241.843 120.419L238.733 120.401L244.031 117.334L244.017 117.321Z" fill="white"/>
<path fill-rule="evenodd" clip-rule="evenodd" d="M247.085 104.192C243.729 104.375 239.522 108.381 241.297 113.325L241.56 114.174C241.124 109.568 244.367 104.779 247.085 104.192L247.085 104.192Z" fill="white"/>
<path fill-rule="evenodd" clip-rule="evenodd" d="M238.579 137.665C233.321 140.708 231.825 145.77 231.825 145.77C231.811 145.77 231.102 140.259 237.047 136.987C242.992 133.715 243.412 128.868 244.783 125.248C243.942 130.137 243.838 134.622 238.579 137.665V137.665Z" fill="white"/>
<path fill-rule="evenodd" clip-rule="evenodd" d="M305.384 124.424H314.616H305.384ZM302.08 111.111C302.08 113.396 303.02 115.582 304.675 117.165L299.856 119.937L300.425 124.424H306.109C305.06 129.122 302.472 134.1 299.427 135.799C296.381 137.497 292.431 139.886 293.035 146.608L326.966 146.608C327.569 139.886 323.62 137.497 320.574 135.799C317.529 134.1 314.941 129.122 313.892 124.424H319.576L320.145 119.937L315.326 117.165C316.981 115.582 317.921 113.396 317.921 111.111C317.921 106.667 314.452 103.307 310 103.307C305.548 103.307 302.079 106.667 302.079 111.111L302.08 111.111Z" fill="#F0F0F0" stroke="#3C3C3C" stroke-width="1.2" stroke-linejoin="round"/>
<path opacity="0.15" fill-rule="evenodd" clip-rule="evenodd" d="M309.95 103.229C311.495 102.623 322.526 111.024 310.804 117.449L316.76 120.221L316.018 124.346H319.527L320.093 119.86L315.275 117.088C316.929 115.505 317.864 113.681 317.868 111.395C317.249 104.246 309.95 103.229 309.95 103.229L309.95 103.229ZM306.058 124.346C312.001 134.819 318.558 137.538 323.316 137.499L320.523 135.721C317.784 133.755 314.277 129.31 313.841 124.346L306.058 124.346Z" fill="black"/>
<path fill-rule="evenodd" clip-rule="evenodd" d="M306.017 117.321L303.843 120.419L300.733 120.401L306.031 117.334L306.017 117.321Z" fill="white"/>
<path fill-rule="evenodd" clip-rule="evenodd" d="M309.085 104.192C305.729 104.375 301.522 108.381 303.297 113.325L303.56 114.174C303.124 109.568 306.367 104.779 309.085 104.192L309.085 104.192Z" fill="white"/>
<path fill-rule="evenodd" clip-rule="evenodd" d="M300.579 137.665C295.321 140.708 293.825 145.77 293.825 145.77C293.811 145.77 293.102 140.259 299.047 136.987C304.992 133.715 305.412 128.868 306.783 125.248C305.942 130.137 305.838 134.622 300.579 137.665V137.665Z" fill="white"/>
<path fill-rule="evenodd" clip-rule="evenodd" d="M368.384 124.424H377.616H368.384ZM365.08 111.111C365.08 113.396 366.02 115.582 367.675 117.165L362.856 119.937L363.425 124.424H369.109C368.06 129.122 365.472 134.1 362.427 135.799C359.381 137.497 355.431 139.886 356.035 146.608L389.966 146.608C390.569 139.886 386.62 137.497 383.574 135.799C380.529 134.1 377.941 129.122 376.892 124.424H382.576L383.145 119.937L378.326 117.165C379.981 115.582 380.921 113.396 380.921 111.111C380.921 106.667 377.452 103.307 373 103.307C368.548 103.307 365.079 106.667 365.079 111.111L365.08 111.111Z" fill="#F0F0F0" stroke="#3C3C3C" stroke-width="1.2" stroke-linejoin="round"/>
<path opacity="0.15" fill-rule="evenodd" clip-rule="evenodd" d="M372.95 103.229C374.495 102.623 385.526 111.024 373.804 117.449L379.76 120.221L379.018 124.346H382.527L383.093 119.86L378.275 117.088C379.929 115.505 380.864 113.681 380.868 111.395C380.249 104.246 372.95 103.229 372.95 103.229L372.95 103.229ZM369.058 124.346C375.001 134.819 381.558 137.538 386.316 137.499L383.523 135.721C380.784 133.755 377.277 129.31 376.841 124.346L369.058 124.346Z" fill="black"/>
<path fill-rule="evenodd" clip-rule="evenodd" d="M369.017 117.321L366.843 120.419L363.733 120.401L369.031 117.334L369.017 117.321Z" fill="white"/>
<path fill-rule="evenodd" clip-rule="evenodd" d="M372.085 104.192C368.729 104.375 364.522 108.381 366.297 113.325L366.56 114.174C366.124 109.568 369.367 104.779 372.085 104.192L372.085 104.192Z" fill="white"/>
<path fill-rule="evenodd" clip-rule="evenodd" d="M363.579 137.665C358.321 140.708 356.825 145.77 356.825 145.77C356.811 145.77 356.102 140.259 362.047 136.987C367.992 133.715 368.412 128.868 369.783 125.248C368.942 130.137 368.838 134.622 363.579 137.665V137.665Z" fill="white"/>
<path fill-rule="evenodd" clip-rule="evenodd" d="M430.384 124.424H439.616H430.384ZM427.08 111.111C427.08 113.396 428.02 115.582 429.675 117.165L424.856 119.937L425.425 124.424H431.109C430.06 129.122 427.472 134.1 424.427 135.799C421.381 137.497 417.431 139.886 418.035 146.608L451.966 146.608C452.569 139.886 448.62 137.497 445.574 135.799C442.529 134.1 439.941 129.122 438.892 124.424H444.576L445.145 119.937L440.326 117.165C441.981 115.582 442.921 113.396 442.921 111.111C442.921 106.667 439.452 103.307 435 103.307C430.548 103.307 427.079 106.667 427.079 111.111L427.08 111.111Z" fill="#F0F0F0" stroke="#3C3C3C" stroke-width="1.2" stroke-linejoin="round"/>
<path opacity="0.15" fill-rule="evenodd" clip-rule="evenodd" d="M434.95 103.229C436.495 102.623 447.526 111.024 435.804 117.449L441.76 120.221L441.018 124.346H444.527L445.093 119.86L440.275 117.088C441.929 115.505 442.864 113.681 442.868 111.395C442.249 104.246 434.95 103.229 434.95 103.229L434.95 103.229ZM431.058 124.346C437.001 134.819 443.558 137.538 448.316 137.499L445.523 135.721C442.784 133.755 439.277 129.31 438.841 124.346L431.058 124.346Z" fill="black"/>
<path fill-rule="evenodd" clip-rule="evenodd" d="M431.017 117.321L428.843 120.419L425.733 120.401L431.031 117.334L431.017 117.321Z" fill="white"/>
<path fill-rule="evenodd" clip-rule="evenodd" d="M434.085 104.192C430.729 104.375 426.522 108.381 428.297 113.325L428.56 114.174C428.124 109.568 431.367 104.779 434.085 104.192L434.085 104.192Z" fill="white"/>
<path fill-rule="evenodd" clip-rule="evenodd" d="M425.579 137.665C420.321 140.708 418.825 145.77 418.825 145.77C418.811 145.77 418.102 140.259 424.047 136.987C429.992 133.715 430.412 128.868 431.783 125.248C430.942 130.137 430.838 134.622 425.579 137.665V137.665Z" fill="white"/>
<path fill-rule="evenodd" clip-rule="evenodd" d="M496.384 123.424H505.616H496.384ZM493.08 110.111C493.08 112.396 494.02 114.582 495.675 116.165L490.856 118.937L491.425 123.424H497.109C496.06 128.122 493.472 133.1 490.427 134.799C487.381 136.497 483.431 138.886 484.035 145.608L517.966 145.608C518.569 138.886 514.62 136.497 511.574 134.799C508.529 133.1 505.941 128.122 504.892 123.424H510.576L511.145 118.937L506.326 116.165C507.981 114.582 508.921 112.396 508.921 110.111C508.921 105.667 505.452 102.307 501 102.307C496.548 102.307 493.079 105.667 493.079 110.111L493.08 110.111Z" fill="#F0F0F0" stroke="#3C3C3C" stroke-width="1.2" stroke-linejoin="round"/>
<path opacity="0.15" fill-rule="evenodd" clip-rule="evenodd" d="M500.95 102.229C502.495 101.623 513.526 110.024 501.804 116.449L507.76 119.221L507.018 123.346H510.527L511.093 118.86L506.275 116.088C507.929 114.505 508.864 112.681 508.868 110.395C508.249 103.246 500.95 102.229 500.95 102.229L500.95 102.229ZM497.058 123.346C503.001 133.819 509.558 136.538 514.316 136.499L511.523 134.721C508.784 132.755 505.277 128.31 504.841 123.346L497.058 123.346Z" fill="black"/>
<path fill-rule="evenodd" clip-rule="evenodd" d="M497.017 116.321L494.843 119.419L491.733 119.401L497.031 116.334L497.017 116.321Z" fill="white"/>
<path fill-rule="evenodd" clip-rule="evenodd" d="M500.085 103.192C496.729 103.375 492.522 107.381 494.297 112.325L494.56 113.174C494.124 108.568 497.367 103.779 500.085 103.192L500.085 103.192Z" fill="white"/>
<path fill-rule="evenodd" clip-rule="evenodd" d="M491.579 136.665C486.321 139.708 484.825 144.77 484.825 144.77C484.811 144.77 484.102 139.259 490.047 135.987C495.992 132.715 496.412 127.868 497.783 124.248C496.942 129.137 496.838 133.622 491.579 136.665V136.665Z" fill="white"/>
<path fill-rule="evenodd" clip-rule="evenodd" d="M246.946 32.7237C245.785 32.7238 244.672 33.1353 243.851 33.8676C243.03 34.6 242.569 35.5932 242.569 36.6289C242.569 37.6646 243.03 38.6578 243.851 39.3902C244.672 40.1226 245.785 40.534 246.946 40.5341C247.521 40.5342 248.09 40.4332 248.621 40.2369C249.152 40.0407 249.634 39.753 250.041 39.3904C250.447 39.0278 250.77 38.5972 250.99 38.1234C251.21 37.6496 251.323 37.1418 251.323 36.6289C251.323 36.1161 251.21 35.6082 250.99 35.1344C250.77 34.6606 250.447 34.2301 250.041 33.8674C249.634 33.5048 249.152 33.2171 248.621 33.0209C248.09 32.8247 247.521 32.7237 246.946 32.7237V32.7237Z" fill="#F0F0F0" stroke="#3C3C3C" stroke-width="1.1999" stroke-linecap="round" stroke-linejoin="round"/>
<path fill-rule="evenodd" clip-rule="evenodd" d="M246.783 33.5666C246.287 33.2899 241.867 34.6304 243.899 38.286C243.589 36.2472 244.477 34.0579 246.783 33.5666Z" fill="white"/>
<path fill-rule="evenodd" clip-rule="evenodd" d="M246.946 40.5345C238.357 40.5345 234.28 48.3018 234.28 54.2071H259.707C259.708 48.3013 255.535 40.5345 246.946 40.5345H246.946Z" fill="#F0F0F0" stroke="#3C3C3C" stroke-width="1.2" stroke-linecap="round" stroke-linejoin="round"/>
<path fill-rule="evenodd" clip-rule="evenodd" d="M237.972 45.7697C239.348 43.8183 241.826 41.5194 247.002 41.3086C246.592 41.6744 240.681 42.81 237.972 45.7697Z" fill="white"/>
<path opacity="0.15" fill-rule="evenodd" clip-rule="evenodd" d="M246.784 32.6088C246.784 32.6088 246.844 32.9231 246.783 32.6088C250.057 34.099 249.489 37.6873 247.862 39.9309C257.569 44.9516 250.783 51.374 250.782 51.3728H254.347C256.673 53.0716 263.863 47.7548 249.285 39.9297C253.942 35.8174 249.412 32.5282 246.784 32.6082L246.784 32.6088Z" fill="black"/>
<path fill-rule="evenodd" clip-rule="evenodd" d="M247 46.097C244.398 46.097 243.9 49.5942 241.54 49.8711C239.136 50.1532 237.076 46.8201 234.609 47.5795C232.636 48.1867 233.582 51.0114 232.226 51.7707C230.376 52.8071 228.022 49.352 225.243 51.377C234.27 63.0311 235.916 67.7147 235.781 76.2181L258.218 76.218C258.083 67.7138 259.729 63.0307 268.756 51.3769C265.977 49.3519 263.623 52.8069 261.773 51.7706C260.417 51.0113 261.363 48.1866 259.39 47.5794C256.923 46.82 254.863 50.1531 252.459 49.871C250.099 49.5941 249.601 46.0969 246.999 46.0969L247 46.097Z" fill="#F0F0F0" stroke="#3C3C3C" stroke-width="1.1999" stroke-linecap="round" stroke-linejoin="round"/>
<path fill-rule="evenodd" clip-rule="evenodd" d="M227.062 51.5288C226.882 51.5157 226.624 51.6029 226.456 51.6406C230.524 57.0525 235.135 64.2297 235.827 68.031C233.971 61.5204 231.515 55.4089 227.722 51.568L227.062 51.5288Z" fill="white"/>
<path opacity="0.15" fill-rule="evenodd" clip-rule="evenodd" d="M266.766 50.7302C254.245 63.9341 253.666 74.4704 244.404 76.2194H258.232C258.096 67.715 259.743 63.0319 268.77 51.3783C268.77 51.3783 267.861 50.3806 266.766 50.7299L266.766 50.7302Z" fill="black"/>
<path fill-rule="evenodd" clip-rule="evenodd" d="M233.684 51.0074C233.951 50.8917 235.247 48.6211 236.298 48.4332C234.424 47.9771 234.161 48.3721 233.684 51.0074V51.0074Z" fill="white"/>
<path fill-rule="evenodd" clip-rule="evenodd" d="M243.715 49.5963C244.973 48.4782 245.871 46.0916 247.989 47.1605C246.936 46.8585 245.065 48.5337 243.715 49.5963V49.5963Z" fill="white"/>
<path fill-rule="evenodd" clip-rule="evenodd" d="M255.078 49.9356C255.355 50.0279 257.951 47.7677 258.857 48.3283C258.857 48.3283 256.968 49.8062 255.078 49.9356Z" fill="white"/>
<path fill-rule="evenodd" clip-rule="evenodd" d="M247 74.1232C247 74.1232 234.947 74.1866 231.568 76.2606C229.288 77.66 228.75 81.0806 229.06 84.6079L264.94 84.6077C265.25 81.0803 264.712 77.6599 262.432 76.2604C259.053 74.1866 247 74.1231 247 74.1231L247 74.1232Z" fill="#F0F0F0" stroke="#3C3C3C" stroke-width="1.2" stroke-linejoin="round"/>
<path fill-rule="evenodd" clip-rule="evenodd" d="M247 75.0341C247 75.0341 235.5 74.8527 231.656 77.2329C231.168 77.5352 230.733 78.3409 230.397 79.068C230.742 78.6307 231.06 78.2588 231.568 77.9473C234.947 75.8734 247 75.81 247 75.81C247 75.81 259.054 75.8733 262.433 77.9473C262.95 78.2641 263.215 78.649 263.563 79.0957C263.597 78.9954 263.024 77.5674 262.053 76.9887C258.416 75.0193 247.001 75.0341 247.001 75.0341H247Z" fill="white"/>
<path fill-rule="evenodd" clip-rule="evenodd" d="M49.6703 50.9465C56.1457 49.9688 62.3142 50.1829 68.3299 50.9465H49.6703ZM44.7217 36.7539C43.3235 48.3262 46.1781 50.8475 49.6693 50.9465L45.293 74.9164H72.7054L68.3291 50.9465C71.8202 50.8482 74.6748 48.3264 73.2767 36.7539L68.5152 36.0554L67.0984 40.8637L62.9515 40.7324L62.2622 35.7771H55.7351L55.047 40.7324L50.8996 40.8637L49.4828 36.0554L44.7217 36.7539Z" fill="#F0F0F0" stroke="#3C3C3C" stroke-width="1.2"/>
<path opacity="0.15" fill-rule="evenodd" clip-rule="evenodd" d="M49.6702 50.9465C58.6832 50.9465 66.986 51.4846 69.4016 72.8215L72.4623 73.3309L68.3292 51.6459C68.2877 51.2397 60.2929 49.2403 49.6697 50.9474L49.6702 50.9465Z" fill="black"/>
<path fill-rule="evenodd" clip-rule="evenodd" d="M45.5057 37.4891L48.5108 37.1116C45.9847 37.5234 45.4579 44.102 45.4579 44.102C45.1437 43.869 45.2096 37.6297 45.5056 37.4891L45.5057 37.4891Z" fill="white"/>
<path fill-rule="evenodd" clip-rule="evenodd" d="M59.3643 36.6069C57.1893 36.6069 56.0391 40.2336 56.0391 40.2336L56.4842 36.6316L59.3643 36.6069Z" fill="white"/>
<path fill-rule="evenodd" clip-rule="evenodd" d="M69.1257 36.9574L70.3585 37.1135C69.3226 37.7729 68.259 39.7382 68.259 39.7382L69.1257 36.9574Z" fill="white"/>
<path fill-rule="evenodd" clip-rule="evenodd" d="M50.3829 51.6725L53.8421 51.2856C50.3829 51.6725 47.3889 68.5947 47.3889 68.5947L50.3829 51.6725Z" fill="white"/>
<path opacity="0.15" fill-rule="evenodd" clip-rule="evenodd" d="M70.8973 36.4052C71.3683 44.805 68.3234 50.4012 60.2825 50.3127L66.5894 51.0562C76.5193 51.4641 73.3228 36.7923 73.278 36.754L70.8973 36.4052Z" fill="black"/>
<path fill-rule="evenodd" clip-rule="evenodd" d="M58.9999 72.1232C58.9999 72.1232 46.9471 72.1868 43.5678 74.2606C41.2877 75.66 40.7498 79.0805 41.06 82.6079H76.9403C77.2504 79.0804 76.7125 75.66 74.4324 74.2606C71.0536 72.1867 59.0003 72.1232 59.0003 72.1232H58.9999Z" fill="#F0F0F0" stroke="#3C3C3C" stroke-width="1.2" stroke-linejoin="round"/>
<path fill-rule="evenodd" clip-rule="evenodd" d="M58.9999 73.0327C58.9999 73.0327 47.4999 72.8514 43.6562 75.2316C43.168 75.5339 42.7332 76.3396 42.3975 77.0666C42.7417 76.6293 43.0603 76.2575 43.5678 75.9459C46.9466 73.8721 58.9999 73.8087 58.9999 73.8087C58.9999 73.8087 71.0539 73.872 74.4334 75.9459C74.9496 76.2627 75.2154 76.6476 75.5628 77.0944C75.5969 76.9943 75.0237 75.566 74.053 74.9875C70.4158 73.018 59.001 73.0328 59.001 73.0328L58.9999 73.0327Z" fill="white"/>
<defs>
<linearGradient id="paint0_linear_230_2" x1="0" y1="0" x2="552" y2="553" gradientUnits="userSpaceOnUse">
<stop stop-color="#E0C5C5"/>
<stop stop-color="#07738B"/>
<stop offset="0.0001" stop-color="#07738B"/>
<stop offset="1" stop-color="#38C5CE"/>
</linearGradient>
<linearGradient id="paint1_linear_230_2" x1="58.6879" y1="152.287" x2="58.6879" y2="215.136" gradientUnits="userSpaceOnUse">
<stop stop-color="#E0C5C5" stop-opacity="0"/>
<stop stop-color="#07738B"/>
<stop offset="0.0001" stop-color="#07738B" stop-opacity="0"/>
<stop offset="1" stop-color="#38C5CE" stop-opacity="0"/>
</linearGradient>
<linearGradient id="paint2_linear_230_2" x1="58.6879" y1="277.985" x2="58.6879" y2="340.834" gradientUnits="userSpaceOnUse">
<stop stop-color="#E0C5C5" stop-opacity="0"/>
<stop stop-color="#07738B"/>
<stop offset="0.0001" stop-color="#07738B" stop-opacity="0"/>
<stop offset="1" stop-color="#38C5CE" stop-opacity="0"/>
</linearGradient>
<linearGradient id="paint3_linear_230_2" x1="58.6879" y1="403.683" x2="58.6879" y2="466.532" gradientUnits="userSpaceOnUse">
<stop stop-color="#E0C5C5" stop-opacity="0"/>
<stop stop-color="#07738B"/>
<stop offset="0.0001" stop-color="#07738B" stop-opacity="0"/>
<stop offset="1" stop-color="#38C5CE" stop-opacity="0"/>
</linearGradient>
<linearGradient id="paint4_linear_230_2" x1="121.537" y1="89.4382" x2="121.537" y2="152.287" gradientUnits="userSpaceOnUse">
<stop stop-color="#E0C5C5" stop-opacity="0"/>
<stop stop-color="#07738B"/>
<stop offset="0.0001" stop-color="#07738B" stop-opacity="0"/>
<stop offset="1" stop-color="#38C5CE" stop-opacity="0"/>
</linearGradient>
<linearGradient id="paint5_linear_230_2" x1="58.9743" y1="26.5891" x2="58.9743" y2="89.438" gradientUnits="userSpaceOnUse">
<stop stop-color="#E0C5C5" stop-opacity="0"/>
<stop stop-color="#07738B"/>
<stop offset="0.0001" stop-color="#07738B" stop-opacity="0"/>
<stop offset="1" stop-color="#38C5CE" stop-opacity="0"/>
</linearGradient>
<linearGradient id="paint6_linear_230_2" x1="121.537" y1="215.136" x2="121.537" y2="277.985" gradientUnits="userSpaceOnUse">
<stop stop-color="#E0C5C5" stop-opacity="0"/>
<stop stop-color="#07738B"/>
<stop offset="0.0001" stop-color="#07738B" stop-opacity="0"/>
<stop offset="1" stop-color="#38C5CE" stop-opacity="0"/>
</linearGradient>
<linearGradient id="paint7_linear_230_2" x1="121.537" y1="340.834" x2="121.537" y2="403.683" gradientUnits="userSpaceOnUse">
<stop stop-color="#E0C5C5" stop-opacity="0"/>
<stop stop-color="#07738B"/>
<stop offset="0.0001" stop-color="#07738B" stop-opacity="0"/>
<stop offset="1" stop-color="#38C5CE" stop-opacity="0"/>
</linearGradient>
<linearGradient id="paint8_linear_230_2" x1="184.386" y1="152.287" x2="184.386" y2="215.136" gradientUnits="userSpaceOnUse">
<stop stop-color="#E0C5C5" stop-opacity="0"/>
<stop stop-color="#07738B"/>
<stop offset="0.0001" stop-color="#07738B" stop-opacity="0"/>
<stop offset="1" stop-color="#38C5CE" stop-opacity="0"/>
</linearGradient>
<linearGradient id="paint9_linear_230_2" x1="184.386" y1="277.985" x2="184.386" y2="340.834" gradientUnits="userSpaceOnUse">
<stop stop-color="#E0C5C5" stop-opacity="0"/>
<stop stop-color="#07738B"/>
<stop offset="0.0001" stop-color="#07738B" stop-opacity="0"/>
<stop offset="1" stop-color="#38C5CE" stop-opacity="0"/>
</linearGradient>
<linearGradient id="paint10_linear_230_2" x1="184.386" y1="403.683" x2="184.386" y2="466.532" gradientUnits="userSpaceOnUse">
<stop stop-color="#E0C5C5" stop-opacity="0"/>
<stop stop-color="#07738B"/>
<stop offset="0.0001" stop-color="#07738B" stop-opacity="0"/>
<stop offset="1" stop-color="#38C5CE" stop-opacity="0"/>
</linearGradient>
<linearGradient id="paint11_linear_230_2" x1="247.235" y1="89.4382" x2="247.235" y2="152.287" gradientUnits="userSpaceOnUse">
<stop stop-color="#E0C5C5" stop-opacity="0"/>
<stop stop-color="#07738B"/>
<stop offset="0.0001" stop-color="#07738B" stop-opacity="0"/>
<stop offset="1" stop-color="#38C5CE" stop-opacity="0"/>
</linearGradient>
<linearGradient id="paint12_linear_230_2" x1="184.673" y1="26.5891" x2="184.673" y2="89.438" gradientUnits="userSpaceOnUse">
<stop stop-color="#E0C5C5" stop-opacity="0"/>
<stop stop-color="#07738B"/>
<stop offset="0.0001" stop-color="#07738B" stop-opacity="0"/>
<stop offset="1" stop-color="#38C5CE" stop-opacity="0"/>
</linearGradient>
<linearGradient id="paint13_linear_230_2" x1="247.235" y1="215.136" x2="247.235" y2="277.985" gradientUnits="userSpaceOnUse">
<stop stop-color="#E0C5C5" stop-opacity="0"/>
<stop stop-color="#07738B"/>
<stop offset="0.0001" stop-color="#07738B" stop-opacity="0"/>
<stop offset="1" stop-color="#38C5CE" stop-opacity="0"/>
</linearGradient>
<linearGradient id="paint14_linear_230_2" x1="247.235" y1="340.834" x2="247.235" y2="403.683" gradientUnits="userSpaceOnUse">
<stop stop-color="#E0C5C5" stop-opacity="0"/>
<stop stop-color="#07738B"/>
<stop offset="0.0001" stop-color="#07738B" stop-opacity="0"/>
<stop offset="1" stop-color="#38C5CE" stop-opacity="0"/>
</linearGradient>
<linearGradient id="paint15_linear_230_2" x1="310.083" y1="152.287" x2="310.083" y2="215.136" gradientUnits="userSpaceOnUse">
<stop stop-color="#E0C5C5" stop-opacity="0"/>
<stop stop-color="#07738B"/>
<stop offset="0.0001" stop-color="#07738B" stop-opacity="0"/>
<stop offset="1" stop-color="#38C5CE" stop-opacity="0"/>
</linearGradient>
<linearGradient id="paint16_linear_230_2" x1="310.083" y1="277.985" x2="310.083" y2="340.834" gradientUnits="userSpaceOnUse">
<stop stop-color="#E0C5C5" stop-opacity="0"/>
<stop stop-color="#07738B"/>
<stop offset="0.0001" stop-color="#07738B" stop-opacity="0"/>
<stop offset="1" stop-color="#38C5CE" stop-opacity="0"/>
</linearGradient>
<linearGradient id="paint17_linear_230_2" x1="310.083" y1="403.683" x2="310.083" y2="466.532" gradientUnits="userSpaceOnUse">
<stop stop-color="#E0C5C5" stop-opacity="0"/>
<stop stop-color="#07738B"/>
<stop offset="0.0001" stop-color="#07738B" stop-opacity="0"/>
<stop offset="1" stop-color="#38C5CE" stop-opacity="0"/>
</linearGradient>
<linearGradient id="paint18_linear_230_2" x1="372.933" y1="89.4382" x2="372.933" y2="152.287" gradientUnits="userSpaceOnUse">
<stop stop-color="#E0C5C5" stop-opacity="0"/>
<stop stop-color="#07738B"/>
<stop offset="0.0001" stop-color="#07738B" stop-opacity="0"/>
<stop offset="1" stop-color="#38C5CE" stop-opacity="0"/>
</linearGradient>
<linearGradient id="paint19_linear_230_2" x1="499.779" y1="89.7251" x2="499.779" y2="152.574" gradientUnits="userSpaceOnUse">
<stop stop-color="#E0C5C5" stop-opacity="0"/>
<stop stop-color="#07738B"/>
<stop offset="0.0001" stop-color="#07738B" stop-opacity="0"/>
<stop offset="1" stop-color="#38C5CE" stop-opacity="0"/>
</linearGradient>
<linearGradient id="paint20_linear_230_2" x1="435.495" y1="26.5891" x2="435.495" y2="89.438" gradientUnits="userSpaceOnUse">
<stop stop-color="#E0C5C5" stop-opacity="0"/>
<stop stop-color="#07738B"/>
<stop offset="0.0001" stop-color="#07738B" stop-opacity="0"/>
<stop offset="1" stop-color="#38C5CE" stop-opacity="0"/>
</linearGradient>
<linearGradient id="paint21_linear_230_2" x1="435.495" y1="404.257" x2="435.495" y2="467.106" gradientUnits="userSpaceOnUse">
<stop stop-color="#E0C5C5" stop-opacity="0"/>
<stop stop-color="#07738B"/>
<stop offset="0.0001" stop-color="#07738B" stop-opacity="0"/>
<stop offset="1" stop-color="#38C5CE" stop-opacity="0"/>
</linearGradient>
<linearGradient id="paint22_linear_230_2" x1="310.371" y1="26.5891" x2="310.371" y2="89.438" gradientUnits="userSpaceOnUse">
<stop stop-color="#E0C5C5" stop-opacity="0"/>
<stop stop-color="#07738B"/>
<stop offset="0.0001" stop-color="#07738B" stop-opacity="0"/>
<stop offset="1" stop-color="#38C5CE" stop-opacity="0"/>
</linearGradient>
<linearGradient id="paint23_linear_230_2" x1="372.933" y1="215.136" x2="372.933" y2="277.985" gradientUnits="userSpaceOnUse">
<stop stop-color="#E0C5C5" stop-opacity="0"/>
<stop stop-color="#07738B"/>
<stop offset="0.0001" stop-color="#07738B" stop-opacity="0"/>
<stop offset="1" stop-color="#38C5CE" stop-opacity="0"/>
</linearGradient>
<linearGradient id="paint24_linear_230_2" x1="499.779" y1="215.423" x2="499.779" y2="278.272" gradientUnits="userSpaceOnUse">
<stop stop-color="#E0C5C5" stop-opacity="0"/>
<stop stop-color="#07738B"/>
<stop offset="0.0001" stop-color="#07738B" stop-opacity="0"/>
<stop offset="1" stop-color="#38C5CE" stop-opacity="0"/>
</linearGradient>
<linearGradient id="paint25_linear_230_2" x1="435.495" y1="152.287" x2="435.495" y2="215.136" gradientUnits="userSpaceOnUse">
<stop stop-color="#E0C5C5" stop-opacity="0"/>
<stop stop-color="#07738B"/>
<stop offset="0.0001" stop-color="#07738B" stop-opacity="0"/>
<stop offset="1" stop-color="#38C5CE" stop-opacity="0"/>
</linearGradient>
<linearGradient id="paint26_linear_230_2" x1="372.933" y1="340.834" x2="372.933" y2="403.683" gradientUnits="userSpaceOnUse">
<stop stop-color="#E0C5C5" stop-opacity="0"/>
<stop stop-color="#07738B"/>
<stop offset="0.0001" stop-color="#07738B" stop-opacity="0"/>
<stop offset="1" stop-color="#38C5CE" stop-opacity="0"/>
</linearGradient>
<linearGradient id="paint27_linear_230_2" x1="499.779" y1="341.121" x2="499.779" y2="403.97" gradientUnits="userSpaceOnUse">
<stop stop-color="#E0C5C5" stop-opacity="0"/>
<stop stop-color="#07738B"/>
<stop offset="0.0001" stop-color="#07738B" stop-opacity="0"/>
<stop offset="1" stop-color="#38C5CE" stop-opacity="0"/>
</linearGradient>
<linearGradient id="paint28_linear_230_2" x1="435.495" y1="277.985" x2="435.495" y2="340.834" gradientUnits="userSpaceOnUse">
<stop stop-color="#E0C5C5" stop-opacity="0"/>
<stop stop-color="#07738B"/>
<stop offset="0.0001" stop-color="#07738B" stop-opacity="0"/>
<stop offset="1" stop-color="#38C5CE" stop-opacity="0"/>
</linearGradient>
</defs>
</svg>
