<?xml version="1.0" standalone="no"?>
<!DOCTYPE svg PUBLIC "-//W3C//DTDSVG20010904//EN"  "http://www.w3.org/TR/2001/REC-SVG-20010904/DTD/svg10.dtd">
<svg
  version="1.0"
  xmlns="http://www.w3.org/2000/svg"
  width="908.000000pt"
  height="133.000000pt"
  viewBox="0 0 908.000000 133.000000"
  preserveAspectRatio="xMidYMid meet">

  <g transform="translate(0.000000,133.000000) scale(0.100000,-0.100000)" fill="#0B7188" stroke="none">
    <path d="M870 1106 l0 -75 -57 35 c-77 46 -140 65 -243 71 -302 18 -530 -191 -530 -487 0 -150 43 -252 147 -351 101 -97 199 -133
      358 -133 111 0 205 26 281 78 l39 26 3 -50 3 -50 165 0 164 0 0 219 c0 244 2 251 65 251 25 0 34 -5 39 -22 3 -13 6 -119 6
      -235 l0 -213 165 0 165 0 0 80 0 80 36 -40 c21 -23 68 -56 112 -78 76 -37 76 -37 203 -37 l126 0 73 37 73 38 51 -25 c150 -73
      377 -74 492 -4 31 19 32 19 76 -1 164 -72 398 -66 503 14 18 14 36 26 39 26 3 0 6 -21 6 -46 l0 -46 298 4 c273 4 302 6 362
      26 71 24 129 64 165 112 l23 32 28 -42 c33 -49 91 -91 157 -114 39 -13 93 -16 297 -16 l250 0 1 118 c1 72 4 106 8 87 22 -89
      87 -162 170 -190 57 -19 176 -19 231 0 52 18 50 18 50 0 0 -13 35 -15 253 -15 138 0 284 5 322 10 88 13 185 59 226 109 l32
      37 44 -44 c24 -24 74 -58 111 -75 64 -31 72 -32 192 -32 116 0 129 2 185 28 33 15 83 51 112 79 50 49 51 50 63 28 6 -12 27
      -39 47 -60 87 -97 298 -109 411 -24 l33 26 22 -20 c43 -39 90 -55 175 -60 96 -5 156 9 211 48 l38 28 73 -37 c73 -36 75 -36
      199 -36 117 0 130 2 186 28 33 15 75 42 93 60 l32 31 0 -62 0 -62 165 0 165 0 0 206 c0 125 4 213 11 225 17 32 49 38 122 25
      l67 -13 0 175 0 175 -92 -7 c-50 -3 -169 -6 -265 -6 l-173 0 0 -80 0 -80 -41 45 c-128 139 -381 158 -535 40 -18 -14 -35 -25
      -38 -25 -3 0 -6 20 -6 45 l0 45 -75 0 -75 0 0 70 0 70 -165 0 -164 0 -3 -67 -3 -68 -57 -3 -58 -3 0 71 0 70 -165 0 -164 0 -3
      -67 -3 -68 -47 -3 c-46 -3 -48 -5 -48 -32 l0 -29 -64 30 c-163 76 -364 44 -473 -74 l-41 -44 -4 61 c-12 139 -109 236 -268
      266 -29 5 -167 10 -306 10 l-253 0 -3 -92 -3 -93 -62 -3 -63 -3 0 71 0 70 -165 0 -165 0 0 -65 0 -65 -165 0 -165 0 0 -207 c0
      -239 -5 -258 -60 -258 l-35 0 -3 233 -2 232 -168 1 -167 0 -30 42 c-17 23 -52 56 -78 74 -79 53 -150 63 -446 63 l-261 0 0
      -115 c0 -63 -1 -115 -3 -115 -1 0 -28 9 -58 20 -137 47 -296 43 -407 -11 l-62 -30 -53 24 c-61 29 -85 35 -178 46 -139 18
      -289 -26 -357 -103 l-30 -34 -33 34 c-19 20 -61 48 -94 64 -167 81 -363 46 -484 -86 -28 -31 -51 -61 -51 -67 0 -7 -13 11 -30
      39 -60 106 -158 156 -302 156 l-88 0 0 114 0 114 -165 0 -165 0 0 -74z m240 -165 l0 -140 46 26 c49 27 144 41 207 29 51 -10
      120 -60 147 -108 24 -41 25 -51 28 -261 l3 -217 -70 0 -71 0 0 180 c0 199 -8 235 -56 266 -38 25 -120 24 -164 -2 -62 -35 -70
      -66 -70 -266 l0 -178 -75 0 -75 0 0 405 0 405 75 0 75 0 0 -139z m-415 78 c62 -23 139 -77 142 -99 1 -8 -19 -33 -43 -54 l-45
      -39 -27 26 c-43 41 -99 60 -177 60 -149 -1 -251 -93 -262 -238 -13 -155 82 -270 232 -283 86 -6 125 3 186 43 28 19 53 35 55
      35 11 0 84 -74 84 -86 0 -23 -91 -83 -159 -104 -85 -27 -207 -27 -287 0 -171 58 -274 216 -261 401 6 97 38 169 103 239 53 56
      145 106 220 120 70 13 174 3 239 -21z m3269 11 c127 -21 196 -80 204 -175 6 -68 -10 -114 -55 -159 -21 -21 -30 -36 -22 -36
      28 0 87 -60 104 -105 40 -104 0 -204 -101 -255 -48 -24 -55 -25 -306 -28 l-258 -3 0 385 0 386 188 0 c103 0 213 -4 246 -10z
      m2087 -9 c46 -14 97 -49 121 -82 50 -67 41 -173 -19 -237 -20 -21 -30 -38 -23 -40 22 -8 81 -65 96 -93 8 -15 14 -55 14 -89 0
      -70 -15 -105 -64 -148 -62 -54 -111 -62 -378 -62 l-238 0 0 378 c0 208 3 382 8 386 11 12 442 0 483 -13z m-801 -106 l0 -65
      75 0 75 0 0 -55 0 -55 -75 0 -75 0 0 -158 c0 -192 6 -206 79 -200 25 3 53 8 61 11 12 6 20 -4 33 -40 18 -47 18 -48 -3 -65
      -47 -38 -178 -35 -241 6 -63 42 -73 77 -77 274 l-4 172 -44 0 -44 0 0 55 0 55 45 0 45 0 0 65 0 65 75 0 75 0 0 -65z m1970 0
      l0 -65 75 0 75 0 0 -55 0 -55 -75 0 -75 0 0 -162 c0 -136 3 -164 17 -180 18 -20 82 -25 114 -8 17 10 22 5 40 -37 l20 -48 -21
      -17 c-48 -39 -177 -36 -239 5 -65 43 -75 77 -79 275 l-4 172 -44 0 -44 0 0 55 0 55 45 0 45 0 0 65 0 65 75 0 75 0 0 -65z
      m440 0 l0 -65 80 0 80 0 0 -55 0 -54 -77 -3 -78 -3 0 -156 c0 -142 2 -159 20 -179 16 -18 28 -21 65 -18 25 3 51 6 58 9 9 2
      21 -14 33 -43 l19 -48 -25 -16 c-14 -9 -54 -19 -90 -22 -111 -8 -190 37 -215 126 -5 20 -10 108 -10 195 l0 157 -45 0 -45 0 0
      55 0 55 45 0 45 0 0 65 0 65 70 0 70 0 0 -65z m-5587 -69 c56 -20 112 -62 141 -106 32 -48 58 -139 54 -187 l-3 -38 -227 -3
      c-126 -1 -228 -6 -228 -10 0 -19 43 -74 72 -91 67 -41 169 -39 235 6 l38 25 37 -43 c35 -40 36 -44 21 -61 -9 -10 -41 -30 -72
      -46 -49 -24 -68 -27 -151 -27 -81 0 -103 4 -150 26 -113 53 -170 143 -170 269 1 140 70 240 199 286 47 17 156 17 204 0z m700
      -14 c26 -11 47 -24 47 -27 0 -3 -11 -28 -25 -55 l-25 -49 -45 20 c-80 35 -223 24 -240 -18 -9 -26 5 -53 33 -64 15 -6 63 -17
      107 -25 155 -30 215 -76 215 -165 0 -63 -20 -101 -71 -139 -51 -37 -132 -54 -229 -48 -69 5 -182 36 -203 57 -9 9 37 111 51
      111 4 0 12 -4 17 -9 20 -19 121 -41 185 -41 74 0 110 18 110 54 0 35 -18 45 -129 66 -55 10 -117 27 -136 36 -83 39 -115 127
      -75 208 22 46 61 77 129 103 55 21 223 12 284 -15z m560 3 c26 -9 47 -21 47 -26 0 -5 -11 -32 -25 -59 l-25 -49 -46 20 c-53
      24 -166 29 -202 10 -27 -15 -44 -45 -36 -66 9 -21 40 -33 139 -51 157 -30 215 -76 215 -168 0 -126 -115 -196 -300 -183 -76 5
      -160 27 -193 52 -17 13 -17 15 8 65 21 41 30 50 43 44 107 -46 236 -59 280 -28 25 17 29 56 8 73 -7 6 -59 20 -115 31 -155 29
      -204 60 -222 140 -21 92 38 174 150 211 41 14 220 3 274 -16z m1147 -155 c0 -253 18 -290 144 -290 44 0 60 5 85 26 53 44 56
      56 61 254 l5 185 68 3 67 3 0 -296 0 -295 -65 0 -65 0 0 30 0 29 -50 -31 c-70 -43 -172 -51 -248 -18 -64 28 -116 85 -131 145
      -6 25 -11 130 -11 239 l0 196 70 0 70 0 0 -180z m2301 143 c94 -52 155 -162 147 -265 l-3 -43 -228 -3 -227 -2 20 -41 c12 -22
      35 -48 52 -59 67 -40 169 -37 234 7 l38 25 39 -42 c38 -41 39 -42 20 -62 -10 -11 -40 -32 -68 -46 -44 -23 -62 -26 -150 -27
      -117 0 -165 17 -239 85 -150 138 -96 413 97 489 80 32 195 25 268 -16z m1570 0 c94 -52 155 -162 147 -265 l-3 -43 -228 -5
      -227 -5 18 -35 c49 -92 193 -118 288 -53 l38 25 39 -42 39 -41 -22 -24 c-44 -47 -116 -70 -220 -70 -110 0 -169 21 -233 83
      -56 54 -79 105 -85 187 -5 83 7 134 47 197 56 88 145 130 267 125 68 -3 89 -8 135 -34z m409 -4 l0 -41 35 30 c37 33 89 52
      143 52 l32 0 0 -65 0 -65 -38 0 c-55 0 -123 -38 -144 -80 -15 -29 -18 -63 -18 -207 l0 -173 -75 0 -75 0 0 288 c0 159 3 292 7
      295 3 4 35 7 70 7 l63 0 0 -41z m-8135 -15 c19 -9 54 -37 79 -64 l45 -48 23 25 c13 14 40 38 61 55 l37 30 0 -153 0 -153 -60
      59 -61 60 -50 -53 c-79 -84 -151 -102 -235 -61 -77 37 -112 130 -80 213 18 47 35 66 81 90 39 20 118 20 160 0z m3625 -119 c0
      -8 -4 -15 -10 -15 -5 0 -10 7 -10 15 0 8 5 15 10 15 6 0 10 -7 10 -15z m-820 -37 c0 -23 -3 -29 -11 -21 -6 6 -8 20 -4 32 9
      30 15 26 15 -11z m2040 -68 c0 -33 -4 -60 -10 -60 -5 0 -10 7 -10 15 0 22 -10 19 -59 -20 -24 -19 -45 -35 -47 -35 -2 0 -4 36
      -4 80 l0 80 65 0 65 0 0 -60z m1960 3 c0 -40 -3 -53 -10 -43 -7 12 -15 9 -47 -16 -65 -52 -63 -53 -63 35 l0 81 60 0 60 0 0
      -57z m376 -9 c-3 -53 -7 -68 -25 -80 -21 -15 -21 -15 -21 65 0 79 1 81 24 81 24 0 24 -2 22 -66z"/>
    <path d="M3680 815 l0 -105 94 0 c183 0 246 27 246 105 0 80 -54 105 -227 105 l-113 0 0 -105z m208 -2 c-21 -2 -57 -2 -80 0 -24 2
      -7 4 37 4 44 0 63 -2 43 -4z"/>
    <path d="M3680 489 l0 -111 148 4 c193 6 232 25 232 112 0 46 -34 84 -85 96 -22 5 -97 10 -167 10 l-128 0 0 -111z m285 1 c-3 -6
      -48 -10 -101 -10 -56 0 -94 4 -94 10 0 6 40 10 101 10 64 0 98 -4 94 -10z"/>
    <path d="M5710 815 l0 -108 134 5 c105 4 140 9 165 24 40 24 58 73 41 115 -21 51 -59 63 -207 67 l-133 4 0 -107z m208 -2 c-21 -2
      -57 -2 -80 0 -24 2 -7 4 37 4 44 0 63 -2 43 -4z"/>
    <path d="M5710 491 l0 -111 114 0 c136 0 212 13 242 41 46 43 36 127 -20 156 -24 13 -65 18 -183 21 l-153 4 0 -111z m285 -1 c-3 -6
      -48 -10 -101 -10 -56 0 -94 4 -94 10 0 6 40 10 101 10 64 0 98 -4 94 -10z"/>
    <path d="M1917 736 c-21 -8 -47 -22 -59 -33 -21 -19 -48 -65 -48 -83 0 -6 55 -10 160 -10 177 0 178 1 138 60 -46 67 -118 92 -191
      66z"/>
    <path d="M6577 736 c-48 -18 -76 -42 -93 -83 -8 -18 -14 -35 -14 -38 0 -3 72 -5 160 -5 110 0 160 3 160 11 0 6 -7 26 -16 45 -30 63
      -123 97 -197 70z"/>
    <path d="M8147 736 c-48 -18 -76 -42 -93 -83 -8 -18 -14 -35 -14 -38 0 -3 72 -5 161 -5 l161 0 -7 28 c-6 27 -47 77 -75 92 -31 16
    -96 19 -133 6z"/>
  </g>
</svg>
