<?xml version="1.0" standalone="no"?>
<!DOCTYPE svg PUBLIC "-//W3C//DTDSVG20010904//EN"  "http://www.w3.org/TR/2001/REC-SVG-20010904/DTD/svg10.dtd">
<svg
  version="1.0"
  xmlns="http://www.w3.org/2000/svg"
  width="885.000000pt"
  height="133.000000pt"
  viewBox="0 0 885.000000 133.000000"
  preserveAspectRatio="xMidYMid meet">

  <g transform="translate(0.000000,133.000000) scale(0.100000,-0.100000)" fill="#0B7188" stroke="none">
    <path d="M405 1126 c-233 -58 -375 -238 -375 -477 0 -240 151 -424 390 -475 130 -28 291 0 390 66 l45 30 3 -50 3 -50 165 0 164 0 0
      208 c0 172 3 211 16 230 8 12 23 22 33 22 16 0 19 -12 23 -90 7 -116 43 -195 123 -269 83 -75 143 -95 290 -96 135 0 185 13
      260 70 l43 33 22 -23 c11 -12 44 -35 73 -51 l52 -29 263 -3 262 -3 1 103 0 103 25 -50 c52 -105 117 -146 242 -153 96 -5 156
      8 211 48 l38 28 73 -36 c68 -34 81 -37 181 -40 120 -5 180 9 259 59 40 25 120 108 120 124 0 4 -9 20 -21 36 l-20 29 24 0 c24
      0 25 3 29 73 2 39 0 97 -3 128 -14 121 -95 238 -204 293 -132 65 -316 48 -432 -40 l-33 -25 0 45 0 45 -77 3 -78 3 -3 68 -3
      67 -164 0 -164 0 -3 -67 -3 -68 -47 -3 c-48 -3 -48 -3 -48 -38 l0 -35 -26 20 c-54 42 -132 63 -239 63 -118 0 -206 -24 -285
      -77 l-51 -34 -56 40 c-72 50 -147 72 -243 72 -80 -1 -167 -25 -219 -62 -16 -12 -32 -21 -35 -21 -3 0 -6 20 -6 44 l0 45 -225
      -6 -224 -6 -55 54 c-116 117 -311 167 -481 125z m206 -86 c66 -12 166 -60 199 -95 l24 -25 -43 -44 -44 -44 -48 33 c-82 56
      -185 67 -275 29 -199 -83 -205 -389 -10 -480 70 -33 171 -33 241 0 28 12 56 30 64 39 7 10 17 17 22 17 15 0 89 -72 89 -86 0
      -8 -21 -30 -47 -49 -138 -101 -373 -100 -508 3 -194 147 -206 442 -25 606 51 46 109 75 184 91 76 17 109 18 177 5z m2279
      -125 l0 -65 75 0 75 0 0 -55 0 -55 -75 0 -75 0 0 -158 c0 -185 6 -202 71 -202 22 0 49 5 60 10 17 10 22 5 40 -37 l20 -48 -21
      -17 c-47 -38 -178 -35 -241 6 -63 42 -73 77 -77 274 l-4 172 -44 0 -44 0 0 55 0 55 45 0 45 0 0 65 0 65 75 0 75 0 0 -65z
      m-1802 -98 l3 -38 34 30 c37 32 90 51 143 51 l32 0 0 -65 0 -65 -38 0 c-55 0 -123 -38 -144 -80 -15 -29 -18 -63 -18 -207 l0
      -173 -75 0 -75 0 0 288 c0 159 3 292 7 296 4 4 34 6 68 4 l60 -3 3 -38z m672 27 c39 -12 66 -29 105 -68 61 -61 88 -127 83
      -208 l-3 -53 -222 -3 c-251 -3 -250 -2 -188 -70 67 -74 187 -83 278 -19 16 11 32 16 35 11 4 -5 20 -24 36 -41 l30 -33 -29
      -30 c-45 -47 -105 -65 -215 -65 -77 1 -104 5 -140 23 -71 35 -116 78 -146 138 -23 46 -28 70 -28 133 0 99 28 165 96 226 80
      72 193 93 308 59z m653 -4 c61 -23 98 -58 123 -115 15 -33 19 -78 22 -247 l4 -208 -71 0 c-70 0 -71 1 -71 26 l0 25 -27 -19
      c-56 -40 -158 -53 -238 -31 -54 15 -121 83 -130 133 -16 85 42 173 129 195 25 6 92 11 150 11 106 0 106 0 106 25 0 68 -51
      105 -147 105 -41 0 -74 -8 -111 -25 -30 -14 -56 -25 -58 -25 -2 0 -15 23 -29 50 l-25 50 32 20 c18 11 35 20 38 20 3 1 28 7
      55 15 76 21 184 19 248 -5z m1156 -15 c96 -52 143 -130 145 -240 l1 -70 -222 -3 c-145 -1 -223 -6 -223 -13 0 -5 7 -23 15 -39
      22 -43 77 -72 148 -77 55 -4 69 -2 119 25 l57 30 36 -40 37 -40 -22 -23 c-47 -50 -107 -69 -215 -70 -90 0 -106 3 -157 28
      -184 90 -226 322 -85 473 68 72 129 96 237 91 60 -3 87 -9 129 -32z m-2954 -21 c19 -9 54 -37 78 -63 l44 -47 62 54 61 54 0
      -153 0 -153 -60 59 -61 60 -50 -53 c-74 -79 -145 -101 -222 -68 -129 53 -139 248 -15 309 42 21 121 21 163 1z m2415 -228 c0
      -57 -3 -65 -25 -80 l-25 -16 0 80 c0 79 0 80 25 80 24 0 25 -2 25 -64z"/>
    <path d="M1609 741 c-41 -13 -79 -42 -95 -72 -30 -59 -29 -59 147 -59 l160 0
      -7 23 c-25 81 -125 134 -205 108z"/>
    <path d="M2223 512 c-35 -11 -63 -40 -63 -66 0 -84 147 -109 223 -38 21 20 27
      35 27 69 l0 43 -82 -1 c-46 -1 -93 -4 -105 -7z"/>
    <path d="M3367 736 c-49 -18 -76 -42 -93 -83 -8 -18 -14 -35 -14 -38 0 -3 72 -5 160 -5 178 0 181 1 140 67 -35 58 -123 85 -193
      59z"/>
    <path d="M4123 657 c-117 -260 -213 -476 -213 -480 0 -4 80 -7 178 -7 l178 0 38 90 38 90 123 0 c86 0 125 -4 132 -13 5 -6 24 -47
      43 -90 l33 -77 179 0 c178 0 179 0 173 21 -5 16 -3 20 6 16 72 -30 129 -39 218 -35 110 4 180 30 248 92 40 35 40 36 58 16 31
      -34 108 -78 169 -95 91 -27 234 -18 308 19 31 16 71 43 89 62 l32 33 42 -34 c23 -19 68 -47 101 -62 54 -26 69 -28 179 -28
      116 0 123 1 187 33 46 23 84 51 121 92 l54 60 31 -49 c17 -27 49 -64 73 -80 80 -59 102 -61 546 -61 l403 0 0 218 c0 199 2
      220 18 235 29 26 71 22 82 -9 6 -14 10 -120 10 -235 l0 -209 165 0 165 0 1 98 c0 77 3 91 11 69 5 -15 14 -27 19 -27 5 0 9 -7
      9 -17 0 -26 74 -89 126 -107 62 -21 192 -21 242 -1 20 9 54 28 75 42 30 21 37 32 37 58 0 31 -86 265 -97 265 -3 0 -25 -16
      -49 -35 -23 -19 -45 -35 -48 -35 -3 0 -6 36 -6 80 l0 80 80 0 80 0 0 150 0 149 -77 3 -78 3 -3 68 -3 67 -164 0 -165 0 0 -70
      0 -70 -45 0 c-43 0 -45 -1 -45 -30 0 -16 -2 -30 -5 -30 -3 0 -29 13 -58 30 -28 16 -77 33 -107 37 -30 4 -227 7 -437 5 l-383
      -3 0 -219 c0 -185 -2 -221 -16 -234 -21 -22 -61 -20 -74 3 -6 12 -10 106 -10 235 l0 216 -165 0 -165 0 0 -76 0 -77 -50 47
      c-91 85 -221 125 -350 106 -72 -10 -192 -65 -229 -104 l-23 -25 -36 36 c-128 129 -406 128 -549 -1 l-40 -35 -29 30 c-72 76
      -221 118 -345 98 -157 -25 -271 -115 -319 -251 l-19 -53 -30 65 c-16 36 -66 144 -109 240 l-79 175 -134 3 -134 2 -212 -473z
      m582 14 c91 -200 167 -373 171 -383 5 -18 0 -19 -71 -16 l-76 3 -36 83 -35 82 -192 0 -191 0 -34 -85 -34 -85 -78 0 -77 0 155
      343 c85 188 163 361 173 385 l19 43 71 -3 71 -3 164 -364z m3855 244 l0 -64 78 -3 77 -3 3 -52 3 -53 -80 0 -81 0 0 -160 c0
      -149 1 -161 21 -181 16 -16 30 -20 62 -17 23 3 49 8 58 12 12 5 20 -3 32 -36 10 -24 17 -48 17 -54 0 -31 -141 -55 -204 -34
      -48 16 -95 56 -112 97 -10 23 -14 81 -14 203 l0 170 -50 0 -50 0 0 55 0 55 50 0 50 0 0 65 0 65 70 0 70 0 0 -65z m-3194 -83
      c46 -24 120 -100 107 -112 -4 -4 -29 -19 -54 -34 l-45 -26 -29 30 c-36 37 -85 54 -142 47 -143 -16 -200 -202 -94 -308 63 -64
      162 -63 235 1 l32 29 52 -30 c60 -34 60 -42 -7 -102 -53 -48 -132 -71 -220 -65 -117 9 -209 66 -259 162 -22 43 -26 64 -26
      136 -1 70 3 93 23 130 62 120 159 172 306 167 57 -3 92 -10 121 -25z m593 13 c56 -17 147 -93 139 -117 -3 -7 -26 -25 -52 -41
      l-48 -28 -16 22 c-19 28 -88 59 -132 59 -55 0 -121 -38 -147 -85 -44 -78 -19 -203 49 -245 72 -43 162 -35 218 21 l29 30 50
      -28 c28 -16 51 -32 51 -37 0 -22 -52 -74 -101 -101 -49 -27 -63 -30 -144 -30 -73 0 -100 5 -140 23 -112 52 -175 148 -175 270
      0 139 76 248 202 287 59 19 153 18 217 0z m664 -19 c106 -51 161 -142 160 -266 0 -89 -26 -153 -86 -213 -62 -62 -116 -82
      -222 -82 -104 0 -156 19 -223 80 -113 101 -122 294 -21 409 70 79 139 107 255 103 64 -3 93 -9 137 -31z m427 -166 c5 -203 10
      -225 52 -254 35 -25 128 -21 169 7 57 38 63 62 69 262 l5 180 65 0 65 0 3 -292 2 -293 -70 0 -70 0 0 31 0 30 -32 -24 c-18
      -13 -48 -29 -67 -36 -81 -27 -205 -3 -260 51 -64 62 -66 71 -69 316 l-3 223 68 -3 68 -3 5 -195z m738 163 l3 -32 36 25 c64
      43 163 56 248 33 53 -15 129 -91 144 -144 6 -23 11 -124 11 -237 l0 -198 -70 0 -70 0 0 180 c0 196 -8 235 -52 264 -44 29
      -108 30 -158 4 -75 -39 -83 -63 -88 -270 l-4 -178 -69 0 -69 0 0 288 c0 159 3 292 7 296 4 4 34 6 68 4 59 -3 60 -3 63 -35z
      m-2527 -183 c5 0 20 -18 35 -39 25 -38 25 -40 8 -68 -26 -41 -44 -53 -81 -53 -45 0 -73 30 -73 78 0 60 40 99 88 86 8 -2 18
      -4 23 -4z m645 -26 c41 -43 42 -57 8 -101 -21 -27 -32 -33 -63 -33 -109 0 -102 164 8 169 7 1 29 -15 47 -35z m-466 -54 c0
      -22 -8 -25 -30 -10 -13 9 -13 11 0 20 22 15 30 12 30 -10z m630 0 c0 -23 -22 -26 -39 -6 -9 11 -9 15 1 19 26 11 38 7 38
      -13z"/>
    <path d="M4400 728 c-36 -83 -66 -155 -68 -159 -2 -5 57 -9 132 -9 75 0 136 3 136 8 0 9 -121 295 -130 304 -3 4 -35 -60 -70 -144z"/>
    <path d="M6402 726 c-49 -23 -80 -62 -93 -119 -15 -71 1 -129 50 -178 69 -69 188 -60 249 19 24 32 27 44 27 113 0 84 -12 111 -68
    153 -34 25 -121 31 -165 12z m107 -91 c45 -23 55 -85 20 -129 -27 -35 -90 -37 -113 -4 -31 44 -16 121 27 138 31 12 34 12 66
    -5z"/>
  </g>
</svg>
