<?xml version="1.0" standalone="no"?>
<!DOCTYPE svg PUBLIC "-//W3C//DTDSVG20010904//EN"  "http://www.w3.org/TR/2001/REC-SVG-20010904/DTD/svg10.dtd">
<svg
  version="1.0"
  xmlns="http://www.w3.org/2000/svg"
  width="846.000000pt"
  height="137.000000pt"
  viewBox="0 0 846.000000 137.000000"
  preserveAspectRatio="xMidYMid meet">

  <g transform="translate(0.000000,137.000000) scale(0.100000,-0.100000)" fill="#0B7188" stroke="none">
    <path d="M1505 1211 c-77 -35 -115 -106 -101 -188 11 -64 18 -203 11 -203 -5 0 -30 21 -57 46 -160 150 -441 142 -590 -18 l-48 -50
      0 176 0 176 -305 0 -305 0 0 -155 0 -154 138 -3 137 -3 3 -145 c3 -172 0 -190 -32 -190 -25 0 -79 54 -114 113 -9 15 -19 27
      -23 27 -6 0 -166 -188 -197 -232 -11 -15 -8 -25 29 -73 76 -101 178 -149 319 -150 147 0 251 54 306 158 l28 55 32 -47 c38
      -56 84 -93 162 -129 52 -25 68 -27 177 -27 109 0 125 3 178 27 31 15 82 50 112 79 l55 52 0 -82 0 -81 320 0 320 0 0 213 c0
      241 4 257 64 257 22 0 36 -6 40 -16 3 -9 6 -114 6 -235 l0 -219 166 0 165 0 -3 267 -3 268 -28 60 c-34 72 -77 119 -137 149
      -71 36 -92 39 -343 37 l-238 -2 7 28 c3 15 8 34 10 41 2 7 -1 34 -8 59 -26 106 -149 161 -253 114z m139 -102 c33 -26 35 -75
      5 -113 -42 -53 -159 -21 -159 44 0 26 25 77 42 83 32 13 87 6 112 -14z m-1019 -349 c0 -335 -4 -360 -75 -424 -46 -41 -92 -56
      -181 -56 -84 0 -147 22 -201 69 l-42 38 43 51 44 51 20 -26 c24 -30 90 -62 130 -63 15 0 42 7 58 16 53 27 59 59 59 299 l0
      215 -135 0 -135 0 0 58 c0 32 3 62 7 66 4 3 97 5 207 4 l201 -3 0 -295z m599 86 c160 -78 210 -288 105 -442 -105 -155 -365
      -166 -494 -22 -99 110 -100 282 -4 392 70 79 139 107 255 103 65 -3 93 -9 138 -31z m426 -261 l0 -295 -70 0 -70 0 0 288 c0
      159 3 292 7 295 3 4 35 7 70 7 l63 0 0 -295z m308 258 l3 -31 51 31 c48 30 57 32 143 32 84 0 96 -2 141 -30 37 -23 56 -44 77
      -84 27 -54 27 -55 27 -263 l0 -208 -70 0 -70 0 0 189 c0 179 -1 190 -23 222 -56 84 -206 69 -250 -24 -14 -29 -17 -67 -17
      -211 l0 -176 -75 0 -75 0 0 288 c0 159 3 292 7 296 4 4 34 6 68 4 59 -3 60 -3 63 -35z"/>
    <path d="M994 742 c-50 -24 -80 -71 -90 -139 -5 -45 -3 -60 19 -105 29 -59 62 -84 126 -94 57 -9 123 17 159 64 24 32 27 44 27 113
      0 84 -12 111 -68 153 -38 28 -121 32 -173 8z m109 -83 c48 -22 61 -89 26 -133 -27 -35 -90 -37 -113 -4 -34 48 -16 123 34 141
      23 8 27 8 53 -4z"/>
    <path d="M3238 1083 l-3 -118 -52 -3 -53 -3 0 70 0 71 -165 0 -164 0 -3 -67 -3 -68 -47 -3 -48 -3 0 -150 0 -149 49 0 49 0 4 -142
      c3 -122 7 -149 25 -183 27 -51 67 -92 118 -118 50 -26 194 -36 251 -17 28 10 39 10 42 1 3 -8 53 -11 168 -11 l164 0 0 213 c0
      240 4 257 64 257 26 0 35 -5 40 -22 3 -13 6 -119 6 -235 l0 -213 165 0 165 0 0 80 0 80 36 -40 c21 -23 68 -56 112 -78 76 -37
      77 -37 201 -37 117 0 130 2 186 28 57 26 145 101 166 140 8 13 5 24 -11 45 l-22 27 21 3 c29 5 34 33 29 155 -3 90 -8 110 -36
      168 -72 150 -237 234 -412 209 -110 -16 -219 -83 -271 -167 l-22 -36 -20 39 c-58 116 -200 185 -347 167 l-50 -6 0 117 0 116
      -165 0 -164 0 -3 -117z m242 -123 l0 -141 48 28 c42 25 56 28 138 28 83 0 94 -2 139 -30 36 -22 57 -45 77 -84 l28 -53 0 -209
      0 -209 -70 0 -70 0 0 180 c0 196 -8 235 -52 264 -44 29 -107 30 -158 4 -73 -37 -80 -61 -80 -270 l0 -178 -75 0 -75 0 0 405 0
      405 75 0 75 0 0 -140z m-450 -25 l0 -65 80 0 80 0 0 -55 0 -55 -81 0 -80 0 3 -159 c3 -142 5 -161 23 -181 16 -18 28 -21 65
      -18 25 3 51 6 58 9 9 2 21 -14 33 -43 l19 -48 -25 -16 c-33 -21 -130 -29 -184 -14 -55 15 -105 63 -120 115 -6 22 -11 111 -11
      198 l0 157 -51 0 -50 0 3 53 3 52 48 3 47 3 0 65 0 64 70 0 70 0 0 -65z m1447 -83 c99 -51 154 -140 157 -251 l1 -66 -227 -5
      -228 -5 18 -35 c45 -91 193 -118 289 -53 l38 25 38 -42 38 -43 -22 -23 c-11 -12 -44 -33 -72 -46 -74 -33 -220 -33 -292 0 -60
      28 -119 83 -147 137 -25 48 -35 162 -19 221 23 87 98 167 188 200 57 21 187 13 240 -14z m-1237 -237 c0 -25 -4 -45 -9 -45 -4
      0 -29 -16 -55 -35 l-46 -36 0 81 0 80 55 0 55 0 0 -45z"/>
    <path d="M4271 748 c-46 -23 -74 -55 -86 -95 l-6 -23 160 0 c110 0 161 3 161
      11 0 27 -35 80 -65 99 -52 32 -112 35 -164 8z"/>
    <path d="M5302 1144 c-325 -87 -472 -445 -301 -730 144 -240 510 -306 760 -139 l50 34 40 -39 c22 -22 65 -48 95 -60 52 -19 76 -20
      459 -20 l405 0 0 224 c0 241 2 251 52 244 l23 -3 3 -232 2 -233 165 0 165 0 0 208 c0 233 6 257 55 257 l30 0 3 -232 2 -233
      165 0 165 0 0 81 0 81 60 -55 c80 -74 145 -99 276 -105 159 -7 257 33 348 141 l39 47 -28 30 -29 30 26 0 c23 0 26 5 32 52 25
      210 -55 377 -216 448 -173 76 -401 19 -497 -126 l-29 -44 -22 44 c-70 146 -279 203 -458 126 l-50 -22 -40 21 c-60 30 -125 36
      -359 33 l-213 -3 0 -90 c0 -49 -3 -89 -7 -89 -5 0 -20 20 -35 45 -54 90 -159 138 -303 138 -88 1 -170 -15 -227 -44 -45 -23
      -54 -24 -39 -5 10 12 0 28 -57 85 -75 76 -151 119 -250 140 -71 15 -195 13 -260 -5z m224 -85 c75 -14 151 -50 189 -89 l29
      -30 -44 -45 c-44 -45 -44 -45 -65 -25 -41 38 -116 64 -190 64 -135 1 -240 -79 -265 -200 -26 -126 29 -246 137 -300 47 -23
      200 -27 251 -5 l32 13 0 119 0 119 70 0 70 0 0 -155 0 -154 -43 -25 c-86 -51 -124 -60 -257 -60 -122 -1 -127 0 -192 32 -83
      41 -168 129 -196 204 -114 309 141 598 474 537z m744 -203 c45 -23 87 -63 108 -101 14 -25 17 -68 20 -247 l4 -218 -66 0 -66
      0 0 31 0 31 -30 -26 c-75 -63 -222 -63 -308 1 -49 36 -65 76 -60 146 4 55 8 63 45 98 52 48 93 59 231 59 124 0 125 0 98 65
      -21 50 -64 68 -150 63 -46 -3 -86 -13 -114 -27 -24 -12 -45 -21 -46 -19 -18 25 -46 82 -46 92 0 14 95 60 140 69 57 12 205 1
      240 -17z m438 -14 l3 -33 30 25 c82 69 251 59 324 -20 l25 -27 28 25 c43 41 92 61 162 66 95 6 146 -11 201 -68 61 -62 69
      -101 69 -335 l0 -185 -70 0 -70 0 0 168 c0 179 -9 232 -44 267 -59 59 -180 32 -216 -47 -17 -37 -20 -66 -20 -215 l0 -173 -70
      0 -70 0 -1 178 c0 114 -5 189 -13 211 -25 71 -101 97 -179 63 -74 -33 -81 -55 -85 -269 l-4 -183 -69 0 -69 0 0 288 c0 159 3
      292 7 296 4 4 34 6 68 4 60 -3 60 -3 63 -36z m1375 22 c56 -19 131 -83 157 -134 22 -43 41 -148 33 -179 -5 -21 -11 -21 -229
      -21 -123 0 -224 -4 -224 -9 0 -23 50 -79 90 -98 70 -36 155 -28 224 20 l28 20 34 -39 c18 -21 33 -42 34 -45 1 -19 -77 -70
      -127 -85 -173 -50 -373 41 -415 190 -48 172 38 337 202 387 44 13 145 10 193 -7z m-2529 -54 l36 -25 -40 -3 -40 -3 0 -134 c0
      -147 1 -145 -69 -145 -50 0 -121 38 -148 79 -27 40 -31 126 -9 169 18 34 53 68 86 81 44 19 143 8 184 -19z m226 -10 c10 -18
      8 -20 -21 -20 -31 0 -32 0 -14 20 10 11 19 20 21 20 2 0 8 -9 14 -20z m73 -134 c6 -15 -1 -26 -15 -26 -4 0 -8 9 -8 20 0 23
      15 27 23 6z"/>
    <path d="M6067 530 c-44 -13 -57 -29 -57 -71 0 -50 31 -72 103 -72 90 0 147
      46 147 118 l0 35 -82 -1 c-46 0 -96 -5 -111 -9z"/>
    <path d="M7928 760 c-53 -16 -108 -73 -108 -112 0 -16 14 -18 160 -18 88 0 160 2 160 5 0 3 -6 20 -14 38 -18 43 -53 73 -101 86 -45
    12 -59 13 -97 1z"/>
  </g>
</svg>
