<?xml version="1.0" standalone="no"?>
<!DOCTYPE svg PUBLIC "-//W3C//DTDSVG20010904//EN"  "http://www.w3.org/TR/2001/REC-SVG-20010904/DTD/svg10.dtd">
<svg
  version="1.0"
  xmlns="http://www.w3.org/2000/svg"
  width="566.000000pt"
  height="141.000000pt"
  viewBox="0 0 566.000000 141.000000"
  preserveAspectRatio="xMidYMid meet">

  <g transform="translate(0.000000,141.000000) scale(0.100000,-0.100000)" fill="#0B7188" stroke="none">
    <path d="M830 1153 l-1 -108 -20 28 c-29 38 -99 84 -167 109 -52 20 -83 22 -324 26 l-268 4 0 -481 0 -481 170 0 170 0 0 110 0 110
      48 0 c138 0 259 40 337 112 l55 50 0 -191 0 -191 165 0 165 0 0 45 c0 47 9 56 31 29 7 -8 36 -28 63 -42 50 -26 56 -27 253
      -30 l203 -3 -21 -42 -22 -41 50 -46 c117 -108 319 -112 435 -11 58 52 70 75 263 521 92 212 169 388 172 393 2 4 -74 7 -169 7
      l-173 0 -55 -131 c-30 -71 -59 -129 -65 -128 -5 1 -35 59 -65 130 l-54 129 -178 0 c-162 0 -177 -1 -171 -17 5 -12 2 -15 -10
      -10 -129 49 -316 37 -436 -29 -24 -13 -45 -24 -47 -24 -2 0 -4 70 -4 155 l0 155 -165 0 -165 0 0 -107z m240 -398 l0 -405 -70
      0 -70 0 0 405 0 405 70 0 70 0 0 -405z m-525 354 c115 -21 212 -94 234 -176 44 -157 -33 -304 -181 -348 -34 -10 -94 -15 -175
      -15 l-123 0 0 -110 0 -110 -75 0 -75 0 0 385 0 385 168 0 c93 0 195 -5 227 -11z m1070 -200 c30 -15 62 -42 80 -68 l30 -43 3
      -224 3 -224 -65 0 -66 0 0 32 0 31 -23 -21 c-62 -58 -187 -70 -275 -26 -62 31 -93 71 -99 129 -7 58 11 108 52 144 47 41 91
      51 223 51 l112 0 0 30 c0 19 -11 42 -29 62 -29 32 -31 33 -113 33 -78 0 -102 -6 -170 -43 -10 -5 -60 86 -53 98 9 15 63 41
      115 56 25 7 85 12 135 11 75 -2 99 -6 140 -28z m417 -179 c48 -113 89 -209 91 -214 1 -5 44 88 94 205 l91 214 66 3 c36 2 66
      -1 66 -6 0 -21 -292 -681 -317 -716 -58 -83 -178 -110 -284 -65 -27 12 -49 26 -49 31 0 5 12 31 26 59 24 49 26 50 44 34 11
      -10 40 -20 64 -22 55 -7 89 12 112 60 16 33 15 34 -106 312 -67 154 -125 288 -127 298 -5 16 1 18 68 15 l74 -3 87 -205z
      m-848 3 c4 -9 0 -23 -9 -32 -13 -14 -15 -12 -15 17 0 34 14 43 24 15z m709 -255 c31 -70 51 -130 46 -133 -5 -3 -31 15 -59 41
      l-50 47 0 90 c0 50 2 88 4 86 2 -2 29 -61 59 -131z"/>
    <path d="M300 840 l0 -152 118 4 c122 5 158 15 196 57 28 30 34 124 12 166 -30 56 -66 69 -203 73 l-123 4 0 -152z m235 40 c22 -18
      19 -67 -4 -80 -11 -5 -47 -10 -80 -10 l-61 0 0 56 0 57 65 -5 c36 -3 72 -11 80 -18z"/>
    <path d="M1393 589 c-37 -11 -56 -38 -51 -76 10 -81 178 -89 232 -11 9 12 16
      39 16 60 l0 38 -82 -1 c-46 0 -98 -5 -115 -10z"/>
    <path d="M2740 730 l0 -480 170 0 170 0 2 167 3 168 135 -167 135 -167 128 -1 127 0 0 93 0 92 48 -51 c26 -29 62 -62 80 -74 89 -60
      265 -79 375 -41 101 35 187 109 224 193 9 21 20 38 23 38 4 0 27 -55 51 -122 l45 -123 133 0 133 0 43 110 c39 99 44 108 52
      85 6 -14 25 -64 43 -113 l33 -87 131 0 132 0 68 188 c38 103 73 191 77 197 15 16 9 -98 -6 -125 -19 -34 -19 -124 1 -167 27
      -56 76 -87 149 -91 75 -5 124 14 162 65 35 45 42 123 18 190 -16 45 -16 65 -1 343 9 162 16 310 16 328 l0 32 -181 0 -182 0 5
      -90 5 -90 -86 0 -86 0 -44 -120 c-24 -66 -45 -120 -46 -120 -1 0 -22 54 -46 120 l-43 120 -126 0 -125 0 -44 -120 c-24 -66
      -45 -120 -46 -120 -1 0 -22 54 -45 120 l-42 120 -168 0 c-163 0 -168 -1 -163 -20 6 -24 5 -24 -40 -5 -58 24 -159 35 -233 24
      -89 -12 -168 -52 -232 -116 -29 -29 -55 -53 -58 -53 -2 0 -4 79 -4 175 l0 175 -165 0 -165 0 -2 -167 -3 -168 -135 167 -135
      168 -132 0 -133 0 0 -480z m420 138 l205 -253 5 250 5 250 73 3 72 3 0 -386 0 -385 -62 0 -63 1 -205 253 -205 253 -3 -254 -2
      -253 -70 0 -70 0 0 385 0 385 58 0 57 0 205 -252z m2376 100 c-3 -84 -9 -201 -13 -260 l-6 -108 -57 0 -57 0 -6 123 c-4 67
      -10 184 -13 260 l-7 137 83 0 83 0 -7 -152z m-1442 -49 c64 -23 132 -85 161 -144 13 -27 21 -68 23 -123 4 -77 2 -88 -28 -148
      -56 -114 -164 -171 -304 -162 -112 7 -210 70 -258 163 -25 48 -35 162 -19 221 23 87 106 172 194 200 65 20 168 17 231 -7z
      m420 -186 c39 -111 74 -204 77 -208 3 -3 41 89 84 205 l78 210 58 0 c36 0 59 -5 62 -12 2 -7 37 -103 77 -213 40 -110 73 -201
      74 -202 1 -1 17 39 35 90 19 51 54 147 78 215 l45 122 59 0 c50 0 59 -3 58 -17 0 -10 -46 -142 -103 -293 l-102 -275 -69 -3
      -70 -3 -44 118 c-24 65 -57 153 -74 197 l-30 78 -49 -128 c-26 -71 -60 -159 -74 -196 l-26 -68 -68 0 c-64 0 -68 1 -79 28 -30
      77 -201 546 -201 554 0 5 30 8 66 6 l66 -3 72 -202z m1011 -248 c33 -32 32 -75 -1 -114 -33 -40 -79 -42 -123 -5 -63 53 -26
      144 59 144 30 0 47 -6 65 -25z"/>
    <path d="M3890 798 c-62 -32 -85 -75 -85 -158 0 -112 59 -175 165 -175 133 0 209 132 151 261 -39 85 -143 118 -231 72z m113 -79
    c76 -35 52 -159 -30 -159 -52 0 -73 23 -73 81 0 39 4 51 26 68 30 24 43 26 77 10z"/>
  </g>
</svg>
